<?xml version="1.0" encoding="UTF-8"?>
<!DOCTYPE svg PUBLIC "-//W3C//DTD SVG 1.1//EN" "http://www.w3.org/Graphics/SVG/1.1/DTD/svg11.dtd">
<!-- Creator: CorelDRAW X7 -->
<svg xmlns="http://www.w3.org/2000/svg" xml:space="preserve" width="407.438mm" height="286.851mm" version="1.1" shape-rendering="geometricPrecision" text-rendering="geometricPrecision" image-rendering="optimizeQuality" fill-rule="evenodd" clip-rule="evenodd"
viewBox="0 0 4074378 2868512"
 xmlns:xlink="http://www.w3.org/1999/xlink">
 <g id="Layer_x0020_1">
  <metadata id="CorelCorpID_0Corel-Layer"/>
  <path fill="#666666" d="M2825937 700739c0,-9665 -7835,-17500 -17500,-17500 -9665,0 -17500,7835 -17500,17500 0,9665 7835,17500 17500,17500 9665,0 17500,-7835 17500,-17500zm408427 449395c9665,0 17500,-7835 17500,-17500 0,-9665 -7835,-17500 -17500,-17500 -9665,0 -17500,7835 -17500,17500 0,9665 7835,17500 17500,17500zm0 320000c9665,0 17500,-7835 17500,-17500 0,-9665 -7835,-17500 -17500,-17500 -9665,0 -17500,7835 -17500,17500 0,9665 7835,17500 17500,17500zm-558426 -259395c0,-9665 -7835,-17500 -17500,-17500 -9665,0 -17500,7835 -17500,17500 0,9665 7835,17500 17500,17500 9665,0 17500,-7835 17500,-17500zm-330000 -520000c0,-9665 -7835,-17500 -17500,-17500 -9665,0 -17500,7835 -17500,17500 0,9665 7835,17500 17500,17500 9665,0 17500,-7835 17500,-17500zm50000 520000c0,-9665 -7835,-17500 -17500,-17500 -9665,0 -17500,7835 -17500,17500 0,9665 7835,17500 17500,17500 9665,0 17500,-7835 17500,-17500zm-276575 -746725l1460002 0c24750,0 44999,20249 44999,44999 0,667822 0,767558 0,1460002 0,24750 -20249,44999 -44999,44999l-1460002 0c-24750,0 -44999,-20249 -44999,-44999l0 -1460002c0,-24750 20249,-44999 44999,-44999zm1 1060486l0 105000 30000 0 0 -105000 -30000 0zm0 -705486l0 280000 30000 0 0 -280000 -30000 0zm208656 -310000l-100602 0 0 30000 100602 0 0 -30000zm959344 0l-498968 0 0 30000 498968 0 0 -30000zm292000 510163l0 -200163 -30000 0 0 200163 30000 0zm0 639837l0 -280000 -30000 0 0 280000 30000 0zm-876000 280000l-292000 0 0 30000 292000 0 0 -30000zm584000 0l-292000 0 0 30000 292000 0 0 -30000zm-925728 -174514c-9665,0 -17500,7835 -17500,17500 0,9665 7835,17500 17500,17500 9665,0 17500,-7835 17500,-17500 0,-9665 -7835,-17500 -17500,-17500zm0 -400000c-9665,0 -17500,7835 -17500,17500 0,9665 7835,17500 17500,17500 9665,0 17500,-7835 17500,-17500 0,-9665 -7835,-17500 -17500,-17500zm-60000 185000c-9665,0 -17500,7835 -17500,17500 0,9665 7835,17500 17500,17500 9665,0 17500,-7835 17500,-17500 0,-9665 -7835,-17500 -17500,-17500zm1169674 351459c22090,2 39999,-17906 39999,-39997 1,-22093 -17908,-40001 -39999,-39999 -22091,-2 -40000,17908 -39998,39998 -2,22092 17907,40000 39998,39998zm-1243892 0c22090,2 39999,-17906 39999,-39997 1,-22093 -17908,-40001 -39999,-39999 -22091,-2 -40000,17908 -39998,39998 -2,22092 17907,40000 39998,39998zm0 -1243894c22090,2 39999,-17906 39999,-39997 1,-22093 -17908,-40001 -39999,-39999 -22091,-2 -40000,17908 -39998,39998 -2,22092 17907,40000 39998,39998zm1243892 0c22090,2 39999,-17906 39999,-39997 1,-22093 -17908,-40001 -39999,-39999 -22091,-2 -40000,17908 -39998,39998 -2,22092 17907,40000 39998,39998zm-328781 1096804c-9665,0 -17500,7835 -17500,17500 0,9665 7835,17500 17500,17500 9665,0 17500,-7835 17500,-17500 0,-9665 -7835,-17500 -17500,-17500zm-455000 0c-9665,0 -17500,7835 -17500,17500 0,9665 7835,17500 17500,17500 9665,0 17500,-7835 17500,-17500 0,-9665 -7835,-17500 -17500,-17500zm455000 -340000c-9665,0 -17500,7835 -17500,17500 0,9665 7835,17500 17500,17500 9665,0 17500,-7835 17500,-17500 0,-9665 -7835,-17500 -17500,-17500zm-455000 0c-9665,0 -17500,7835 -17500,17500 0,9665 7835,17500 17500,17500 9665,0 17500,-7835 17500,-17500 0,-9665 -7835,-17500 -17500,-17500zm320727 -559855c0,-9665 7835,-17500 17500,-17500 9665,0 17500,7835 17500,17500 0,9665 -7835,17500 -17500,17500 -9665,0 -17500,-7835 -17500,-17500zm320000 0c0,-9665 7835,-17500 17500,-17500 9665,0 17500,7835 17500,17500 0,9665 -7835,17500 -17500,17500 -9665,0 -17500,-7835 -17500,-17500zm149764 779303c-9665,0 -17500,7835 -17500,17500 0,9665 7835,17500 17500,17500 9665,0 17500,-7835 17500,-17500 0,-9665 -7835,-17500 -17500,-17500zm-259954 0c-9665,0 -17500,7835 -17500,17500 0,9665 7835,17500 17500,17500 9665,0 17500,-7835 17500,-17500 0,-9665 -7835,-17500 -17500,-17500z"/>
  <path fill="#666666" d="M2119364 2483279l1460000 0 0 -345665 -292000 0 0 -30000 -292000 0 0 30000 -292000 0 0 -30000 -292000 0 0 30000 -292000 0 0 345665zm375606 -155332c-9665,0 -17500,-7835 -17500,-17500 0,-9665 7835,-17500 17500,-17500 9665,0 17500,7835 17500,17500 0,9665 -7835,17500 -17500,17500zm708788 0c-9665,0 -17500,-7835 -17500,-17500 0,-9665 7835,-17500 17500,-17500 9665,0 17500,7835 17500,17500 0,9665 -7835,17500 -17500,17500z"/>
  <path fill="#666666" d="M2971011 206896l159490 0c15319,0 27851,12532 27851,27850l0 52784c0,15318 -12532,27850 -27851,27850l-159490 0c-15319,0 -27851,-12532 -27851,-27850l0 -52784c0,-15318 12532,-27850 27851,-27850zm-851647 -206896l1460000 0 0 345665 -292000 0 0 30000 -498968 0 0 -30000 0 -153147c0,-10997 -8999,-19999 -19999,-19999l-420378 0c-11000,0 -19999,8999 -19999,19999l0 153147 0 30000 -100602 0 0 -30000 -108054 0 0 -345665z"/>
  <path fill="#666666" d="M1624348 1939014l0 -1400000 345665 0 0 280000 30000 0 0 280000 -30000 0 0 325486 -59999 0c-27501,0 -50001,22500 -50001,50000l0 0c0,27500 22501,50000 50001,50000l59999 0 30000 0 0 105000 -30000 0 -55001 0c-24749,0 -44999,20249 -44999,44999l0 2c0,24750 20251,44999 44999,44999l55001 0 0 219514 -345665 0zm292833 -977439c-9665,0 -17500,7835 -17500,17500 0,9665 7835,17500 17500,17500 9665,0 17500,-7835 17500,-17500 0,-9665 -7835,-17500 -17500,-17500zm-120000 -242500c77320,0 140000,62680 140000,140000 0,77320 -62680,140000 -140000,140000 -77320,0 -140000,-62680 -140000,-140000 0,-77320 62680,-140000 140000,-140000zm-120000 2500c-9665,0 -17500,7835 -17500,17500 0,9665 7835,17500 17500,17500 9665,0 17500,-7835 17500,-17500 0,-9665 -7835,-17500 -17500,-17500zm240000 0c-9665,0 -17500,7835 -17500,17500 0,9665 7835,17500 17500,17500 9665,0 17500,-7835 17500,-17500 0,-9665 -7835,-17500 -17500,-17500zm-240000 240000c-9665,0 -17500,7835 -17500,17500 0,9665 7835,17500 17500,17500 9665,0 17500,-7835 17500,-17500 0,-9665 -7835,-17500 -17500,-17500z"/>
  <path fill="#666666" d="M3867482 1077889l0 159490c0,15319 -12532,27851 -27850,27851l-52784 0c-15318,0 -27850,-12532 -27850,-27851l0 -159490c0,-15319 12532,-27851 27850,-27851l52784 0c15318,0 27850,12532 27850,27851zm-85937 -116314c-9665,0 -17500,7835 -17500,17500 0,9665 7835,17500 17500,17500 9665,0 17500,-7835 17500,-17500 0,-9665 -7835,-17500 -17500,-17500zm240000 -240000c-9665,0 -17500,7835 -17500,17500 0,9665 7835,17500 17500,17500 9665,0 17500,-7835 17500,-17500 0,-9665 -7835,-17500 -17500,-17500zm-240000 0c-9665,0 -17500,7835 -17500,17500 0,9665 7835,17500 17500,17500 9665,0 17500,-7835 17500,-17500 0,-9665 -7835,-17500 -17500,-17500zm120000 -2500c77320,0 140000,62680 140000,140000 0,77320 -62680,140000 -140000,140000 -77320,0 -140000,-62680 -140000,-140000 0,-77320 62680,-140000 140000,-140000zm120000 242500c-9665,0 -17500,7835 -17500,17500 0,9665 7835,17500 17500,17500 9665,0 17500,-7835 17500,-17500 0,-9665 -7835,-17500 -17500,-17500zm-292832 417439l-30000 0 0 280000 30000 0 0 280000 345665 0 0 -1400000 -345665 0 0 280000 -30000 0 0 200163 30000 0 0 359837z"/>
  <path fill="#666666" d="M2584196 2868512l212668 0 0 -30000 105000 0 0 30000 212668 0c95057,0 172832,-77774 172832,-172832l0 -1c0,-95058 -77775,-172832 -172832,-172832l-530336 0c-95059,0 -172832,77774 -172832,172832l0 1c0,95058 77773,172832 172832,172832zm-89226 -155332c-9665,0 -17500,-7835 -17500,-17500 0,-9665 7835,-17500 17500,-17500 9665,0 17500,7835 17500,17500 0,9665 -7835,17500 -17500,17500zm708788 0c-9665,0 -17500,-7835 -17500,-17500 0,-9665 7835,-17500 17500,-17500 9665,0 17500,7835 17500,17500 0,9665 -7835,17500 -17500,17500z"/>
  <path fill="#666666" d="M3903058 2172968c22092,0 40000,17908 40000,40000 0,22092 -17908,40000 -40000,40000 -22092,0 -40000,-17908 -40000,-40000 0,-22092 17908,-40000 40000,-40000zm-141823 -35000l283644 0c16226,0 29499,13274 29499,29499l0 91003c0,16225 -13273,29498 -29499,29498l-283644 0c-16226,0 -29499,-13273 -29499,-29498l0 -91003c0,-16225 13273,-29499 29499,-29499zm11845 59644c-9665,0 -17500,7835 -17500,17500 0,9665 7835,17500 17500,17500 9665,0 17500,-7835 17500,-17500 0,-9665 -7835,-17500 -17500,-17500zm259954 0c-9665,0 -17500,7835 -17500,17500 0,9665 7835,17500 17500,17500 9665,0 17500,-7835 17500,-17500 0,-9665 -7835,-17500 -17500,-17500z"/>
  <path fill="#666666" d="M1898582 2269742c-9665,0 -17500,7835 -17500,17500 0,9665 7835,17500 17500,17500 9665,0 17500,-7835 17500,-17500 0,-9665 -7835,-17500 -17500,-17500zm60000 -185000c-9665,0 -17500,7835 -17500,17500 0,9665 7835,17500 17500,17500 9665,0 17500,-7835 17500,-17500 0,-9665 -7835,-17500 -17500,-17500zm0 400000c-9665,0 -17500,7835 -17500,17500 0,9665 7835,17500 17500,17500 9665,0 17500,-7835 17500,-17500 0,-9665 -7835,-17500 -17500,-17500zm-110000 27201l0 -417921c0,-14866 12165,-27032 27033,-27032l95935 0c14868,0 27032,12166 27032,27032l0 417921c0,14869 -12164,27032 -27032,27032l-95935 0c-14868,0 -27033,-12163 -27033,-27032z"/>
  <path fill="#666666" d="M44999 464014l1460002 0c24750,0 44999,20249 44999,44999 0,606047 0,837329 0,1460002 0,24750 -20249,44999 -44999,44999l-1460002 0c-24750,0 -44999,-20249 -44999,-44999l0 -1460002c0,-24750 20249,-44999 44999,-44999zm1351947 200551c26233,1 47499,-21264 47499,-47497 3,-26235 -21265,-47500 -47499,-47499 -26233,-1 -47499,21265 -47498,47498 -1,26234 21265,47499 47498,47498zm-1243892 0c26233,1 47499,-21264 47499,-47497 3,-26235 -21265,-47500 -47499,-47499 -26233,-1 -47499,21265 -47498,47498 -1,26234 21265,47499 47498,47498zm0 1243894c26233,1 47499,-21264 47499,-47497 3,-26235 -21265,-47500 -47499,-47499 -26233,-1 -47499,21265 -47498,47498 -1,26234 21265,47499 47498,47498zm1243892 0c26233,1 47499,-21264 47499,-47497 3,-26235 -21265,-47500 -47499,-47499 -26233,-1 -47499,21265 -47498,47498 -1,26234 21265,47499 47498,47498z"/>
  <path fill="#666666" d="M3903058 2367406c22092,0 40000,17908 40000,40000 0,22092 -17908,40000 -40000,40000 -22092,0 -40000,-17908 -40000,-40000 0,-22092 17908,-40000 40000,-40000zm-141823 -35000l283644 0c16226,0 29499,13274 29499,29499l0 91003c0,16225 -13273,29498 -29499,29498l-283644 0c-16226,0 -29499,-13273 -29499,-29498l0 -91003c0,-16225 13273,-29499 29499,-29499zm11845 59644c-9665,0 -17500,7835 -17500,17500 0,9665 7835,17500 17500,17500 9665,0 17500,-7835 17500,-17500 0,-9665 -7835,-17500 -17500,-17500zm259954 0c-9665,0 -17500,7835 -17500,17500 0,9665 7835,17500 17500,17500 9665,0 17500,-7835 17500,-17500 0,-9665 -7835,-17500 -17500,-17500z"/>
  <path fill="#666666" d="M1674348 2269742c-9665,0 -17500,7835 -17500,17500 0,9665 7835,17500 17500,17500 9665,0 17500,-7835 17500,-17500 0,-9665 -7835,-17500 -17500,-17500zm60000 -185000c-9665,0 -17500,7835 -17500,17500 0,9665 7835,17500 17500,17500 9665,0 17500,-7835 17500,-17500 0,-9665 -7835,-17500 -17500,-17500zm0 400000c-9665,0 -17500,7835 -17500,17500 0,9665 7835,17500 17500,17500 9665,0 17500,-7835 17500,-17500 0,-9665 -7835,-17500 -17500,-17500zm-110000 27201l0 -417921c0,-14866 12165,-27032 27033,-27032l95935 0c14868,0 27032,12166 27032,27032l0 417921c0,14869 -12164,27032 -27032,27032l-95935 0c-14868,0 -27033,-12163 -27033,-27032z"/>
 </g>
</svg>
