<?xml version="1.0" encoding="UTF-8"?>
<!DOCTYPE svg PUBLIC "-//W3C//DTD SVG 1.1//EN" "http://www.w3.org/Graphics/SVG/1.1/DTD/svg11.dtd">
<!-- Creator: CorelDRAW X8 -->
<svg xmlns="http://www.w3.org/2000/svg" xml:space="preserve" width="497.84mm" height="307.311mm" version="1.1" style="shape-rendering:geometricPrecision; text-rendering:geometricPrecision; image-rendering:optimizeQuality; fill-rule:evenodd; clip-rule:evenodd"
viewBox="0 0 497840 307311"
 xmlns:xlink="http://www.w3.org/1999/xlink">
 <defs>
  <style type="text/css">
   <![CDATA[
    .str1 {stroke:black;stroke-width:176.4}
    .str0 {stroke:#2B2A29;stroke-width:76.2}
    .fil0 {fill:none}
   ]]>
  </style>
 </defs>
 <g id="Слой_x0020_1">
  <metadata id="CorelCorpID_0Corel-Layer"/>
  <g id="_1901420269200">
   <path class="fil0 str0" d="M301496 73162c0,-966 -783,-1750 -1750,-1750 -966,0 -1750,784 -1750,1750 0,967 784,1750 1750,1750 967,0 1750,-783 1750,-1750zm40843 44940c966,0 1750,-784 1750,-1750 0,-967 -784,-1750 -1750,-1750 -967,0 -1750,783 -1750,1750 0,966 783,1750 1750,1750zm0 32000c966,0 1750,-784 1750,-1750 0,-967 -784,-1750 -1750,-1750 -967,0 -1750,783 -1750,1750 0,966 783,1750 1750,1750zm-55843 -25940c0,-966 -783,-1750 -1750,-1750 -966,0 -1750,784 -1750,1750 0,967 784,1750 1750,1750 967,0 1750,-783 1750,-1750zm-33000 -52000c0,-966 -783,-1750 -1750,-1750 -966,0 -1750,784 -1750,1750 0,967 784,1750 1750,1750 967,0 1750,-783 1750,-1750zm5000 52000c0,-966 -783,-1750 -1750,-1750 -966,0 -1750,784 -1750,1750 0,967 784,1750 1750,1750 967,0 1750,-783 1750,-1750zm-27657 -74672l146000 0c2475,0 4500,2024 4500,4499 0,66783 0,76756 0,146001 0,2475 -2025,4500 -4500,4500l-146000 0c-2475,0 -4500,-2025 -4500,-4500l0 -146001c0,-2475 2025,-4499 4500,-4499zm0 106048l0 10500 3000 0 0 -10500 -3000 0zm0 -70548l0 28000 3000 0 0 -28000 -3000 0zm20865 -31000l-10060 0 0 3000 10060 0 0 -3000zm95935 0l-49897 0 0 3000 49897 0 0 -3000zm29200 51016l0 -20016 -3000 0 0 20016 3000 0zm0 63984l0 -28000 -3000 0 0 28000 3000 0zm-87600 28000l-29200 0 0 3000 29200 0 0 -3000zm58400 0l-29200 0 0 3000 29200 0 0 -3000zm-92573 -17452c-967,0 -1750,784 -1750,1750 0,967 783,1750 1750,1750 966,0 1750,-783 1750,-1750 0,-966 -784,-1750 -1750,-1750zm0 -40000c-967,0 -1750,784 -1750,1750 0,967 783,1750 1750,1750 966,0 1750,-783 1750,-1750 0,-966 -784,-1750 -1750,-1750zm-6000 18500c-967,0 -1750,784 -1750,1750 0,967 783,1750 1750,1750 966,0 1750,-783 1750,-1750 0,-966 -784,-1750 -1750,-1750zm116967 35146c2209,0 4000,-1790 4000,-4000 0,-2209 -1791,-4000 -4000,-3999 -2209,-1 -4000,1790 -3999,3999 -1,2210 1790,4000 3999,4000zm-124389 0c2209,0 4000,-1790 4000,-4000 0,-2209 -1791,-4000 -4000,-3999 -2209,-1 -4000,1790 -4000,3999 0,2210 1791,4000 4000,4000zm0 -124389c2209,0 4000,-1791 4000,-4000 0,-2209 -1791,-4000 -4000,-4000 -2209,0 -4000,1791 -4000,4000 0,2209 1791,4000 4000,4000zm124389 0c2209,0 4000,-1791 4000,-4000 0,-2209 -1791,-4000 -4000,-4000 -2209,0 -4000,1791 -3999,4000 -1,2209 1790,4000 3999,4000zm-32878 109680c-966,0 -1750,784 -1750,1750 0,967 784,1750 1750,1750 967,0 1750,-783 1750,-1750 0,-966 -783,-1750 -1750,-1750zm-45500 0c-966,0 -1750,784 -1750,1750 0,967 784,1750 1750,1750 967,0 1750,-783 1750,-1750 0,-966 -783,-1750 -1750,-1750zm45500 -34000c-966,0 -1750,784 -1750,1750 0,967 784,1750 1750,1750 967,0 1750,-783 1750,-1750 0,-966 -783,-1750 -1750,-1750zm-45500 0c-966,0 -1750,784 -1750,1750 0,967 784,1750 1750,1750 967,0 1750,-783 1750,-1750 0,-966 -783,-1750 -1750,-1750zm32073 -55985c0,-967 783,-1750 1750,-1750 966,0 1750,783 1750,1750 0,966 -784,1750 -1750,1750 -967,0 -1750,-784 -1750,-1750zm32000 0c0,-967 783,-1750 1750,-1750 966,0 1750,783 1750,1750 0,966 -784,1750 -1750,1750 -967,0 -1750,-784 -1750,-1750zm14976 77930c-966,0 -1750,783 -1750,1750 0,966 784,1750 1750,1750 967,0 1750,-784 1750,-1750 0,-967 -783,-1750 -1750,-1750zm-25995 0c-967,0 -1750,783 -1750,1750 0,966 783,1750 1750,1750 966,0 1750,-784 1750,-1750 0,-967 -784,-1750 -1750,-1750zm-10353 26170l-10500 0 0 -3000 10500 0 0 3000zm-42534 0l-10500 0 0 -3000 10500 0 0 3000z"/>
   <polygon class="fil0 str1" points="230839,251416 298589,251416 298589,254416 309089,254416 309089,251416 376839,251416 376839,216850 347639,216850 347639,213850 318439,213850 318439,216850 289239,216850 289239,213850 260039,213850 260039,216850 230839,216850 "/>
   <path class="fil0 str1" d="M316003 23778l15949 0c1532,0 2786,1253 2786,2785l0 5278c0,1532 -1254,2785 -2786,2785l-15949 0c-1531,0 -2785,-1253 -2785,-2785l0 -5278c0,-1532 1254,-2785 2785,-2785zm-17414 -20690l0 -3000 10500 0 0 3000 67750 0 0 34567 -29200 0 0 3000 -49897 0 0 -3000 0 -15315c0,-1100 -900,-2000 -2000,-2000l-42038 0c-1100,0 -2000,900 -2000,2000l0 15315 0 3000 -10060 0 0 -3000 -10805 0 0 -34567 67750 0z"/>
   <path class="fil0 str1" d="M184911 196990l0 -64750 -3000 0 0 -10500 3000 0 0 -64750 34567 0 0 28000 3000 0 0 28000 -3000 0 0 32548 -6000 0c-2750,0 -5000,2250 -5000,5000l0 0c0,2750 2250,5000 5000,5000l6000 0 3000 0 0 10500 -3000 0 -5500 0c-2475,0 -4500,2025 -4500,4500l0 0c0,2475 2025,4500 4500,4500l5500 0 0 21952 -34567 0zm29284 -97744c-967,0 -1750,783 -1750,1750 0,966 783,1750 1750,1750 966,0 1750,-784 1750,-1750 0,-967 -784,-1750 -1750,-1750zm-12000 -24250c7732,0 14000,6268 14000,14000 0,7732 -6268,14000 -14000,14000 -7732,0 -14000,-6268 -14000,-14000 0,-7732 6268,-14000 14000,-14000zm-12000 250c-967,0 -1750,783 -1750,1750 0,966 783,1750 1750,1750 966,0 1750,-784 1750,-1750 0,-967 -784,-1750 -1750,-1750zm24000 0c-967,0 -1750,783 -1750,1750 0,966 783,1750 1750,1750 966,0 1750,-784 1750,-1750 0,-967 -784,-1750 -1750,-1750zm-24000 24000c-967,0 -1750,783 -1750,1750 0,966 783,1750 1750,1750 966,0 1750,-784 1750,-1750 0,-967 -784,-1750 -1750,-1750z"/>
   <path class="fil0 str1" d="M402711 110877l0 15949c0,1532 -1253,2785 -2785,2785l-5278 0c-1532,0 -2785,-1253 -2785,-2785l0 -15949c0,-1532 1253,-2785 2785,-2785l5278 0c1532,0 2785,1253 2785,2785zm23690 10863l0 10500 -3000 0 0 64750 -34567 0 0 -28000 -3000 0 0 -28000 3000 0 0 -35984 -3000 0 0 -20016 3000 0 0 -28000 34567 0 0 64750 3000 0zm-32283 -22494c-967,0 -1750,783 -1750,1750 0,966 783,1750 1750,1750 966,0 1750,-784 1750,-1750 0,-967 -784,-1750 -1750,-1750zm24000 -24000c-967,0 -1750,783 -1750,1750 0,966 783,1750 1750,1750 966,0 1750,-784 1750,-1750 0,-967 -784,-1750 -1750,-1750zm-24000 0c-967,0 -1750,783 -1750,1750 0,966 783,1750 1750,1750 966,0 1750,-784 1750,-1750 0,-967 -784,-1750 -1750,-1750zm12000 -250c7732,0 14000,6268 14000,14000 0,7732 -6268,14000 -14000,14000 -7732,0 -14000,-6268 -14000,-14000 0,-7732 6268,-14000 14000,-14000zm12000 24250c-967,0 -1750,783 -1750,1750 0,966 783,1750 1750,1750 966,0 1750,-784 1750,-1750 0,-967 -784,-1750 -1750,-1750z"/>
   <path class="fil0 str1" d="M287822 304223l10767 0 0 -3000 10500 0 0 3000 10767 0 0 3000 10500 0 0 -3000c9505,0 17283,-7778 17283,-17284 0,-9505 -7778,-17283 -17283,-17283l0 -3000 -10500 0 0 3000 -10767 0 0 3000 -10500 0 0 -3000 -10767 0 0 -3000 -10500 0 0 3000c-9506,0 -17283,7778 -17283,17283 0,9506 7777,17284 17283,17284l0 3000 10500 0 0 -3000z"/>
   <path class="fil0 str1" d="M410449 220385c2209,0 4000,1791 4000,4000 0,2209 -1791,4000 -4000,4000 -2209,0 -4000,-1791 -4000,-4000 0,-2209 1791,-4000 4000,-4000zm-14183 -3500l28365 0c1622,0 2950,1327 2950,2950l0 9100c0,1623 -1328,2950 -2950,2950l-28365 0c-1622,0 -2949,-1327 -2949,-2950l0 -9100c0,-1623 1327,-2950 2949,-2950zm1185 5964c-967,0 -1750,784 -1750,1750 0,967 783,1750 1750,1750 966,0 1750,-783 1750,-1750 0,-966 -784,-1750 -1750,-1750zm25995 0c-966,0 -1750,784 -1750,1750 0,967 784,1750 1750,1750 967,0 1750,-783 1750,-1750 0,-966 -783,-1750 -1750,-1750z"/>
   <path class="fil0 str0" d="M205821 230062c-966,0 -1750,784 -1750,1750 0,967 784,1750 1750,1750 967,0 1750,-783 1750,-1750 0,-966 -783,-1750 -1750,-1750zm6000 -18500c-966,0 -1750,784 -1750,1750 0,967 784,1750 1750,1750 967,0 1750,-783 1750,-1750 0,-966 -783,-1750 -1750,-1750zm0 40000c-966,0 -1750,784 -1750,1750 0,967 784,1750 1750,1750 967,0 1750,-783 1750,-1750 0,-966 -783,-1750 -1750,-1750zm-11000 2720l0 -41792c0,-1486 1217,-2703 2704,-2703l9593 0c1487,0 2703,1217 2703,2703l0 41792c0,1487 -1216,2704 -2703,2704l-9593 0c-1487,0 -2704,-1217 -2704,-2704z"/>
   <path class="fil0 str1" d="M4588 49490l146000 0c2475,0 4500,2024 4500,4499 0,60605 0,83733 0,146001 0,2475 -2025,4500 -4500,4500l-146000 0c-2475,0 -4500,-2025 -4500,-4500l0 -146001c0,-2475 2025,-4499 4500,-4499zm135195 20055c2623,0 4750,-2127 4750,-4750 0,-2624 -2127,-4750 -4750,-4750 -2623,0 -4750,2127 -4750,4750 0,2623 2127,4750 4750,4750zm-124389 0c2623,0 4750,-2127 4750,-4750 0,-2624 -2127,-4750 -4750,-4750 -2624,0 -4750,2127 -4750,4750 0,2623 2126,4750 4750,4750zm0 124389c2623,0 4750,-2126 4750,-4750 0,-2623 -2127,-4750 -4750,-4749 -2624,-1 -4750,2126 -4750,4749 0,2624 2126,4750 4750,4750zm124389 0c2623,0 4750,-2126 4750,-4750 0,-2623 -2127,-4750 -4750,-4749 -2623,-1 -4750,2126 -4750,4749 0,2624 2127,4750 4750,4750zm-67445 -139944l10500 0 0 3000 -10500 0 0 -3000zm78250 67750l0 10500 -3000 0 0 -10500 3000 0zm-143000 0l0 10500 -3000 0 0 -10500 3000 0zm64750 75250l10500 0 0 3000 -10500 0 0 -3000zm31767 -4400l-10500 0 0 -3000 10500 0 0 3000zm-42534 0l-10500 0 0 -3000 10500 0 0 3000z"/>
   <path class="fil0 str1" d="M460798 120409l32907 0c2226,0 4047,1821 4047,4046l0 32907c0,2226 -1821,4047 -4047,4047l-32907 0c-2225,0 -4046,-1821 -4046,-4047l0 -32907c0,-2225 1821,-4046 4046,-4046zm16454 4000c9113,0 16500,7387 16500,16500 0,9113 -7387,16500 -16500,16500 -9113,0 -16500,-7387 -16500,-16500 0,-9113 7387,-16500 16500,-16500zm15500 2650c911,0 1650,-739 1650,-1650 0,-912 -739,-1650 -1650,-1650 -911,0 -1650,739 -1650,1650 0,911 739,1650 1650,1650zm0 31000c911,0 1650,-739 1650,-1650 0,-912 -739,-1650 -1650,-1650 -911,0 -1650,739 -1650,1650 0,911 739,1650 1650,1650zm-31000 0c911,0 1650,-739 1650,-1650 0,-912 -739,-1650 -1650,-1650 -911,0 -1650,738 -1650,1650 0,911 739,1650 1650,1650zm0 -31000c911,0 1650,-739 1650,-1650 0,-912 -739,-1650 -1650,-1650 -911,0 -1650,738 -1650,1650 0,911 739,1650 1650,1650z"/>
  </g>
 </g>
</svg>
