<?xml version="1.0" encoding="UTF-8"?>
<!DOCTYPE svg PUBLIC "-//W3C//DTD SVG 1.1//EN" "http://www.w3.org/Graphics/SVG/1.1/DTD/svg11.dtd">
<!-- Creator: CorelDRAW X8 -->
<svg xmlns="http://www.w3.org/2000/svg" xml:space="preserve" width="1903.74mm" height="980.836mm" version="1.1" style="shape-rendering:geometricPrecision; text-rendering:geometricPrecision; image-rendering:optimizeQuality; fill-rule:evenodd; clip-rule:evenodd"
viewBox="0 0 1903742 980836"
 xmlns:xlink="http://www.w3.org/1999/xlink">
 <defs>
  <style type="text/css">
   <![CDATA[
    .str4 {stroke:black;stroke-width:176.4}
    .str2 {stroke:#2B2A29;stroke-width:76.2}
    .str5 {stroke:#2B2A29;stroke-width:76.2}
    .str3 {stroke:#2B2A29;stroke-width:76.2}
    .str0 {stroke:black;stroke-width:76.2}
    .str1 {stroke:red;stroke-width:76.2}
    .fil0 {fill:none}
   ]]>
  </style>
 </defs>
 <g id="Layer_x0020_1">
  <metadata id="CorelCorpID_0Corel-Layer"/>
  <g id="_1901420269392">
   <path class="fil0 str0" d="M445363 705548c0,-1712 1388,-3100 3100,-3100 1712,0 3100,1388 3100,3100 0,1712 -1388,3100 -3100,3100 -1712,0 -3100,-1388 -3100,-3100z"/>
   <path class="fil0 str0" d="M445363 720071c0,-1712 1388,-3100 3100,-3100 1712,0 3100,1388 3100,3100 0,1712 -1388,3100 -3100,3100 -1712,0 -3100,-1388 -3100,-3100z"/>
   <path class="fil0 str0" d="M445363 734594c0,-1712 1388,-3100 3100,-3100 1712,0 3100,1388 3100,3100 0,1712 -1388,3100 -3100,3100 -1712,0 -3100,-1388 -3100,-3100z"/>
   <path class="fil0 str0" d="M445363 749117c0,-1712 1388,-3100 3100,-3100 1712,0 3100,1388 3100,3100 0,1712 -1388,3100 -3100,3100 -1712,0 -3100,-1388 -3100,-3100z"/>
   <path class="fil0 str0" d="M421022 705548c0,-1712 1387,-3100 3100,-3100 1712,0 3100,1388 3100,3100 0,1712 -1388,3100 -3100,3100 -1713,0 -3100,-1388 -3100,-3100z"/>
   <path class="fil0 str0" d="M421022 720071c0,-1712 1387,-3100 3100,-3100 1712,0 3100,1388 3100,3100 0,1712 -1388,3100 -3100,3100 -1713,0 -3100,-1388 -3100,-3100z"/>
   <path class="fil0 str0" d="M421022 734594c0,-1712 1387,-3100 3100,-3100 1712,0 3100,1388 3100,3100 0,1712 -1388,3100 -3100,3100 -1713,0 -3100,-1388 -3100,-3100z"/>
   <path class="fil0 str0" d="M421022 749117c0,-1712 1387,-3100 3100,-3100 1712,0 3100,1388 3100,3100 0,1712 -1388,3100 -3100,3100 -1713,0 -3100,-1388 -3100,-3100z"/>
   <path class="fil0 str0" d="M433192 827150l0 -14706c0,-1705 1395,-3099 3100,-3099 1705,0 3100,1394 3100,3099l0 14706c0,1705 -1395,3100 -3100,3100 -1705,0 -3100,-1395 -3100,-3100z"/>
   <path class="fil0 str0" d="M673989 563077c-1483,-856 -1991,-2752 -1135,-4235 856,-1482 2752,-1990 4235,-1134 1483,856 1991,2752 1135,4234 -856,1483 -2752,1991 -4235,1135z"/>
   <path class="fil0 str0" d="M686566 570338c-1483,-856 -1991,-2752 -1135,-4234 856,-1483 2752,-1991 4235,-1135 1483,856 1991,2752 1135,4235 -856,1482 -2752,1990 -4235,1134z"/>
   <path class="fil0 str0" d="M699143 577600c-1482,-856 -1990,-2752 -1134,-4235 856,-1483 2752,-1991 4234,-1135 1483,857 1991,2752 1135,4235 -856,1483 -2752,1991 -4235,1135z"/>
   <path class="fil0 str0" d="M711720 584861c-1482,-856 -1990,-2752 -1134,-4234 856,-1483 2752,-1991 4234,-1135 1483,856 1991,2752 1135,4235 -856,1482 -2752,1990 -4235,1134z"/>
   <path class="fil0 str0" d="M661818 584157c-1483,-856 -1991,-2752 -1135,-4234 856,-1483 2752,-1991 4235,-1135 1483,856 1991,2752 1135,4235 -856,1482 -2752,1991 -4235,1134z"/>
   <path class="fil0 str0" d="M674395 591419c-1482,-856 -1990,-2752 -1134,-4235 856,-1483 2752,-1991 4234,-1134 1483,856 1991,2751 1135,4234 -856,1483 -2752,1991 -4235,1135z"/>
   <path class="fil0 str0" d="M686972 598680c-1482,-856 -1990,-2752 -1134,-4234 856,-1483 2752,-1991 4234,-1135 1483,856 1991,2752 1135,4235 -856,1482 -2752,1990 -4235,1134z"/>
   <path class="fil0 str0" d="M699550 605942c-1483,-856 -1991,-2752 -1135,-4235 856,-1483 2752,-1991 4235,-1135 1482,856 1990,2752 1134,4235 -856,1483 -2752,1991 -4234,1135z"/>
   <path class="fil0 str0" d="M773214 634418l-12736 -7353c-1476,-852 -1987,-2758 -1134,-4234 852,-1477 2758,-1987 4234,-1135l12736 7353c1476,852 1987,2758 1134,4234 -852,1477 -2757,1988 -4234,1135z"/>
   <path class="fil0 str0" d="M427154 166969c0,1712 -1388,3100 -3100,3100 -1712,0 -3100,-1388 -3100,-3100 0,-1712 1388,-3100 3100,-3100 1712,0 3100,1388 3100,3100z"/>
   <path class="fil0 str0" d="M427154 152446c0,1712 -1388,3100 -3100,3100 -1712,0 -3100,-1388 -3100,-3100 0,-1712 1388,-3100 3100,-3100 1712,0 3100,1388 3100,3100z"/>
   <path class="fil0 str0" d="M427154 137923c0,1712 -1388,3100 -3100,3100 -1712,0 -3100,-1388 -3100,-3100 0,-1712 1388,-3100 3100,-3100 1712,0 3100,1388 3100,3100z"/>
   <path class="fil0 str0" d="M427154 123400c0,1712 -1388,3100 -3100,3100 -1712,0 -3100,-1388 -3100,-3100 0,-1712 1388,-3100 3100,-3100 1712,0 3100,1388 3100,3100z"/>
   <path class="fil0 str0" d="M451496 166969c0,1712 -1388,3100 -3100,3100 -1712,0 -3100,-1388 -3100,-3100 0,-1712 1388,-3100 3100,-3100 1712,0 3100,1388 3100,3100z"/>
   <path class="fil0 str0" d="M451496 152446c0,1712 -1388,3100 -3100,3100 -1712,0 -3100,-1388 -3100,-3100 0,-1712 1388,-3100 3100,-3100 1712,0 3100,1388 3100,3100z"/>
   <path class="fil0 str0" d="M451496 137923c0,1712 -1388,3100 -3100,3100 -1712,0 -3100,-1388 -3100,-3100 0,-1712 1388,-3100 3100,-3100 1712,0 3100,1388 3100,3100z"/>
   <path class="fil0 str0" d="M451496 123400c0,1712 -1388,3100 -3100,3100 -1712,0 -3100,-1388 -3100,-3100 0,-1712 1388,-3100 3100,-3100 1712,0 3100,1388 3100,3100z"/>
   <path class="fil0 str0" d="M439325 45367l0 14706c0,1705 -1395,3099 -3100,3099 -1705,0 -3100,-1394 -3100,-3099l0 -14706c0,-1705 1395,-3100 3100,-3100 1705,0 3100,1395 3100,3100z"/>
   <path class="fil0 str0" d="M198528 309440c1483,856 1991,2752 1135,4235 -856,1482 -2752,1990 -4235,1134 -1482,-856 -1990,-2752 -1134,-4234 856,-1483 2752,-1991 4234,-1135z"/>
   <path class="fil0 str0" d="M185951 302179c1483,856 1991,2752 1135,4234 -856,1483 -2752,1991 -4235,1135 -1483,-856 -1991,-2752 -1135,-4235 856,-1482 2752,-1990 4235,-1134z"/>
   <path class="fil0 str0" d="M173374 294917c1483,856 1991,2752 1135,4235 -856,1483 -2752,1991 -4235,1135 -1483,-857 -1991,-2752 -1135,-4235 856,-1483 2752,-1991 4235,-1135z"/>
   <path class="fil0 str0" d="M160797 287656c1482,856 1990,2752 1134,4234 -856,1483 -2752,1991 -4234,1135 -1483,-856 -1991,-2752 -1135,-4235 856,-1482 2752,-1990 4235,-1134z"/>
   <path class="fil0 str0" d="M210699 288360c1483,856 1991,2752 1135,4234 -856,1483 -2752,1991 -4235,1135 -1483,-856 -1991,-2752 -1135,-4235 857,-1482 2752,-1991 4235,-1134z"/>
   <path class="fil0 str0" d="M198122 281098c1483,856 1991,2752 1135,4235 -856,1483 -2752,1991 -4235,1134 -1483,-856 -1991,-2751 -1135,-4234 856,-1483 2752,-1991 4235,-1135z"/>
   <path class="fil0 str0" d="M185545 273837c1482,856 1990,2752 1134,4234 -856,1483 -2752,1991 -4234,1135 -1483,-856 -1991,-2752 -1135,-4235 856,-1482 2752,-1990 4235,-1134z"/>
   <path class="fil0 str0" d="M172968 266575c1482,856 1990,2752 1134,4235 -856,1483 -2752,1991 -4234,1135 -1483,-856 -1991,-2752 -1135,-4235 856,-1483 2752,-1991 4235,-1135z"/>
   <path class="fil0 str0" d="M99303 238099l12736 7353c1476,852 1987,2758 1135,4234 -853,1477 -2759,1987 -4235,1135l-12736 -7353c-1476,-852 -1987,-2758 -1134,-4234 852,-1477 2758,-1988 4234,-1135z"/>
   <path class="fil0 str0" d="M117240 755181c3868,3868 9321,5181 14267,3942l177455 102454c1399,4903 5264,8970 10547,10386 5283,1416 10663,-174 14326,-3720l77073 0c1804,-12 3836,-585 3858,-3917l0 -21249c0,-2130 1667,-3000 3553,-3000l36448 0c1649,0 3000,1350 3000,3000l0 21248c25,3858 2986,3918 3738,3913 109,-1 213,5 322,5l76916 0c3664,3547 9044,5137 14327,3721 5283,-1415 9148,-5482 10547,-10384 59099,-34121 118197,-68241 177296,-102362 4946,1240 10401,-73 14268,-3941 3868,-3867 5181,-9321 3942,-14267l38536 -66747c892,-1567 1412,-3614 -1463,-5299l-18402 -10625c-1845,-1065 -1765,-2943 -822,-4577l18224 -31564c825,-1429 2669,-1924 4098,-1099l18402 10625c3841,2184 5293,-1459 5348,-1427l38533 -66742c4903,-1399 8970,-5264 10386,-10547 1416,-5283 -174,-10663 -3720,-14326l0 -204908c3547,-3663 5137,-9044 3721,-14327 -1415,-5283 -5482,-9148 -10384,-10547 -34121,-59099 -68241,-118197 -102362,-177296 1240,-4946 -73,-10400 -3941,-14268 -3867,-3868 -9321,-5181 -14267,-3942l-177455 -102454c-1399,-4903 -5264,-8970 -10547,-10386 -5283,-1416 -10663,174 -14326,3720l-77073 0c-1803,12 -3835,585 -3858,3917l0 21249c0,2130 -1667,3000 -3553,3000l-36448 0c-1649,0 -3000,-1350 -3000,-3000l1 -21248c-27,-3995 -3201,-3918 -3810,-3912 -58,0 -108,-6 -165,-6l-77002 0c-3663,-3547 -9044,-5137 -14327,-3721 -5283,1415 -9148,5482 -10547,10384 -59099,34121 -118197,68241 -177296,102362 -4946,-1240 -10400,73 -14268,3941 -3868,3867 -5181,9321 -3942,14267l-38536 66747c-891,1567 -1412,3614 1464,5299l18402 10625c1844,1065 1764,2943 821,4577l-18224 31564c-824,1429 -2669,1924 -4098,1099l-18402 -10625c-3841,-2184 -5293,1459 -5347,1427l-38534 66742c-4903,1399 -8970,5264 -10386,10547 -1416,5283 174,10663 3720,14326l0 204908c-3547,3663 -5137,9044 -3721,14327 1415,5283 5482,9148 10384,10547 34121,59099 68242,118197 102362,177296 -1240,4946 73,10400 3941,14268z"/>
   <g>
    <path class="fil0 str1" d="M548065 19003c-2178,-583 -3483,-2844 -2900,-5021 584,-2178 2844,-3483 5022,-2899 2177,583 3482,2843 2899,5021 -584,2178 -2844,3483 -5021,2899z"/>
    <path class="fil0 str2" d="M532288 64383l1517 -868 1744 -6506 -880 -1512 -2898 -777 -537 -929 1064 -3968 -880 -1513 -2898 -776 -536 -929 2091 -7808 930 -536 2898 777 1518 -870 1063 -3969 929 -536 2898 776 1518 -869 2047 -7639 929 -537 2978 798 536 929 -2047 7639 880 1512 2898 777 537 929 -1064 3968 880 1513 2898 776 537 929 -2093 7808 -929 536 -2898 -777 -1518 870 -1063 3969 -929 536 -2898 -777 -1518 868 -1743 6507 880 1512 2898 777 536 929 -1108 4136 -929 537 -12638 -3386 -536 -929 1108 -4137 930 -536 2898 776zm14973 1631c-1227,-329 -1955,-1590 -1626,-2817 329,-1227 1590,-1955 2817,-1626 1227,328 1955,1589 1626,2816 -329,1227 -1590,1956 -2817,1627zm-21915 -5872c-1227,-329 -1956,-1590 -1627,-2817 329,-1227 1590,-1956 2818,-1627 1227,329 1954,1590 1626,2817 -329,1227 -1590,1955 -2817,1627z"/>
   </g>
   <g>
    <path class="fil0 str1" d="M741713 130808c-1594,-1594 -1594,-4204 0,-5799 1594,-1594 4204,-1594 5798,0 1594,1595 1594,4205 0,5799 -1594,1594 -4204,1594 -5798,0z"/>
    <path class="fil0 str2" d="M705360 162220l1748 7 4763 -4763 -6 -1750 -2121 -2121 0 -1073 2905 -2905 -6 -1750 -2122 -2121 1 -1073 5715 -5716 1073 0 2121 2122 1750 6 2905 -2905 1073 0 2121 2121 1750 6 5592 -5592 1073 0 2180 2179 0 1073 -5592 5593 5 1749 2122 2122 0 1072 -2905 2906 5 1749 2122 2122 0 1073 -5715 5715 -1073 0 -2122 -2122 -1749 -5 -2906 2904 -1072 0 -2122 -2121 -1747 -8 -4764 4764 6 1750 2121 2121 0 1073 -3028 3028 -1073 0 -9251 -9251 0 -1073 3028 -3028 1073 0 2122 2122zm12152 8898c-898,-898 -898,-2354 0,-3252 898,-898 2354,-898 3253,0 898,898 898,2354 0,3252 -899,899 -2355,899 -3253,0zm-16043 -16042c-898,-899 -899,-2355 0,-3253 898,-898 2354,-899 3253,0 898,898 898,2354 0,3252 -898,899 -2355,899 -3253,1z"/>
   </g>
   <g>
    <path class="fil0 str1" d="M853515 324458c-583,-2178 722,-4439 2899,-5022 2178,-583 4438,722 5022,2899 583,2178 -722,4438 -2899,5022 -2178,583 -4438,-722 -5022,-2899z"/>
    <path class="fil0 str2" d="M806327 333485l1510 880 6507 -1744 869 -1518 -776 -2898 536 -929 3969 -1063 869 -1518 -776 -2898 536 -929 7808 -2092 929 536 776 2898 1512 880 3969 -1063 929 536 776 2898 1513 880 7639 -2047 929 536 798 2978 -537 929 -7639 2047 -870 1518 777 2898 -536 929 -3969 1063 -870 1518 777 2899 -536 929 -7808 2092 -929 -537 -776 -2898 -1513 -880 -3968 1063 -929 -536 -777 -2898 -1509 -880 -6507 1743 -870 1518 776 2898 -536 930 -4137 1108 -929 -537 -3386 -12637 536 -929 4137 -1108 929 536 777 2899zm6074 13782c-328,-1227 400,-2488 1627,-2817 1226,-328 2488,400 2817,1627 328,1227 -400,2487 -1627,2816 -1227,329 -2488,-399 -2817,-1626zm-5872 -21915c-328,-1227 399,-2488 1626,-2817 1227,-329 2489,399 2817,1626 329,1227 -399,2488 -1626,2817 -1227,329 -2488,-399 -2817,-1626z"/>
   </g>
   <g>
    <path class="fil0 str1" d="M853514 548065c584,-2178 2844,-3483 5021,-2900 2178,584 3483,2844 2900,5022 -584,2177 -2844,3482 -5022,2899 -2177,-584 -3482,-2844 -2899,-5021z"/>
    <path class="fil0 str2" d="M808134 532288l868 1517 6506 1744 1513 -880 776 -2898 929 -537 3969 1064 1512 -880 776 -2898 929 -537 7808 2092 536 929 -777 2899 870 1517 3969 1064 536 929 -776 2898 869 1518 7640 2047 536 929 -798 2978 -929 536 -7639 -2047 -1512 880 -777 2898 -929 536 -3968 -1063 -1512 880 -777 2898 -929 537 -7807 -2093 -537 -929 777 -2898 -870 -1518 -3969 -1063 -535 -929 776 -2898 -868 -1518 -6507 -1743 -1512 880 -777 2897 -929 537 -4136 -1109 -537 -929 3386 -12637 929 -536 4137 1108 537 929 -777 2899zm-1631 14973c329,-1227 1590,-1955 2817,-1626 1227,329 1955,1590 1627,2817 -329,1227 -1590,1954 -2817,1626 -1227,-329 -1955,-1590 -1627,-2817zm5873 -21915c328,-1227 1589,-1956 2816,-1627 1227,329 1956,1590 1627,2817 -329,1227 -1590,1955 -2817,1627 -1227,-329 -1955,-1590 -1626,-2817z"/>
   </g>
   <g>
    <path class="fil0 str1" d="M741709 741713c1595,-1594 4205,-1594 5799,0 1594,1594 1594,4204 0,5798 -1594,1594 -4204,1594 -5799,0 -1594,-1594 -1594,-4204 0,-5798z"/>
    <path class="fil0 str2" d="M710298 705360l-8 1748 4764 4763 1749 -6 2122 -2121 1073 0 2904 2905 1750 -6 2122 -2122 1072 0 5716 5716 0 1073 -2122 2121 -6 1750 2906 2905 -1 1072 -2121 2122 -6 1750 5593 5592 -1 1073 -2179 2179 -1073 1 -5592 -5593 -1750 6 -2121 2122 -1073 0 -2905 -2905 -1750 5 -2121 2122 -1073 0 -5716 -5715 1 -1073 2121 -2122 6 -1750 -2905 -2905 0 -1072 2121 -2122 8 -1748 -4763 -4763 -1750 6 -2122 2121 -1073 0 -3028 -3028 0 -1073 9251 -9251 1073 0 3028 3028 0 1073 -2121 2122zm-8899 12152c898,-898 2354,-898 3252,0 898,898 899,2354 0,3253 -898,898 -2354,898 -3252,0 -898,-899 -899,-2355 0,-3253zm16043 -16043c898,-898 2354,-899 3252,0 899,898 899,2354 1,3253 -899,898 -2355,898 -3253,-1 -898,-898 -898,-2354 0,-3252z"/>
   </g>
   <g>
    <path class="fil0 str1" d="M548060 853515c2177,-583 4438,722 5021,2899 584,2178 -721,4438 -2899,5022 -2178,583 -4438,-722 -5021,-2900 -584,-2177 721,-4437 2899,-5021z"/>
    <path class="fil0 str2" d="M539033 806327l-880 1510 1743 6507 1518 869 2898 -776 929 536 1063 3968 1518 870 2899 -776 928 536 2093 7808 -537 929 -2898 776 -880 1512 1064 3969 -537 929 -2898 776 -880 1512 2047 7640 -536 929 -2978 798 -929 -537 -2047 -7639 -1518 -870 -2898 777 -929 -536 -1063 -3969 -1518 -870 -2898 777 -930 -536 -2091 -7808 536 -929 2898 -776 880 -1513 -1063 -3968 536 -929 2898 -777 881 -1509 -1744 -6508 -1518 -869 -2898 776 -929 -536 -1109 -4137 537 -929 12637 -3386 929 536 1108 4137 -536 929 -2898 777zm-13783 6074c1227,-328 2488,400 2817,1627 329,1226 -399,2488 -1626,2816 -1227,329 -2488,-399 -2817,-1626 -329,-1227 399,-2488 1626,-2817zm21915 -5872c1227,-329 2489,399 2817,1626 329,1227 -399,2489 -1626,2817 -1227,329 -2488,-399 -2817,-1626 -329,-1227 399,-2488 1626,-2817z"/>
   </g>
   <g>
    <path class="fil0 str1" d="M324453 853514c2177,583 3483,2844 2899,5021 -583,2178 -2844,3483 -5021,2900 -2178,-584 -3483,-2844 -2900,-5022 584,-2177 2844,-3483 5022,-2899z"/>
    <path class="fil0 str2" d="M340230 808134l-1518 868 -1743 6506 880 1513 2897 776 537 929 -1063 3968 879 1513 2899 776 536 929 -2092 7808 -929 536 -2898 -777 -1518 870 -1064 3969 -929 536 -2898 -776 -1518 869 -2047 7640 -929 536 -2977 -798 -537 -929 2047 -7639 -880 -1512 -2898 -777 -536 -929 1063 -3968 -879 -1512 -2899 -777 -536 -929 2092 -7808 929 -536 2898 777 1518 -870 1064 -3969 928 -536 2899 777 1517 -868 1744 -6507 -880 -1512 -2898 -777 -537 -929 1109 -4136 929 -537 12637 3386 536 929 -1108 4137 -929 537 -2898 -777zm-14974 -1631c1227,329 1955,1590 1626,2817 -328,1227 -1589,1955 -2816,1627 -1227,-329 -1955,-1590 -1627,-2817 329,-1227 1590,-1956 2817,-1627zm21915 5872c1227,329 1956,1590 1627,2817 -329,1227 -1590,1956 -2817,1627 -1227,-329 -1955,-1590 -1626,-2817 328,-1227 1589,-1955 2816,-1627z"/>
   </g>
   <g>
    <path class="fil0 str1" d="M130804 741709c1594,1594 1595,4205 0,5799 -1594,1594 -4204,1594 -5798,0 -1594,-1594 -1594,-4204 0,-5799 1594,-1594 4204,-1594 5798,0z"/>
    <path class="fil0 str2" d="M167157 710297l-1747 -7 -4764 4764 6 1749 2121 2122 0 1073 -2905 2904 6 1750 2122 2122 0 1072 -5716 5716 -1073 0 -2121 -2122 -1749 -6 -2906 2905 -1072 0 -2122 -2121 -1749 -6 -5593 5592 -1072 0 -2180 -2179 -1 -1073 5593 -5592 -6 -1750 -2121 -2121 -1 -1073 2906 -2905 -6 -1750 -2122 -2122 0 -1072 5716 -5716 1073 0 2121 2122 1750 6 2905 -2905 1072 0 2122 2121 1748 8 4763 -4764 -6 -1749 -2121 -2122 0 -1073 3028 -3028 1073 0 9251 9251 0 1073 -3028 3028 -1073 0 -2122 -2122zm-12152 -8898c898,898 898,2354 0,3252 -898,898 -2354,898 -3252,0 -899,-898 -898,-2354 0,-3252 898,-898 2354,-899 3252,0zm16043 16043c898,898 899,2354 1,3252 -899,899 -2355,899 -3253,0 -899,-898 -898,-2354 0,-3252 898,-898 2354,-899 3252,0z"/>
   </g>
   <g>
    <path class="fil0 str1" d="M19002 548059c583,2178 -721,4439 -2899,5022 -2177,583 -4438,-721 -5022,-2899 -583,-2178 722,-4438 2900,-5022 2177,-583 4438,722 5021,2899z"/>
    <path class="fil0 str2" d="M66191 539033l-1510 -880 -6507 1743 -870 1518 776 2898 -536 929 -3968 1063 -870 1518 777 2899 -537 928 -7807 2093 -929 -537 -777 -2898 -1512 -880 -3969 1064 -928 -537 -777 -2898 -1512 -880 -7639 2047 -929 -536 -798 -2978 536 -929 7639 -2047 870 -1518 -777 -2898 536 -929 3969 -1063 870 -1518 -777 -2898 537 -930 7807 -2092 929 537 777 2898 1512 880 3969 -1063 928 536 777 2898 1510 880 6507 -1743 870 -1518 -777 -2898 536 -929 4137 -1109 929 537 3386 12637 -536 929 -4136 1108 -930 -536 -776 -2898zm-6075 -13783c329,1227 -399,2488 -1626,2817 -1227,328 -2488,-400 -2817,-1627 -329,-1226 399,-2487 1626,-2816 1227,-329 2488,399 2817,1626zm5872 21915c329,1227 -399,2488 -1626,2817 -1227,329 -2488,-399 -2817,-1626 -329,-1227 399,-2488 1626,-2817 1227,-329 2488,399 2817,1626z"/>
   </g>
   <g>
    <path class="fil0 str1" d="M19003 324453c-583,2177 -2843,3483 -5021,2899 -2178,-584 -3483,-2844 -2899,-5021 583,-2178 2844,-3483 5021,-2900 2178,584 3483,2844 2899,5022z"/>
    <path class="fil0 str2" d="M64383 340229l-867 -1517 -6507 -1743 -1512 879 -777 2898 -929 537 -3968 -1064 -1512 880 -777 2899 -929 536 -7808 -2092 -536 -929 777 -2898 -870 -1518 -3969 -1064 -536 -929 777 -2898 -870 -1518 -7639 -2047 -537 -929 798 -2977 929 -537 7639 2047 1513 -880 776 -2898 929 -536 3969 1063 1512 -880 776 -2898 929 -536 7808 2092 536 929 -776 2898 870 1518 3968 1064 536 928 -776 2899 867 1517 6507 1744 1512 -880 777 -2898 929 -537 4136 1109 537 929 -3386 12637 -929 536 -4137 -1108 -536 -929 776 -2899zm1631 -14973c-329,1227 -1590,1955 -2817,1626 -1227,-328 -1955,-1590 -1626,-2817 328,-1227 1590,-1954 2817,-1626 1227,329 1955,1590 1626,2817zm-5872 21915c-329,1227 -1590,1956 -2817,1627 -1227,-329 -1955,-1590 -1627,-2817 329,-1227 1590,-1955 2817,-1627 1227,329 1956,1590 1627,2817z"/>
   </g>
   <g>
    <path class="fil0 str1" d="M130808 130804c-1594,1594 -4204,1595 -5798,0 -1594,-1594 -1595,-4204 -1,-5798 1595,-1594 4205,-1594 5799,0 1594,1594 1594,4204 0,5798z"/>
    <path class="fil0 str2" d="M162220 167157l7 -1748 -4763 -4763 -1750 6 -2121 2121 -1073 0 -2905 -2905 -1750 6 -2121 2122 -1073 0 -5716 -5716 0 -1073 2122 -2121 6 -1750 -2905 -2905 0 -1072 2121 -2122 6 -1749 -5592 -5593 0 -1072 2180 -2180 1073 -1 5592 5593 1749 -6 2122 -2122 1072 0 2906 2906 1749 -6 2122 -2122 1073 0 5715 5716 0 1072 -2122 2122 -5 1750 2905 2905 -1 1072 -2121 2122 -8 1748 4764 4763 1750 -6 2121 -2121 1073 0 3028 3028 0 1073 -9251 9251 -1073 0 -3028 -3028 0 -1073 2122 -2122zm8899 -12152c-899,898 -2355,898 -3253,0 -898,-898 -898,-2354 0,-3253 898,-898 2354,-897 3252,1 899,898 899,2354 1,3252zm-16043 16043c-899,898 -2355,899 -3253,0 -898,-898 -899,-2354 0,-3253 898,-898 2354,-897 3252,1 899,898 899,2354 1,3252z"/>
   </g>
   <g>
    <path class="fil0 str1" d="M324458 19002c-2178,583 -4438,-721 -5022,-2899 -583,-2178 722,-4438 2899,-5022 2178,-583 4438,722 5022,2900 583,2177 -722,4437 -2899,5021z"/>
    <path class="fil0 str2" d="M333485 66191l880 -1511 -1744 -6506 -1518 -870 -2898 776 -929 -536 -1063 -3968 -1518 -870 -2898 777 -929 -537 -2092 -7808 536 -929 2898 -776 880 -1512 -1063 -3969 536 -929 2898 -776 880 -1512 -2047 -7640 536 -928 2978 -799 929 537 2047 7639 1518 870 2898 -777 929 536 1064 3969 1517 870 2899 -777 929 537 2092 7807 -537 929 -2898 777 -880 1512 1064 3968 -537 929 -2898 777 -880 1510 1743 6507 1519 870 2897 -777 930 536 1108 4137 -536 929 -12637 3386 -930 -536 -1108 -4137 536 -929 2899 -776zm13782 -6075c-1227,329 -2488,-400 -2817,-1627 -328,-1226 400,-2487 1627,-2816 1227,-329 2488,399 2817,1626 328,1227 -400,2488 -1627,2817zm-21915 5872c-1227,329 -2488,-399 -2817,-1626 -329,-1227 399,-2488 1626,-2817 1227,-329 2488,399 2817,1626 329,1227 -399,2488 -1626,2817z"/>
   </g>
   <path class="fil0 str1" d="M440309 436258c0,2227 -1823,4051 -4050,4051 -2227,0 -4051,-1823 -4051,-4050 0,-2228 1824,-4051 4051,-4051 2227,0 4050,1823 4050,4050z"/>
   <g>
    <path class="fil0 str1" d="M436261 204196c-2254,0 -4100,-1845 -4100,-4100 0,-2254 1846,-4100 4100,-4100 2254,0 4100,1846 4100,4100 0,2254 -1846,4100 -4100,4100z"/>
    <path class="fil0 str2" d="M432720 252196l1241 -1231 0 -6736 -1241 -1233 -3000 0 -759 -759 0 -4108 -1241 -1233 -3001 0 -758 -758 0 -8083 758 -759 3001 0 1241 -1233 0 -4108 758 -759 3001 0 1241 -1233 0 -7908 759 -759 3082 0 759 758 0 7909 1241 1233 3000 0 759 758 0 4109 1241 1233 3000 0 759 759 0 8082 -759 759 -3000 0 -1241 1233 0 4109 -759 758 -3000 0 -1241 1230 0 6737 1241 1233 3000 0 759 759 0 4282 -759 759 -13083 0 -758 -759 0 -4282 758 -759 3001 0zm14885 -2300c-1270,0 -2300,-1030 -2300,-2300 0,-1270 1030,-2300 2300,-2300 1270,0 2300,1030 2300,2300 0,1270 -1030,2300 -2300,2300zm-22688 0c-1270,0 -2301,-1030 -2300,-2300 0,-1271 1029,-2300 2300,-2300 1270,0 2299,1030 2300,2300 0,1270 -1030,2300 -2300,2300z"/>
   </g>
   <g>
    <path class="fil0 str1" d="M552292 235288c-1952,-1127 -2628,-3649 -1501,-5601 1127,-1952 3649,-2628 5601,-1501 1952,1128 2628,3649 1501,5601 -1128,1952 -3649,2628 -5601,1501z"/>
    <path class="fil0 str2" d="M525225 275086l1690 -445 3369 -5834 -459 -1688 -2598 -1500 -278 -1037 2054 -3557 -458 -1689 -2599 -1500 -277 -1036 4041 -7000 1037 -278 2598 1501 1691 -448 2055 -3558 1036 -277 2598 1500 1691 -448 3955 -6849 1036 -277 2670 1541 278 1036 -3955 6849 458 1689 2599 1500 278 1036 -2055 3558 459 1688 2598 1501 278 1036 -4042 7000 -1036 277 -2598 -1500 -1692 448 -2054 3557 -1036 278 -2599 -1500 -1690 445 -3368 5834 459 1689 2598 1500 277 1036 -2141 3709 -1036 277 -11330 -6541 -278 -1036 2141 -3709 1037 -278 2598 1500zm14041 5451c-1100,-635 -1476,-2042 -841,-3142 635,-1100 2041,-1477 3141,-842 1100,635 1477,2042 842,3142 -635,1100 -2042,1477 -3142,842zm-19648 -11344c-1100,-636 -1478,-2042 -842,-3142 635,-1100 2042,-1477 3142,-842 1100,635 1476,2042 841,3142 -635,1100 -2041,1477 -3141,842z"/>
   </g>
   <g>
    <path class="fil0 str1" d="M637232 320229c-1127,-1952 -452,-4473 1500,-5600 1953,-1127 4474,-452 5601,1500 1127,1953 452,4474 -1501,5601 -1952,1127 -4473,452 -5600,-1501z"/>
    <path class="fil0 str2" d="M593892 341163l1686 459 5834 -3368 447 -1692 -1500 -2598 278 -1036 3558 -2054 447 -1691 -1500 -2599 278 -1036 7000 -4042 1036 278 1500 2599 1688 458 3558 -2054 1036 277 1501 2599 1688 458 6849 -3954 1036 277 1542 2670 -278 1036 -6849 3955 -447 1691 1500 2598 -277 1036 -3559 2055 -447 1691 1500 2599 -277 1036 -7000 4041 -1036 -278 -1501 -2598 -1688 -458 -3558 2054 -1036 -278 -1500 -2598 -1687 -460 -5834 3368 -447 1692 1500 2598 -278 1037 -3708 2141 -1036 -278 -6542 -11330 278 -1036 3708 -2141 1037 277 1500 2599zm9435 11740c-635,-1100 -258,-2506 842,-3141 1100,-635 2506,-259 3141,841 636,1100 259,2507 -842,3142 -1100,635 -2506,259 -3141,-842zm-11344 -19648c-635,-1100 -259,-2507 841,-3142 1101,-635 2507,-258 3142,842 636,1100 258,2506 -842,3142 -1099,635 -2506,258 -3141,-842z"/>
   </g>
   <g>
    <path class="fil0 str1" d="M668321 436261c0,-2254 1846,-4100 4100,-4100 2254,0 4100,1845 4100,4100 0,2254 -1846,4100 -4100,4100 -2254,0 -4100,-1846 -4100,-4100z"/>
    <path class="fil0 str2" d="M620321 432720l1231 1241 6736 0 1233 -1241 0 -3001 759 -758 4108 0 1233 -1241 0 -3001 759 -758 8083 0 758 758 0 3001 1233 1241 4109 0 758 758 0 3001 1233 1241 7909 0 758 758 0 3083 -758 759 -7909 0 -1233 1241 0 3000 -758 759 -4109 0 -1233 1241 0 3000 -758 759 -8083 0 -759 -759 0 -3000 -1233 -1241 -4108 0 -758 -759 -1 -3000 -1230 -1241 -6737 -1 -1233 1242 0 3000 -759 759 -4282 0 -759 -759 0 -13083 759 -758 4282 0 759 758 0 3001zm2301 14885c0,-1270 1029,-2300 2299,-2300 1271,0 2300,1030 2300,2300 1,1270 -1029,2300 -2300,2300 -1270,0 -2300,-1030 -2299,-2300zm-1 -22688c1,-1270 1030,-2301 2300,-2300 1271,0 2301,1029 2301,2300 0,1270 -1030,2299 -2301,2300 -1270,0 -2300,-1030 -2300,-2300z"/>
   </g>
   <g>
    <path class="fil0 str1" d="M637229 552292c1128,-1952 3649,-2628 5601,-1501 1952,1127 2628,3648 1501,5601 -1127,1952 -3648,2628 -5601,1500 -1952,-1127 -2628,-3648 -1501,-5600z"/>
    <path class="fil0 str2" d="M597431 525225l445 1690 5834 3368 1688 -458 1501 -2598 1036 -278 3558 2054 1688 -458 1500 -2599 1036 -277 7001 4041 277 1037 -1500 2598 447 1691 3558 2054 278 1037 -1500 2598 447 1691 6849 3955 277 1036 -1541 2670 -1036 278 -6849 -3955 -1688 458 -1500 2599 -1037 278 -3558 -2055 -1688 458 -1500 2599 -1037 278 -6999 -4042 -278 -1036 1500 -2598 -447 -1692 -3558 -2054 -277 -1036 1499 -2599 -445 -1690 -5834 -3368 -1688 458 -1500 2599 -1037 277 -3708 -2141 -278 -1036 6541 -11330 1036 -278 3709 2141 278 1037 -1500 2598zm-5451 14041c636,-1100 2042,-1476 3142,-841 1100,634 1477,2041 842,3141 -635,1100 -2042,1477 -3142,842 -1100,-635 -1477,-2042 -842,-3142zm11344 -19648c636,-1100 2042,-1478 3142,-842 1100,635 1477,2042 842,3142 -635,1100 -2041,1476 -3142,841 -1100,-635 -1477,-2041 -842,-3141z"/>
   </g>
   <g>
    <path class="fil0 str1" d="M552288 637232c1952,-1127 4473,-452 5601,1500 1127,1953 451,4474 -1501,5601 -1953,1127 -4474,452 -5601,-1501 -1127,-1952 -451,-4473 1501,-5600z"/>
    <path class="fil0 str2" d="M531355 593892l-460 1686 3368 5834 1692 447 2598 -1500 1036 278 2054 3558 1692 447 2598 -1500 1036 277 4042 7001 -278 1036 -2598 1500 -459 1688 2055 3558 -278 1036 -2598 1501 -459 1688 3955 6849 -278 1036 -2670 1542 -1036 -278 -3954 -6849 -1692 -447 -2598 1500 -1036 -278 -2055 -3558 -1691 -447 -2598 1500 -1037 -277 -4041 -7000 278 -1037 2598 -1500 459 -1688 -2055 -3558 278 -1036 2598 -1501 460 -1686 -3368 -5834 -1692 -447 -2598 1500 -1036 -278 -2142 -3708 278 -1037 11330 -6541 1036 277 2141 3709 -277 1037 -2598 1500zm-11741 9435c1100,-635 2506,-258 3141,842 636,1100 259,2506 -841,3141 -1100,636 -2507,258 -3142,-842 -635,-1100 -258,-2506 842,-3141zm19648 -11344c1100,-635 2507,-259 3142,841 635,1100 259,2507 -842,3142 -1100,635 -2506,258 -3141,-842 -635,-1100 -259,-2506 841,-3141z"/>
   </g>
   <g>
    <path class="fil0 str1" d="M436256 668321c2254,0 4100,1845 4100,4100 0,2254 -1845,4100 -4100,4100 -2254,0 -4100,-1846 -4100,-4100 0,-2254 1846,-4100 4100,-4100z"/>
    <path class="fil0 str2" d="M439798 620321l-1241 1231 -1 6736 1242 1233 3000 0 759 759 -1 4108 1241 1233 3001 0 758 758 1 8084 -759 758 -3000 0 -1242 1233 0 4108 -758 759 -3001 0 -1241 1233 1 7909 -759 758 -3083 0 -759 -758 0 -7909 -1241 -1233 -3000 0 -759 -758 0 -4109 -1241 -1233 -3000 0 -759 -759 0 -8082 759 -759 3000 0 1242 -1233 0 -4108 758 -758 3000 -1 1242 -1230 0 -6737 -1242 -1233 -3000 0 -759 -759 1 -4282 758 -759 13083 0 759 759 -1 4282 -758 759 -3000 0zm-14886 2300c1270,0 2300,1030 2300,2300 0,1270 -1030,2300 -2300,2300 -1270,0 -2299,-1029 -2300,-2300 0,-1270 1030,-2300 2300,-2300zm22688 0c1271,1 2301,1030 2301,2300 0,1271 -1030,2300 -2300,2300 -1271,0 -2300,-1029 -2300,-2300 0,-1270 1029,-2300 2299,-2300z"/>
   </g>
   <g>
    <path class="fil0 str1" d="M320225 637229c1952,1128 2628,3649 1501,5601 -1127,1952 -3648,2628 -5601,1501 -1952,-1127 -2627,-3649 -1500,-5601 1127,-1952 3648,-2628 5600,-1501z"/>
    <path class="fil0 str2" d="M347292 597431l-1690 445 -3368 5834 458 1688 2598 1500 278 1037 -2054 3557 458 1689 2599 1500 277 1036 -4041 7000 -1036 278 -2599 -1500 -1691 447 -2054 3558 -1036 278 -2599 -1500 -1691 447 -3954 6849 -1037 277 -2669 -1541 -278 -1036 3954 -6849 -458 -1689 -2599 -1500 -277 -1036 2054 -3558 -458 -1688 -2599 -1501 -278 -1036 4042 -7000 1036 -277 2599 1500 1691 -447 2054 -3558 1036 -278 2599 1500 1690 -445 3368 -5834 -458 -1688 -2598 -1500 -278 -1037 2141 -3709 1036 -277 11331 6541 277 1036 -2141 3709 -1036 278 -2599 -1500zm-14041 -5451c1100,635 1477,2042 842,3142 -635,1100 -2042,1477 -3142,842 -1100,-635 -1477,-2042 -842,-3142 635,-1100 2042,-1477 3142,-842zm19648 11344c1100,636 1478,2042 843,3142 -636,1100 -2042,1477 -3142,842 -1101,-635 -1477,-2042 -842,-3142 635,-1100 2042,-1477 3141,-842z"/>
   </g>
   <g>
    <path class="fil0 str1" d="M235285 552288c1127,1952 452,4473 -1500,5600 -1952,1128 -4474,452 -5601,-1500 -1127,-1953 -452,-4474 1501,-5601 1952,-1127 4473,-452 5600,1501z"/>
    <path class="fil0 str2" d="M278625 531355l-1686 -460 -5834 3368 -447 1692 1500 2598 -278 1036 -3558 2054 -447 1692 1501 2598 -278 1036 -7000 4042 -1037 -278 -1499 -2598 -1689 -459 -3558 2055 -1036 -278 -1501 -2599 -1688 -458 -6849 3955 -1036 -278 -1542 -2670 278 -1036 6849 -3954 447 -1692 -1500 -2598 278 -1036 3558 -2055 447 -1691 -1500 -2598 278 -1037 6999 -4041 1037 278 1500 2598 1689 458 3558 -2054 1035 278 1501 2598 1686 460 5834 -3368 447 -1692 -1500 -2598 278 -1037 3709 -2141 1036 278 6541 11330 -277 1036 -3709 2141 -1037 -277 -1500 -2598zm-9435 -11741c636,1100 259,2506 -841,3141 -1100,636 -2507,259 -3142,-841 -635,-1100 -258,-2507 842,-3142 1100,-635 2506,-259 3141,842zm11345 19648c635,1100 258,2507 -842,3142 -1100,635 -2507,258 -3142,-842 -635,-1100 -258,-2506 842,-3141 1100,-636 2507,-259 3142,841z"/>
   </g>
   <g>
    <path class="fil0 str1" d="M204196 436256c0,2254 -1845,4100 -4100,4100 -2254,0 -4100,-1845 -4100,-4100 0,-2254 1846,-4100 4100,-4100 2255,0 4100,1846 4100,4100z"/>
    <path class="fil0 str2" d="M252196 439797l-1231 -1241 -6736 0 -1233 1242 0 3000 -759 758 -4108 0 -1233 1241 0 3001 -758 758 -8083 0 -759 -758 0 -3001 -1233 -1241 -4108 0 -759 -758 0 -3001 -1233 -1241 -7908 0 -759 -758 0 -3083 758 -759 7909 0 1233 -1241 0 -3000 759 -759 4108 0 1233 -1241 0 -3000 759 -759 8082 0 759 759 0 3000 1233 1241 4109 1 758 758 0 3000 1231 1241 6736 1 1233 -1242 0 -3000 759 -759 4282 0 759 759 0 13083 -758 758 -4283 0 -759 -758 0 -3001zm-2300 -14885c0,1270 -1030,2300 -2300,2300 -1270,0 -2300,-1030 -2300,-2300 0,-1270 1030,-2300 2300,-2300 1270,0 2300,1030 2300,2300zm0 22688c0,1271 -1030,2301 -2300,2301 -1270,-1 -2300,-1030 -2300,-2301 0,-1270 1030,-2299 2300,-2299 1270,-1 2300,1029 2300,2299z"/>
   </g>
   <g>
    <path class="fil0 str1" d="M235288 320225c-1127,1952 -3648,2628 -5601,1501 -1952,-1127 -2628,-3648 -1501,-5601 1128,-1952 3649,-2628 5601,-1500 1952,1127 2628,3648 1501,5600z"/>
    <path class="fil0 str2" d="M275086 347292l-445 -1690 -5834 -3368 -1688 458 -1500 2598 -1037 278 -3557 -2054 -1689 458 -1500 2599 -1036 277 -7000 -4041 -278 -1036 1501 -2599 -448 -1691 -3558 -2054 -277 -1036 1500 -2599 -448 -1691 -6849 -3954 -277 -1037 1541 -2670 1036 -277 6849 3954 1689 -458 1500 -2599 1036 -277 3558 2054 1688 -458 1501 -2599 1036 -278 7000 4042 277 1036 -1500 2599 448 1691 3558 2054 277 1036 -1500 2599 445 1690 5834 3368 1689 -458 1500 -2598 1036 -278 3709 2141 277 1036 -6541 11330 -1036 278 -3709 -2141 -278 -1037 1500 -2598zm5451 -14041c-635,1100 -2042,1477 -3142,842 -1100,-635 -1477,-2042 -842,-3142 635,-1100 2042,-1477 3142,-842 1100,635 1477,2042 842,3142zm-11344 19648c-635,1100 -2042,1478 -3142,843 -1100,-636 -1477,-2042 -842,-3143 635,-1100 2042,-1476 3142,-841 1100,635 1477,2041 842,3141z"/>
   </g>
   <g>
    <path class="fil0 str1" d="M320230 235285c-1953,1127 -4474,452 -5601,-1500 -1127,-1952 -452,-4474 1500,-5601 1953,-1127 4474,-452 5601,1501 1127,1952 452,4473 -1500,5600z"/>
    <path class="fil0 str2" d="M341163 278625l459 -1686 -3368 -5834 -1691 -447 -2599 1500 -1036 -278 -2054 -3558 -1691 -447 -2599 1500 -1036 -277 -4042 -7000 278 -1037 2599 -1500 458 -1688 -2054 -3558 277 -1036 2599 -1501 458 -1688 -3954 -6849 278 -1036 2669 -1542 1036 278 3955 6849 1691 447 2598 -1500 1037 278 2054 3558 1691 447 2599 -1500 1036 277 4041 7000 -278 1037 -2598 1500 -458 1688 2054 3558 -278 1036 -2598 1501 -460 1686 3368 5834 1692 447 2598 -1500 1037 278 2141 3709 -278 1036 -11330 6541 -1036 -277 -2141 -3709 277 -1037 2599 -1500zm11741 -9435c-1101,635 -2507,258 -3142,-842 -635,-1099 -258,-2506 842,-3141 1100,-636 2506,-258 3141,842 635,1100 259,2506 -841,3141zm-19649 11344c-1100,635 -2507,259 -3142,-841 -635,-1100 -258,-2507 842,-3142 1100,-635 2506,-258 3142,842 635,1100 258,2506 -842,3141z"/>
   </g>
  </g>
  <g id="_1901424748176">
   <path class="fil0 str3" d="M1903704 436258c0,234721 -190279,425001 -425000,425001 -234721,0 -425000,-190280 -425000,-425001 0,-234721 190279,-424999 425000,-424999 234721,0 425000,190278 425000,424999z"/>
   <path class="fil0 str1" d="M1478704 432158c2264,0 4100,1836 4100,4100 0,2265 -1836,4100 -4100,4100 -2264,0 -4100,-1835 -4100,-4100 0,-2264 1836,-4100 4100,-4100z"/>
   <circle class="fil0 str4" cx="1514059" cy="471614" r="5000"/>
   <circle class="fil0 str4" cx="1514059" cy="400903" r="5000"/>
   <circle class="fil0 str4" cx="1443349" cy="400903" r="5000"/>
   <circle class="fil0 str4" cx="1443349" cy="471614" r="5000"/>
   <circle class="fil0 str4" cx="1764860" cy="400903" r="5000"/>
   <circle class="fil0 str4" cx="1764860" cy="471614" r="5000"/>
   <circle class="fil0 str4" transform="matrix(2.27499E-14 0.858988 -0.858988 2.27499E-14 1.51406E+06 722415)" r="5821"/>
   <circle class="fil0 str4" transform="matrix(2.27499E-14 0.858988 -0.858988 2.27499E-14 1.44335E+06 722415)" r="5821"/>
   <circle class="fil0 str4" cx="1192548" cy="471614" r="5000"/>
   <circle class="fil0 str4" cx="1192548" cy="400903" r="5000"/>
   <circle class="fil0 str4" transform="matrix(-6.88219E-14 -0.858988 0.858988 -6.88219E-14 1.44335E+06 150102)" r="5821"/>
   <circle class="fil0 str4" transform="matrix(-6.88219E-14 -0.858988 0.858988 -6.88219E-14 1.51406E+06 150102)" r="5821"/>
  </g>
  <path class="fil0 str5" d="M436022 913446c0,-1713 1388,-3100 3100,-3100 1712,0 3100,1387 3100,3100 0,1712 -1388,3100 -3100,3100 -1712,0 -3100,-1388 -3100,-3100zm18600 32501c-912,0 -1650,-738 -1650,-1650 0,-911 738,-1650 1650,-1650 911,0 1650,739 1650,1650 0,912 -739,1650 -1650,1650zm-31000 31000c911,0 1650,-738 1650,-1650 0,-911 -739,-1650 -1650,-1650 -912,0 -1650,739 -1650,1650 0,912 739,1650 1650,1650zm0 -31000c911,0 1650,-738 1650,-1650 0,-911 -739,-1650 -1650,-1650 -912,0 -1650,739 -1650,1650 0,912 738,1650 1650,1650zm15500 -2649c9113,-1 16500,7387 16500,16500 0,9112 -7387,16500 -16500,16500l0 0 0 0c-9113,0 -16500,-7388 -16500,-16500 0,-9113 7387,-16501 16500,-16500zm15500 33649c-912,0 -1650,-738 -1650,-1650 0,-911 738,-1650 1650,-1650 911,0 1650,739 1650,1650 0,912 -739,1650 -1650,1650zm5999 -53262l-12105 -9707c10,-176 16,-354 16,-532 0,-5197 -4213,-9410 -9410,-9410 -5197,0 -9410,4213 -9410,9410 0,156 4,311 12,466l-12101 9773c-2994,0 -5443,2449 -5443,5442l0 44508c0,4275 3243,7162 6236,7162l41411 0c2993,0 6237,-2887 6237,-7162l0 -44508c0,-2993 -2450,-5442 -5443,-5442z"/>
 </g>
</svg>
