<?xml version="1.0" encoding="UTF-8"?>
<!DOCTYPE svg PUBLIC "-//W3C//DTD SVG 1.1//EN" "http://www.w3.org/Graphics/SVG/1.1/DTD/svg11.dtd">
<!-- Creator: CorelDRAW X8 -->
<svg xmlns="http://www.w3.org/2000/svg" xml:space="preserve" width="46.5961in" height="20.1536in" version="1.1" style="shape-rendering:geometricPrecision; text-rendering:geometricPrecision; image-rendering:optimizeQuality; fill-rule:evenodd; clip-rule:evenodd"
viewBox="0 0 46596 20154"
 xmlns:xlink="http://www.w3.org/1999/xlink">
 <defs>
  <style type="text/css">
   <![CDATA[
    .fil0 {fill:#2B2A29}
   ]]>
  </style>
 </defs>
 <g id="Layer_x0020_1">
  <metadata id="CorelCorpID_0Corel-Layer"/>
  <g id="_2650218710032">
   <path class="fil0" d="M15511 9923c84,0 153,69 153,154 0,85 -69,153 -153,153 -85,0 -154,-68 -154,-153 0,-85 69,-154 154,-154zm5302 -5780c34,34 88,34 122,0 34,-34 34,-89 0,-122 -34,-34 -88,-34 -122,0 -34,33 -34,88 0,122zm631 632c34,34 89,34 123,0 34,-34 34,-89 0,-123 -34,-34 -89,-34 -123,0 -33,34 -33,89 0,123zm-374 104l39 0 117 -117 0 -39 -84 -83 0 -72 218 -218 72 0 84 84 38 0 87 -87 72 1 84 83 39 0 222 -223 0 -39 -83 -83 0 -72 86 -87 0 -39 -83 -83 -1 -72 248 -248 0 -39 -83 -84 -39 0 -248 248 -72 0 -84 -84 -39 0 -86 87 -72 0 -84 -84 -39 0 -223 223 0 39 84 83 0 72 -86 87 0 39 83 83 0 73 -217 217 -72 0 -84 -84 -39 0 -117 117 0 39 362 362zm1320 -1681c60,60 157,60 217,0 60,-60 60,-157 0,-217 -60,-60 -157,-60 -217,0 -60,60 -60,157 0,217zm679 4391c13,46 60,74 106,61 47,-12 74,-60 62,-106 -13,-46 -60,-73 -107,-61 -46,12 -73,60 -61,106zm231 863c13,46 60,74 107,61 46,-12 73,-60 61,-106 -13,-46 -60,-74 -106,-61 -47,12 -74,60 -62,106zm-376 -97l34 20 160 -43 19 -34 -31 -114 36 -62 298 -80 62 36 31 114 33 20 118 -32 63 36 30 114 34 20 304 -82 20 -33 -31 -114 36 -63 118 -32 20 -33 -31 -115 36 -62 339 -91 19 -34 -30 -114 -34 -19 -339 91 -62 -37 -31 -114 -33 -19 -119 31 -62 -36 -31 -114 -33 -19 -304 81 -20 34 31 114 -36 62 -118 32 -20 34 31 114 -36 63 -298 79 -62 -36 -30 -114 -34 -20 -160 43 -19 34 132 494zm1984 -796c22,82 106,130 188,108 81,-22 130,-106 108,-188 -22,-81 -106,-130 -188,-108 -82,22 -130,106 -108,188zm-1608 4143c-12,46 15,93 62,106 46,12 93,-15 106,-62 12,-46 -15,-93 -61,-106 -47,-12 -94,15 -107,62zm-231 862c-12,47 15,94 62,107 46,12 93,-15 106,-62 12,-46 -15,-93 -62,-106 -46,-12 -93,15 -106,61zm-277 -271l19 33 160 43 34 -19 30 -114 62 -37 298 80 36 63 -31 114 20 33 118 32 36 63 -31 114 20 34 304 81 33 -19 31 -115 62 -36 119 32 33 -20 31 -114 62 -36 339 91 34 -20 30 -114 -19 -34 -339 -90 -36 -63 31 -114 -20 -34 -118 -31 -36 -63 31 -114 -20 -34 -304 -81 -34 19 -30 114 -63 36 -118 -31 -33 19 -31 114 -62 37 -298 -80 -36 -63 31 -114 -19 -33 -160 -43 -34 19 -132 495zm2116 302c-22,82 26,166 108,188 82,22 166,-27 188,-109 22,-82 -27,-166 -108,-188 -82,-22 -166,27 -188,109zm-3464 2784c-33,34 -33,89 0,122 34,34 89,34 123,0 34,-33 34,-88 0,-122 -34,-34 -89,-34 -123,0zm-631 631c-34,34 -34,89 0,123 34,34 88,34 122,0 34,-34 34,-89 0,-123 -34,-33 -88,-33 -122,0zm-105 -374l0 39 117 117 39 0 84 -83 72 -1 217 218 0 72 -83 84 0 39 86 86 0 72 -84 84 0 39 223 222 39 0 84 -83 72 0 86 86 39 0 84 -83 72 -1 248 249 39 0 83 -84 0 -39 -248 -248 1 -72 83 -84 0 -39 -86 -86 0 -72 83 -84 0 -39 -222 -223 -39 0 -84 84 -72 0 -86 -86 -39 0 -84 83 -72 0 -218 -217 0 -72 84 -84 0 -39 -117 -117 -39 0 -362 362zm1682 1320c-60,60 -60,157 0,217 60,60 157,60 217,0 60,-60 60,-157 0,-217 -60,-60 -157,-60 -217,0zm-4392 679c-46,13 -73,60 -61,106 13,47 60,74 106,62 46,-13 74,-60 61,-106 -12,-47 -59,-74 -106,-62zm-862 232c-47,12 -74,59 -62,106 13,46 60,73 106,61 47,-13 74,-60 62,-106 -13,-46 -60,-74 -106,-61zm96 -377l-19 34 42 160 34 19 114 -30 63 35 80 298 -37 62 -114 31 -19 33 31 119 -36 62 -114 30 -19 34 81 304 34 20 114 -31 63 36 31 118 34 20 114 -31 63 36 90 339 34 20 114 -31 20 -34 -91 -339 36 -62 114 -31 20 -33 -32 -118 36 -63 114 -30 20 -34 -82 -304 -33 -20 -114 31 -63 -36 -32 -118 -33 -20 -115 31 -62 -36 -80 -298 37 -62 114 -30 19 -34 -43 -160 -33 -19 -495 132zm797 1984c-82,22 -131,106 -109,188 22,82 106,130 188,108 82,-22 131,-106 109,-188 -22,-82 -107,-130 -188,-108zm-4143 -1607c-46,-13 -94,15 -106,61 -13,46 15,93 61,106 46,12 94,-15 106,-61 12,-47 -15,-94 -61,-106zm-863 -232c-46,-12 -94,15 -106,62 -12,46 15,93 61,106 46,12 94,-15 106,-62 13,-46 -15,-93 -61,-106zm272 -277l-34 19 -43 160 20 34 114 30 36 63 -80 297 -62 36 -114 -31 -34 20 -32 118 -62 36 -114 -31 -34 20 -82 304 20 34 114 30 36 63 -31 118 19 33 114 31 36 62 -90 339 19 34 114 31 34 -20 91 -339 62 -36 114 31 34 -20 32 -118 63 -36 114 31 33 -20 82 -304 -20 -34 -114 -30 -36 -62 32 -119 -20 -33 -114 -31 -36 -62 80 -298 62 -35 114 30 34 -19 43 -160 -20 -34 -494 -132zm-302 2116c-82,-22 -166,26 -188,108 -22,82 26,166 108,188 82,22 166,-26 188,-108 22,-82 -26,-166 -108,-188zm-2784 -3464c-34,-33 -89,-33 -123,0 -34,34 -34,89 0,123 34,34 89,34 123,0 33,-34 33,-89 0,-123zm-632 -631c-34,-34 -89,-34 -122,0 -34,34 -34,89 0,122 33,34 88,34 122,0 34,-33 34,-88 0,-122zm374 -105l-39 0 -117 117 0 39 84 84 0 72 -218 218 -72 -1 -83 -83 -39 0 -87 86 -72 0 -83 -83 -39 0 -223 222 0 39 84 84 0 72 -87 86 0 39 84 84 0 72 -248 248 0 39 84 84 38 0 248 -248 73 0 83 83 39 0 87 -86 72 0 83 83 39 0 223 -222 0 -39 -84 -84 0 -72 87 -86 0 -39 -84 -84 0 -72 218 -218 72 1 83 83 39 0 117 -117 0 -39 -362 -362zm-1319 1682c-60,-60 -157,-60 -217,0 -60,60 -60,157 0,217 60,60 157,60 217,0 60,-60 60,-157 0,-217zm-680 -4392c-12,-46 -60,-73 -106,-61 -46,13 -74,60 -61,106 12,47 60,74 106,62 46,-13 74,-60 61,-107zm-231 -862c-12,-47 -60,-74 -106,-62 -46,13 -74,60 -61,107 12,46 60,73 106,61 46,-13 73,-60 61,-106zm376 96l-33 -19 -160 43 -20 33 31 114 -36 63 -297 80 -63 -37 -30 -114 -34 -19 -118 31 -62 -36 -31 -114 -34 -19 -304 81 -19 34 30 114 -36 63 -118 31 -19 34 30 114 -36 63 -339 90 -19 34 31 114 33 20 339 -91 62 36 31 114 34 20 118 -32 62 36 31 115 34 19 304 -81 19 -34 -30 -114 36 -63 118 -32 19 -33 -30 -114 36 -63 297 -80 62 37 31 114 34 19 159 -43 20 -33 -133 -495zm-1983 797c-22,-82 -106,-131 -188,-109 -82,22 -131,106 -109,188 22,82 106,131 188,109 82,-22 131,-106 109,-188zm1607 -4143c12,-46 -15,-94 -61,-106 -47,-13 -94,15 -106,61 -13,46 15,94 61,106 46,13 94,-15 106,-61zm231 -863c13,-46 -15,-94 -61,-106 -46,-12 -94,15 -106,61 -13,46 15,94 61,106 46,13 94,-15 106,-61zm278 272l-20 -34 -159 -43 -34 20 -31 114 -62 36 -297 -79 -36 -63 30 -114 -19 -34 -118 -32 -36 -62 30 -114 -19 -34 -304 -81 -34 19 -31 114 -62 36 -118 -31 -34 19 -31 114 -62 37 -339 -91 -33 19 -31 114 19 34 339 91 36 62 -30 115 19 33 118 32 36 63 -30 114 19 33 304 82 34 -20 31 -114 62 -36 118 32 34 -20 30 -114 63 -36 297 80 36 62 -31 114 20 34 160 43 33 -20 133 -494zm-2116 -302c22,-82 -27,-166 -109,-188 -82,-22 -166,27 -188,108 -22,82 27,167 109,188 82,22 166,-26 188,-108zm3463 -2784c34,-34 34,-89 0,-123 -34,-34 -89,-34 -122,0 -34,34 -34,89 0,123 33,34 88,34 122,0zm632 -632c33,-34 33,-89 0,-122 -34,-34 -89,-34 -123,0 -34,33 -34,88 0,122 34,34 89,34 123,0zm104 374l0 -39 -117 -117 -39 0 -83 84 -72 0 -218 -217 0 -73 84 -83 0 -39 -87 -87 0 -72 84 -83 0 -39 -223 -223 -39 0 -83 84 -72 0 -87 -87 -39 0 -83 84 -73 0 -248 -248 -39 0 -83 84 0 39 248 248 0 72 -84 83 0 39 87 87 0 72 -84 83 0 39 223 223 39 0 83 -83 72 -1 87 87 39 0 83 -84 73 0 217 218 0 72 -84 83 0 39 117 117 39 0 362 -362zm-1681 -1319c60,-60 60,-157 0,-217 -60,-60 -157,-60 -217,0 -60,60 -60,157 0,217 60,60 157,60 217,0zm4391 -680c46,-12 74,-60 61,-106 -12,-46 -60,-73 -106,-61 -46,12 -73,60 -61,106 12,46 60,74 106,61zm863 -231c46,-12 73,-60 61,-106 -12,-46 -60,-74 -106,-61 -46,12 -74,60 -61,106 12,46 60,73 106,61zm-97 376l20 -33 -43 -160 -34 -20 -114 31 -63 -36 -79 -297 36 -62 114 -31 20 -34 -32 -118 36 -62 114 -31 20 -34 -82 -304 -33 -19 -115 30 -62 -36 -32 -118 -34 -19 -114 30 -62 -36 -91 -338 -34 -20 -114 31 -19 33 90 339 -36 63 -114 30 -19 34 31 118 -36 62 -114 31 -20 34 82 304 34 19 114 -30 62 36 32 118 34 19 114 -30 62 36 80 297 -36 62 -114 31 -20 34 43 159 34 20 494 -133zm-796 -1983c82,-22 130,-106 108,-188 -22,-82 -106,-131 -188,-109 -82,22 -130,106 -108,188 22,82 106,131 188,109zm4143 1607c46,12 93,-15 106,-61 12,-46 -15,-94 -62,-106 -46,-13 -93,15 -106,61 -12,46 15,94 62,106zm862 231c47,13 94,-15 106,-61 13,-46 -15,-94 -61,-106 -46,-12 -93,15 -106,61 -12,46 15,94 61,106zm-271 278l33 -20 43 -159 -19 -34 -115 -31 -36 -62 80 -297 62 -36 115 30 33 -19 32 -118 63 -36 114 30 33 -19 82 -304 -20 -34 -114 -31 -36 -62 32 -118 -20 -34 -114 -30 -36 -63 91 -339 -20 -33 -114 -31 -34 20 -90 338 -63 36 -114 -30 -34 19 -32 118 -62 36 -114 -30 -34 19 -81 304 19 34 114 31 36 62 -31 118 19 34 114 31 37 62 -80 297 -63 36 -114 -31 -34 20 -42 160 19 33 495 133zm302 -2116c81,22 166,-27 188,-109 22,-82 -27,-166 -109,-188 -82,-22 -166,27 -188,109 -22,82 27,166 109,188zm-289 19360l-1229 0c-70,-1 -153,-25 -154,-154l0 -972c0,-65 -53,-118 -118,-118l-22 0c-41,0 -78,-21 -78,-74l2 -884c0,-87 -71,-157 -158,-157 -61,0 -114,34 -140,85 -18,36 -17,33 -77,33l-68 0c-23,0 -32,-7 -32,-31l0 -293 0 -560c0,-23 9,-31 32,-31l68 0c60,0 59,-2 77,33 26,51 79,86 140,86 87,0 158,-71 158,-158 0,-87 -71,-157 -158,-157l-472 0 -473 0c-87,0 -157,70 -157,157 0,87 70,158 157,158 61,0 114,-35 140,-86 19,-35 18,-33 77,-33l68 0c23,0 33,8 33,31l0 560 0 293c0,24 -10,31 -33,31l-68 0c-59,0 -58,3 -77,-33 -26,-51 -79,-85 -140,-85 -87,0 -157,70 -157,157l2 884c0,53 -38,74 -79,74l-22 0c-65,0 -118,53 -118,118l0 972c-1,129 -84,153 -154,154l-1229 0c-127,100 -298,140 -465,95 -168,-45 -296,-165 -356,-315l-3862 -2229c-160,22 -328,-28 -451,-151 -123,-123 -173,-291 -150,-450l-2230 -3862c-149,-61 -270,-188 -315,-356 -45,-168 -4,-338 95,-465l0 -4460c-99,-127 -140,-298 -95,-465 45,-168 166,-296 315,-356l2230 -3862c-23,-160 27,-328 150,-451 123,-122 291,-173 451,-150l3862 -2230c60,-149 188,-270 356,-315 167,-45 338,-4 465,95l4459 0c127,-99 298,-140 466,-95 168,45 295,166 355,315l3862 2230c160,-23 328,28 451,150 123,123 173,291 150,451l2230 3862c150,60 270,188 315,356 45,167 5,338 -95,465l0 4459c100,128 140,298 95,466 -45,168 -165,295 -315,356l-2230 3861c23,160 -27,328 -150,451 -123,123 -291,173 -451,151l-3862 2229c-60,150 -187,270 -355,315 -168,45 -339,5 -466,-95z"/>
   <path class="fil0" d="M37147 9988c85,0 154,69 154,153 0,85 -69,154 -154,154 -85,0 -153,-69 -153,-154 0,-84 68,-153 153,-153zm0 -9295c5219,0 9449,4230 9449,9448 0,5219 -4230,9449 -9449,9449 -5218,0 -9449,-4230 -9449,-9449 0,-5218 4231,-9448 9449,-9448z"/>
   <path class="fil0" d="M815 8536l613 0c41,0 78,21 78,74l0 294c0,23 -9,31 -32,31l-68 0c-60,0 -58,2 -77,-33 -26,-51 -79,-86 -140,-86 -87,0 -157,71 -157,158 0,87 70,157 157,157l473 0 472 0c87,0 157,-70 157,-157 0,-87 -70,-158 -157,-158 -61,0 -114,35 -140,86 -19,35 -17,33 -77,33l-68 0c-23,0 -32,-8 -32,-31l0 -294c0,-53 37,-74 78,-74l613 0c118,0 174,104 214,215l548 1500c67,183 77,136 -8,310l-540 1101c-52,106 -96,214 -214,214l-847 0 -846 0c-118,0 -162,-108 -214,-214l-540 -1101c-85,-174 -75,-127 -8,-310l548 -1500c40,-111 96,-215 214,-215zm236 1693c36,0 65,-29 65,-65 0,-36 -29,-65 -65,-65 -36,0 -65,29 -65,65 0,36 29,65 65,65zm0 1220c36,0 65,-29 65,-65 0,-35 -29,-65 -65,-65 -36,0 -65,30 -65,65 0,36 29,65 65,65zm1221 0c36,0 65,-29 65,-65 0,-35 -29,-65 -65,-65 -36,0 -65,30 -65,65 0,36 29,65 65,65zm0 -1220c36,0 65,-29 65,-65 0,-36 -29,-65 -65,-65 -36,0 -65,29 -65,65 0,36 29,65 65,65zm-611 -104c359,0 650,290 650,649 0,359 -291,650 -650,650 -358,0 -649,-291 -649,-650 0,-359 291,-649 649,-649z"/>
  </g>
 </g>
</svg>
