<?xml version="1.0" encoding="UTF-8"?>
<!DOCTYPE svg PUBLIC "-//W3C//DTD SVG 1.1//EN" "http://www.w3.org/Graphics/SVG/1.1/DTD/svg11.dtd">
<!-- Creator: CorelDRAW X8 -->
<svg xmlns="http://www.w3.org/2000/svg" xml:space="preserve" width="827.28mm" height="461.672mm" version="1.1" style="shape-rendering:geometricPrecision; text-rendering:geometricPrecision; image-rendering:optimizeQuality; fill-rule:evenodd; clip-rule:evenodd"
viewBox="0 0 1191608 664988"
 xmlns:xlink="http://www.w3.org/1999/xlink">
 <defs>
  <style type="text/css">
   <![CDATA[
    .str5 {stroke:black;stroke-width:254.085}
    .str2 {stroke:#2B2A29;stroke-width:109.758}
    .str0 {stroke:#2B2A29;stroke-width:109.758}
    .str4 {stroke:#2B2A29;stroke-width:109.758}
    .str3 {stroke:black;stroke-width:109.758}
    .str1 {stroke:red;stroke-width:109.758}
    .fil0 {fill:none}
   ]]>
  </style>
 </defs>
 <g id="Слой_x0020_1">
  <metadata id="CorelCorpID_0Corel-Layer"/>
  <path class="fil0 str0" d="M259356 567920c0,-2466 1999,-4465 4465,-4465 2466,0 4465,1999 4465,4465 0,2466 -1999,4465 -4465,4465 -2466,0 -4465,-1999 -4465,-4465zm26791 46816c-1313,0 -2377,-1064 -2377,-2377 0,-1313 1064,-2377 2377,-2377 1313,0 2377,1064 2377,2377 0,1313 -1064,2377 -2377,2377zm-44652 44652c1313,0 2376,-1064 2376,-2377 0,-1313 -1063,-2376 -2376,-2376 -1313,0 -2377,1063 -2377,2376 0,1313 1064,2377 2377,2377zm0 -44652c1313,0 2376,-1064 2376,-2377 0,-1313 -1063,-2377 -2376,-2377 -1313,0 -2377,1064 -2377,2377 0,1313 1064,2377 2377,2377zm22326 -3817c13126,0 23766,10640 23766,23766 1,13126 -10640,23767 -23766,23767l0 0 0 0c-13126,0 -23767,-10641 -23767,-23767 0,-13126 10641,-23766 23767,-23766zm22326 48469c-1313,0 -2377,-1064 -2377,-2377 0,-1313 1064,-2376 2377,-2376 1313,0 2377,1063 2377,2376 0,1313 -1064,2377 -2377,2377zm8641 -76719l-17435 -13982c14,-254 22,-509 22,-767 0,-7485 -6068,-13554 -13554,-13554 -7486,0 -13554,6069 -13554,13554 0,226 6,450 17,672l-17430 14077c-4312,0 -7840,3528 -7840,7839l0 64109c0,6157 4672,10316 8983,10316l59648 0c4311,0 8983,-4159 8983,-10316l0 -64109c0,-4311 -3529,-7839 -7840,-7839z"/>
  <g id="_1901162934096">
   <path class="fil0 str1" d="M164882 24963c-2999,1242 -6472,-196 -7714,-3195 -1242,-2999 196,-6472 3195,-7714 3000,-1242 6472,196 7714,3195 1242,2999 -196,6472 -3195,7714z"/>
   <path class="fil0 str1" d="M263821 257989c3222,0 5834,2612 5834,5834 0,3221 -2612,5833 -5834,5833 -3222,0 -5834,-2612 -5834,-5833 0,-3222 2612,-5834 5834,-5834z"/>
   <path class="fil0 str1" d="M24961 164884c-1242,2999 -4714,4438 -7714,3195 -2999,-1242 -4437,-4715 -3195,-7714 1242,-2999 4715,-4437 7714,-3195 2999,1242 4437,4715 3195,7714z"/>
   <path class="fil0 str1" d="M24961 362762c1242,2999 -196,6471 -3195,7714 -2999,1242 -6472,-196 -7714,-3196 -1242,-2999 196,-6471 3196,-7714 2999,-1242 6471,197 7713,3196z"/>
   <path class="fil0 str1" d="M164882 502682c2999,1243 4438,4715 3195,7714 -1242,2999 -4714,4438 -7714,3196 -2999,-1243 -4437,-4715 -3195,-7715 1242,-2999 4715,-4437 7714,-3195z"/>
   <path class="fil0 str1" d="M362760 502682c2999,-1242 6472,196 7714,3195 1242,2999 -196,6472 -3195,7715 -3000,1242 -6472,-197 -7714,-3196 -1243,-2999 196,-6471 3195,-7714z"/>
   <path class="fil0 str1" d="M502681 362761c1242,-2999 4714,-4437 7713,-3195 2999,1242 4438,4715 3196,7714 -1243,2999 -4715,4438 -7714,3195 -2999,-1242 -4438,-4714 -3195,-7714z"/>
   <path class="fil0 str1" d="M502681 164884c-1243,-2999 195,-6472 3195,-7714 2999,-1243 6472,196 7714,3195 1242,2999 -197,6472 -3196,7714 -2999,1242 -6471,-196 -7713,-3195z"/>
   <path class="fil0 str1" d="M362760 24963c-2999,-1242 -4438,-4715 -3196,-7714 1243,-2999 4715,-4438 7715,-3195 2999,1242 4437,4715 3195,7714 -1243,2999 -4715,4437 -7714,3195z"/>
   <polygon class="fil0 str2" points="198168,435649 195839,436603 192125,445567 193097,447892 197090,449546 197681,450974 195417,456441 196389,458766 200382,460419 200973,461847 196517,472604 195090,473195 191097,471541 188766,472498 186501,477965 185074,478556 181081,476902 178750,477859 174390,488384 172963,488975 168860,487276 168269,485848 172628,475324 171656,472999 167663,471345 167072,469917 169337,464450 168365,462125 164372,460471 163780,459043 168236,448287 169664,447696 173657,449350 175988,448393 178253,442926 179680,442335 183673,443989 186003,443035 189716,434071 188744,431745 184751,430092 184160,428664 186521,422965 187948,422374 205358,429585 205950,431013 203589,436711 202161,437303 "/>
   <path class="fil0 str2" d="M207284 443012c1690,700 2494,2637 1794,4328 -701,1691 -2639,2493 -4329,1793 -1691,-700 -2493,-2638 -1793,-4329 700,-1690 2638,-2493 4328,-1792z"/>
   <path class="fil0 str2" d="M177092 430505c1690,701 2493,2638 1793,4329 -700,1690 -2638,2493 -4328,1793 -1691,-700 -2494,-2638 -1793,-4329 700,-1690 2637,-2493 4328,-1793z"/>
   <polygon class="fil0 str2" points="95898,338899 93576,337926 84612,341639 83655,343971 85309,347963 84718,349391 79251,351655 78294,353987 79948,357979 79357,359407 68600,363863 67173,363271 65519,359278 63194,358306 57726,360571 56299,359980 54645,355987 52320,355015 41796,359374 40368,358783 38669,354681 39260,353253 49785,348894 50741,346562 49087,342570 49679,341142 55146,338877 56103,336546 54449,332553 55040,331125 65796,326671 67224,327262 68878,331255 71203,332226 76670,329962 78097,330554 79751,334546 82073,335519 91038,331806 91995,329475 90341,325482 90932,324054 96631,321694 98059,322285 105270,339695 104679,341123 98980,343483 97552,342892 "/>
   <path class="fil0 str2" d="M97138 350551c700,1690 -102,3629 -1792,4329 -1691,700 -3629,-103 -4329,-1793 -701,-1691 103,-3628 1793,-4329 1690,-700 3628,103 4328,1793z"/>
   <path class="fil0 str2" d="M84632 320359c700,1690 -103,3628 -1793,4328 -1690,700 -3628,-102 -4328,-1793 -701,-1690 102,-3628 1793,-4328 1690,-700 3628,102 4328,1793z"/>
   <polygon class="fil0 str2" points="91995,198171 91041,195841 82077,192128 79752,193100 78098,197092 76670,197684 71204,195419 68879,196391 67225,200384 65797,200975 55041,196520 54449,195092 56104,191099 55147,188768 49679,186503 49088,185076 50742,181083 49785,178752 39261,174393 38670,172965 40369,168863 41796,168271 52321,172631 54646,171659 56299,167666 57727,167074 63194,169339 65519,168367 67173,164374 68601,163783 79357,168239 79948,169666 78294,173659 79251,175990 84718,178255 85309,179682 83656,183675 84609,186005 93574,189719 95899,188746 97553,184754 98981,184162 104679,186523 105270,187951 98059,205361 96632,205952 90933,203591 90341,202164 "/>
   <path class="fil0 str2" d="M84633 207287c-701,1690 -2638,2493 -4329,1793 -1690,-701 -2493,-2638 -1793,-4329 700,-1690 2638,-2493 4329,-1793 1690,700 2493,2638 1793,4329z"/>
   <path class="fil0 str2" d="M97139 177094c-700,1691 -2638,2493 -4329,1793 -1690,-700 -2493,-2638 -1793,-4328 700,-1691 2638,-2493 4329,-1793 1690,700 2493,2638 1793,4328z"/>
   <polygon class="fil0 str2" points="188745,95901 189718,93579 186005,84614 183674,83658 179681,85311 178253,84720 175989,79253 173658,78296 169665,79951 168238,79359 163782,68603 164373,67175 168366,65521 169338,63196 167074,57729 167665,56302 171657,54648 172629,52323 168270,41798 168861,40371 172963,38672 174391,39262 178751,49787 181082,50744 185075,49090 186502,49681 188767,55149 191098,56105 195091,54451 196519,55043 200974,65799 200382,67227 196390,68880 195418,71205 197682,76673 197091,78100 193098,79754 192125,82076 195838,91040 198170,91997 202162,90343 203590,90935 205950,96634 205359,98061 187949,105273 186521,104681 184161,98983 184752,97555 "/>
   <path class="fil0 str2" d="M177093 97141c-1690,700 -3628,-102 -4328,-1793 -701,-1691 102,-3629 1793,-4329 1690,-700 3628,103 4328,1793 700,1691 -102,3629 -1793,4329z"/>
   <path class="fil0 str2" d="M207286 84635c-1691,700 -3628,-103 -4329,-1793 -700,-1691 103,-3628 1793,-4329 1690,-700 3628,103 4328,1793 701,1691 -102,3629 -1792,4329z"/>
   <polygon class="fil0 str2" points="329473,91998 331803,91044 335517,82079 334544,79754 330552,78101 329960,76673 332225,71206 331253,68881 327260,67227 326669,65800 331124,55043 332552,54452 336545,56106 338876,55149 341141,49682 342568,49091 346561,50744 348892,49788 353252,39263 354679,38672 358781,40371 359373,41799 355014,52323 355986,54648 359978,56302 360570,57729 358305,63197 359277,65521 363270,67176 363861,68603 359406,79359 357978,79951 353985,78297 351654,79254 349389,84721 347962,85311 343969,83658 341639,84612 337926,93576 338898,95902 342890,97555 343482,98983 341121,104682 339694,105273 322284,98062 321692,96634 324053,90935 325481,90344 "/>
   <path class="fil0 str2" d="M320358 84635c-1691,-700 -2494,-2638 -1794,-4328 701,-1691 2639,-2494 4329,-1793 1691,700 2493,2638 1793,4328 -700,1691 -2638,2493 -4328,1793z"/>
   <path class="fil0 str2" d="M350550 97141c-1690,-700 -2493,-2638 -1793,-4328 700,-1690 2638,-2493 4328,-1793 1691,700 2494,2638 1793,4328 -700,1691 -2638,2494 -4328,1793z"/>
   <polygon class="fil0 str2" points="431743,188748 434065,189720 443030,186007 443986,183676 442333,179684 442924,178256 448391,175991 449348,173660 447694,169667 448285,168240 459042,163784 460469,164376 462123,168369 464448,169340 469915,167076 471343,167667 472997,171660 475321,172632 485846,168272 487273,168864 488973,172966 488382,174394 477857,178753 476900,181084 478555,185077 477963,186505 472496,188769 471539,191100 473193,195093 472602,196521 461845,200976 460418,200385 458764,196392 456439,195420 450972,197685 449545,197093 447890,193101 445569,192127 436604,195840 435647,198172 437301,202165 436710,203593 431011,205953 429583,205361 422372,187952 422963,186524 428662,184164 430090,184755 "/>
   <path class="fil0 str2" d="M430504 177096c-700,-1691 101,-3629 1792,-4329 1691,-700 3629,103 4329,1793 701,1690 -103,3628 -1793,4328 -1690,701 -3628,-102 -4328,-1792z"/>
   <path class="fil0 str2" d="M443010 207288c-700,-1690 102,-3628 1793,-4328 1690,-701 3628,102 4328,1792 700,1691 -102,3629 -1793,4329 -1690,700 -3628,-102 -4328,-1793z"/>
   <polygon class="fil0 str2" points="435647,329476 436601,331806 445565,335519 447890,334547 449544,330554 450972,329963 456439,332227 458764,331255 460418,327262 461845,326672 472602,331127 473193,332554 471539,336547 472496,338878 477963,341143 478554,342570 476900,346563 477857,348895 488382,353254 488973,354681 487274,358784 485846,359376 475322,355016 472997,355988 471343,359981 469916,360572 464448,358307 462123,359279 460469,363272 459042,363864 448285,359408 447694,357980 449348,353988 448391,351656 442924,349391 442333,347964 443987,343971 443033,341641 434069,337928 431743,338900 430090,342893 428662,343484 422963,341123 422372,339696 429583,322286 431011,321694 436709,324055 437301,325483 "/>
   <path class="fil0 str2" d="M443010 320360c700,-1690 2637,-2494 4328,-1793 1691,700 2493,2638 1793,4328 -700,1691 -2638,2493 -4328,1793 -1691,-700 -2494,-2638 -1793,-4328z"/>
   <path class="fil0 str2" d="M430504 350552c700,-1690 2638,-2492 4328,-1792 1690,699 2493,2637 1793,4328 -700,1690 -2638,2493 -4328,1793 -1691,-701 -2494,-2638 -1793,-4329z"/>
   <polygon class="fil0 str2" points="338897,431746 337924,434068 341637,443032 343968,443989 347961,442335 349389,442927 351653,448393 353984,449350 357977,447696 359404,448288 363860,459044 363269,460472 359276,462125 358304,464450 360568,469918 359977,471345 355984,472999 355012,475324 359372,485848 358780,487276 354678,488975 353250,488384 348891,477860 346560,476903 342567,478557 341140,477966 338875,472498 336544,471542 332551,473195 331123,472604 326668,461848 327259,460420 331252,458766 332224,456441 329960,450974 330551,449547 334544,447893 335517,445571 331804,436606 329472,435650 325480,437303 324052,436712 321692,431013 322283,429586 339693,422374 341120,422965 343481,428664 342890,430092 "/>
   <path class="fil0 str2" d="M350549 430506c1690,-700 3628,102 4328,1793 700,1690 -102,3628 -1793,4329 -1690,700 -3628,-103 -4328,-1794 -700,-1690 102,-3628 1793,-4328z"/>
   <path class="fil0 str2" d="M320356 443012c1691,-700 3628,103 4329,1793 700,1690 -103,3628 -1793,4328 -1690,701 -3628,-102 -4329,-1792 -700,-1691 103,-3629 1793,-4329z"/>
   <path class="fil0 str2" d="M143216 509432l-125007 -125008c-7141,-482 -13745,-4903 -16669,-11963 -2925,-7061 -1381,-14858 3329,-20248l0 -176786c-4709,-5390 -6254,-13186 -3329,-20247 2925,-7062 9531,-11483 16673,-11964l125004 -125004c482,-7142 4903,-13747 11964,-16672 7062,-2925 14860,-1380 20250,3330l176781 0c5391,-4710 13188,-6255 20250,-3330 7062,2925 11482,9531 11964,16673l125004 125004c7142,482 13747,4903 16672,11964 2925,7061 1381,14857 -3329,20248l0 176787c4708,5391 6252,13186 3327,20246 -2924,7060 -9527,11481 -16668,11964l-125008 125007c-482,7141 -4903,13745 -11963,16669 -7061,2925 -14856,1381 -20246,-3327l-51793 0c-2616,-2 -5600,-796 -5632,-5643l1 -30606c0,-2376 -1946,-4322 -4322,-4322l-52500 1c-2716,0 -5117,1253 -5117,4321l0 30606c-32,4854 -3024,5643 -5643,5643l-51783 0c-5391,4708 -13186,6251 -20246,3327 -7060,-2925 -11481,-9529 -11964,-16670z"/>
   <path class="fil0 str3" d="M277285 309349c0,-2466 1999,-4465 4465,-4465 2466,0 4465,1999 4465,4465 0,2466 -1999,4465 -4465,4465 -2466,0 -4465,-1999 -4465,-4465z"/>
   <path class="fil0 str3" d="M277285 330268c0,-2466 1999,-4465 4465,-4465 2466,0 4465,1999 4465,4465 0,2466 -1999,4465 -4465,4465 -2466,0 -4465,-1999 -4465,-4465z"/>
   <path class="fil0 str3" d="M277285 351187c0,-2466 1999,-4466 4465,-4466 2466,0 4465,2000 4465,4466 0,2466 -1999,4465 -4465,4465 -2466,0 -4465,-1999 -4465,-4465z"/>
   <path class="fil0 str3" d="M242223 309349c0,-2466 2000,-4465 4466,-4465 2466,0 4465,1999 4465,4465 0,2466 -1999,4465 -4465,4465 -2466,0 -4466,-1999 -4466,-4465z"/>
   <path class="fil0 str3" d="M242223 330268c0,-2466 2000,-4465 4466,-4465 2466,0 4465,1999 4465,4465 0,2466 -1999,4465 -4465,4465 -2466,0 -4466,-1999 -4466,-4465z"/>
   <path class="fil0 str3" d="M242223 351187c0,-2466 2000,-4466 4466,-4466 2466,0 4465,2000 4465,4466 0,2466 -1999,4465 -4465,4465 -2466,0 -4466,-1999 -4466,-4465z"/>
   <path class="fil0 str3" d="M259754 463585l0 -21182c0,-2456 2009,-4465 4465,-4465 2456,0 4466,2009 4466,4465l0 21182c0,2456 -2010,4465 -4466,4465 -2456,0 -4465,-2009 -4465,-4465z"/>
  </g>
  <path class="fil0 str4" d="M946687 43347c135236,0 244866,109631 244866,244867 0,135236 -109630,244866 -244866,244866 -135236,-1 -244866,-109631 -244866,-244867 0,-135236 109630,-244866 244866,-244866z"/>
  <path class="fil0 str1" d="M946687 282308c3262,0 5906,2644 5906,5905 0,3262 -2644,5906 -5906,5906 -3262,0 -5906,-2644 -5906,-5906 0,-3261 2644,-5905 5906,-5905z"/>
  <circle class="fil0 str5" cx="997612" cy="339139" r="7202"/>
  <circle class="fil0 str5" cx="997613" cy="237288" r="7202"/>
  <circle class="fil0 str5" cx="895761" cy="237288" r="7202"/>
  <circle class="fil0 str5" cx="895761" cy="339139" r="7202"/>
 </g>
</svg>
