<?xml version="1.0" encoding="UTF-8"?>
<!DOCTYPE svg PUBLIC "-//W3C//DTD SVG 1.1//EN" "http://www.w3.org/Graphics/SVG/1.1/DTD/svg11.dtd">
<!-- Creator: CorelDRAW X8 -->
<svg xmlns="http://www.w3.org/2000/svg" xml:space="preserve" width="1199.16mm" height="604.726mm" version="1.1" style="shape-rendering:geometricPrecision; text-rendering:geometricPrecision; image-rendering:optimizeQuality; fill-rule:evenodd; clip-rule:evenodd"
viewBox="0 0 1199161 604726"
 xmlns:xlink="http://www.w3.org/1999/xlink">
 <defs>
  <style type="text/css">
   <![CDATA[
    .str4 {stroke:black;stroke-width:176.4}
    .str1 {stroke:#2B2A29;stroke-width:76.2}
    .str5 {stroke:#2B2A29;stroke-width:76.2}
    .str3 {stroke:#2B2A29;stroke-width:76.2}
    .str2 {stroke:black;stroke-width:76.2}
    .str0 {stroke:red;stroke-width:76.2}
    .fil0 {fill:none}
   ]]>
  </style>
 </defs>
 <g id="Слой_x0020_1">
  <metadata id="CorelCorpID_0Corel-Layer"/>
  <g id="_1901162933840">
   <path class="fil0 str0" d="M254940 252076c2151,-576 4384,713 4961,2864 576,2151 -713,4384 -2864,4961 -2152,576 -4385,-713 -4961,-2864 -576,-2151 713,-4384 2864,-4961z"/>
   <path class="fil0 str0" d="M192086 494475c2177,584 3483,2844 2899,5021 -583,2178 -2844,3483 -5021,2900 -2178,-584 -3483,-2844 -2899,-5022 583,-2177 2844,-3482 5021,-2899z"/>
   <path class="fil0 str0" d="M81404 430573c1601,1601 1601,4197 0,5798 -1601,1601 -4197,1601 -5798,0 -1602,-1601 -1601,-4197 0,-5798 1601,-1601 4197,-1601 5798,0z"/>
   <path class="fil0 str0" d="M17502 319891c583,2177 -722,4438 -2899,5021 -2178,584 -4438,-721 -5022,-2899 -583,-2178 722,-4438 2899,-5021 2178,-584 4438,721 5022,2899z"/>
   <path class="fil0 str0" d="M17502 192086c-584,2177 -2844,3483 -5022,2899 -2177,-583 -3483,-2844 -2899,-5021 583,-2178 2844,-3483 5022,-2899 2177,583 3482,2844 2899,5021z"/>
   <path class="fil0 str0" d="M81404 81404c-1601,1601 -4197,1601 -5798,0 -1601,-1601 -1602,-4197 0,-5798 1601,-1602 4197,-1601 5798,0 1601,1601 1601,4197 0,5798z"/>
   <path class="fil0 str0" d="M192086 17502c-2177,583 -4438,-722 -5022,-2899 -583,-2178 722,-4438 2899,-5022 2178,-583 4439,722 5022,2899 583,2178 -722,4438 -2899,5022z"/>
   <path class="fil0 str0" d="M319891 17502c-2178,-584 -3483,-2844 -2900,-5022 584,-2177 2844,-3483 5022,-2899 2178,583 3482,2844 2899,5022 -583,2177 -2844,3482 -5021,2899z"/>
   <path class="fil0 str0" d="M430573 81404c-1601,-1601 -1602,-4197 0,-5798 1601,-1601 4197,-1602 5798,0 1601,1601 1601,4197 0,5798 -1601,1601 -4197,1601 -5798,0z"/>
   <path class="fil0 str0" d="M494475 192086c-583,-2177 721,-4438 2899,-5022 2178,-583 4438,722 5022,2899 583,2178 -722,4439 -2900,5022 -2177,583 -4437,-722 -5021,-2899z"/>
   <path class="fil0 str0" d="M494475 319891c584,-2178 2844,-3483 5021,-2900 2178,584 3483,2844 2900,5022 -584,2178 -2844,3482 -5022,2899 -2177,-583 -3482,-2844 -2899,-5021z"/>
   <path class="fil0 str0" d="M430573 430573c1601,-1601 4197,-1602 5798,0 1601,1601 1601,4197 0,5798 -1601,1601 -4197,1601 -5798,0 -1601,-1601 -1601,-4197 0,-5798z"/>
   <path class="fil0 str0" d="M319891 494475c2177,-583 4438,721 5021,2899 584,2178 -721,4438 -2899,5022 -2178,583 -4438,-722 -5021,-2900 -584,-2177 721,-4437 2899,-5021z"/>
   <polygon class="fil0 str1" points="207930,449027 206412,449895 204669,456402 205549,457914 208447,458691 208983,459620 207920,463588 208799,465100 211698,465877 212234,466806 210142,474613 209213,475150 206315,474373 204797,475243 203734,479211 202805,479748 199906,478971 198388,479841 196342,487480 195412,488016 192435,487219 191898,486289 193945,478650 193066,477138 190167,476362 189631,475433 190694,471464 189815,469952 186916,469175 186380,468246 188472,460439 189401,459903 192299,460679 193817,459809 194881,455841 195810,455305 198708,456081 200225,455214 201969,448707 201089,447194 198191,446418 197654,445489 198763,441352 199692,440816 212329,444202 212866,445131 211757,449267 210828,449804 "/>
   <path class="fil0 str1" d="M214871 453269c1227,329 1956,1590 1627,2817 -329,1227 -1590,1955 -2817,1626 -1227,-329 -1955,-1590 -1626,-2817 328,-1227 1590,-1955 2816,-1626z"/>
   <path class="fil0 str1" d="M192956 447397c1227,329 1955,1590 1627,2817 -329,1227 -1590,1955 -2817,1626 -1227,-329 -1955,-1590 -1627,-2817 329,-1227 1590,-1955 2817,-1626z"/>
   <polygon class="fil0 str1" points="117849,399136 116101,399129 111337,403892 111343,405641 113465,407763 113465,408836 110560,411741 110565,413490 112687,415612 112687,416684 106972,422400 105899,422400 103777,420278 102028,420273 99123,423178 98050,423178 95928,421056 94179,421050 88587,426643 87514,426643 85334,424463 85334,423390 90926,417798 90920,416048 88799,413927 88799,412854 91704,409949 91698,408200 89576,406078 89576,405005 95292,399290 96365,399290 98486,401411 100236,401417 103141,398512 104213,398512 106335,400634 108083,400641 112847,395878 112841,394128 110719,392006 110719,390933 113747,387905 114820,387905 124071,397156 124071,398229 121043,401257 119970,401257 "/>
   <path class="fil0 str1" d="M121739 406280c898,898 899,2354 1,3253 -899,898 -2355,898 -3253,0 -899,-899 -898,-2355 0,-3253 898,-898 2354,-898 3252,0z"/>
   <path class="fil0 str1" d="M105696 390237c899,898 898,2354 0,3253 -898,898 -2354,898 -3252,-1 -898,-898 -898,-2354 0,-3252 898,-898 2354,-898 3252,0z"/>
   <polygon class="fil0 str1" points="64782,310888 63272,310008 56765,311751 55895,313269 56672,316167 56135,317096 52167,318160 51297,319677 52074,322576 51537,323505 43730,325597 42801,325060 42024,322162 40512,321282 36544,322346 35615,321809 34838,318911 33326,318031 25687,320079 24758,319542 23960,316565 24496,315635 32135,313588 33005,312070 32228,309172 32765,308243 36733,307180 37603,305662 36826,302764 37363,301834 45170,299743 46099,300279 46876,303177 48388,304057 52357,302994 53285,303530 54062,306428 55572,307309 62079,305565 62949,304047 62172,301149 62709,300220 66845,299111 67774,299648 71161,312285 70624,313214 66488,314322 65558,313786 "/>
   <path class="fil0 str1" d="M64579 319020c329,1227 -399,2489 -1626,2817 -1227,329 -2488,-399 -2817,-1626 -329,-1227 400,-2488 1626,-2817 1227,-329 2489,399 2817,1626z"/>
   <path class="fil0 str1" d="M58707 297105c329,1227 -399,2488 -1626,2817 -1227,329 -2488,-399 -2817,-1626 -329,-1227 399,-2488 1626,-2817 1227,-329 2489,399 2817,1626z"/>
   <polygon class="fil0 str1" points="62949,207929 62081,206412 55574,204669 54062,205548 53285,208446 52356,208983 48388,207920 46876,208799 46099,211698 45170,212234 37362,210142 36826,209213 37603,206314 36733,204797 32765,203733 32228,202804 33005,199906 32135,198388 24496,196341 23960,195412 24757,192435 25686,191898 33326,193945 34838,193065 35614,190167 36543,189631 40512,190694 42024,189814 42801,186916 43730,186380 51537,188472 52073,189401 51297,192299 52167,193817 56135,194881 56671,195809 55895,198708 56762,200225 63269,201969 64782,201089 65558,198191 66487,197654 70624,198763 71160,199692 67774,212329 66845,212865 62709,211757 62172,210828 "/>
   <path class="fil0 str1" d="M58707 214871c-329,1227 -1590,1956 -2817,1627 -1227,-329 -1955,-1590 -1626,-2817 328,-1227 1590,-1955 2816,-1627 1227,329 1956,1590 1627,2817z"/>
   <path class="fil0 str1" d="M64579 192956c-329,1227 -1590,1955 -2817,1626 -1227,-329 -1955,-1590 -1626,-2817 329,-1227 1590,-1954 2817,-1626 1227,329 1955,1590 1626,2817z"/>
   <polygon class="fil0 str1" points="112840,117848 112847,116100 108084,111337 106335,111343 104213,113464 103140,113464 100235,110559 98486,110565 96364,112687 95291,112687 89576,106971 89576,105898 91698,103777 91703,102027 88798,99122 88798,98050 90920,95928 90926,94178 85333,88586 85333,87513 87513,85334 88586,85333 94178,90926 95928,90920 98049,88798 99122,88798 102027,91704 103776,91698 105898,89576 106971,89576 112686,95292 112686,96364 110565,98486 110559,100236 113464,103141 113464,104213 111342,106335 111335,108083 116098,112846 117848,112840 119969,110719 121042,110719 124070,113747 124070,114820 114820,124071 113747,124071 110719,121043 110718,119970 "/>
   <path class="fil0 str1" d="M105696 121739c-898,898 -2355,899 -3253,0 -898,-898 -898,-2354 0,-3253 898,-898 2354,-897 3253,1 898,898 898,2354 0,3252z"/>
   <path class="fil0 str1" d="M121739 105696c-898,898 -2354,898 -3253,0 -898,-898 -898,-2354 0,-3252 898,-899 2354,-898 3253,0 898,898 898,2354 0,3252z"/>
   <polygon class="fil0 str1" points="201088,64781 201968,63271 200225,56764 198707,55895 195809,56671 194880,56135 193816,52167 192298,51297 189400,52074 188471,51537 186379,43729 186916,42800 189814,42024 190693,40512 189630,36543 190166,35614 193065,34838 193944,33326 191897,25686 192434,24757 195411,23959 196341,24496 198387,32135 199905,33005 202803,32228 203733,32764 204796,36733 206314,37603 209212,36826 210141,37362 212233,45170 211697,46099 208798,46876 207919,48388 208982,52356 208446,53285 205548,54062 204667,55572 206411,62079 207929,62948 210827,62172 211756,62708 212864,66845 212328,67774 199691,71160 198762,70624 197654,66487 198190,65558 "/>
   <path class="fil0 str1" d="M192956 64579c-1227,329 -2489,-399 -2818,-1626 -328,-1227 400,-2489 1627,-2817 1227,-329 2488,399 2817,1626 329,1227 -400,2488 -1626,2817z"/>
   <path class="fil0 str1" d="M214871 58707c-1227,328 -2488,-400 -2817,-1627 -329,-1226 399,-2488 1626,-2816 1227,-329 2488,399 2817,1626 329,1227 -399,2488 -1626,2817z"/>
   <polygon class="fil0 str1" points="304046,62948 305564,62081 307307,55574 306427,54062 303530,53285 302993,52356 304056,48388 303177,46875 300278,46099 299742,45170 301834,37362 302763,36826 305661,37603 307179,36733 308243,32764 309172,32228 312070,33004 313588,32135 315634,24496 316564,23959 319541,24757 320078,25686 318031,33325 318911,34838 321809,35614 322345,36543 321282,40512 322161,42024 325060,42800 325596,43729 323504,51537 322575,52073 319677,51296 318159,52166 317095,56135 316166,56671 313268,55894 311751,56762 310007,63269 310887,64781 313785,65558 314322,66487 313213,70623 312284,71160 299647,67774 299111,66845 300219,62708 301148,62172 "/>
   <path class="fil0 str1" d="M297105 58707c-1227,-329 -1956,-1590 -1627,-2817 329,-1227 1590,-1956 2817,-1627 1227,329 1955,1590 1626,2817 -328,1227 -1589,1955 -2816,1627z"/>
   <path class="fil0 str1" d="M319020 64579c-1227,-329 -1955,-1590 -1626,-2817 328,-1227 1589,-1955 2816,-1626 1227,328 1955,1589 1627,2817 -329,1226 -1590,1955 -2817,1626z"/>
   <polygon class="fil0 str1" points="394128,112840 395876,112847 400639,108084 400633,106335 398512,104213 398512,103140 401417,100235 401411,98486 399289,96364 399290,95291 405005,89576 406078,89576 408199,91698 409949,91703 412854,88798 413927,88798 416048,90920 417798,90925 423390,85333 424463,85333 426643,87513 426643,88586 421050,94178 421056,95928 423178,98049 423178,99122 420273,102027 420278,103776 422400,105898 422400,106971 416685,112686 415612,112686 413490,110565 411741,110559 408835,113464 407763,113464 405641,111342 403894,111335 399130,116098 399136,117848 401257,119969 401257,121042 398229,124070 397156,124070 387905,114820 387905,113747 390933,110719 392006,110718 "/>
   <path class="fil0 str1" d="M390237 105696c-898,-898 -899,-2355 0,-3253 898,-898 2354,-898 3253,0 898,898 898,2354 0,3253 -898,898 -2355,898 -3253,0z"/>
   <path class="fil0 str1" d="M406280 121739c-898,-898 -898,-2354 0,-3253 898,-898 2354,-898 3253,0 898,898 898,2354 0,3253 -899,898 -2355,898 -3253,0z"/>
   <polygon class="fil0 str1" points="447195,201088 448705,201968 455212,200225 456081,198707 455305,195809 455841,194880 459809,193816 460679,192298 459903,189400 460439,188471 468247,186379 469176,186916 469952,189814 471464,190693 475433,189630 476362,190166 477138,193065 478651,193944 486290,191897 487219,192434 488017,195411 487480,196341 479841,198387 478971,199905 479748,202803 479212,203733 475243,204796 474373,206314 475150,209212 474614,210141 466806,212233 465877,211697 465101,208798 463588,207919 459620,208982 458691,208446 457914,205548 456405,204667 449898,206411 449028,207929 449804,210827 449268,211756 445131,212864 444202,212328 440816,199691 441352,198762 445489,197654 446418,198190 "/>
   <path class="fil0 str1" d="M447397 192956c-328,-1227 399,-2489 1626,-2818 1227,-328 2489,400 2817,1627 329,1227 -399,2488 -1626,2817 -1227,329 -2488,-400 -2817,-1626z"/>
   <path class="fil0 str1" d="M453269 214871c-328,-1227 400,-2488 1627,-2817 1226,-329 2488,399 2816,1626 329,1227 -399,2488 -1626,2817 -1227,329 -2488,-399 -2817,-1626z"/>
   <polygon class="fil0 str1" points="449028,304046 449895,305564 456402,307307 457914,306427 458691,303530 459620,302993 463588,304056 465101,303177 465877,300278 466806,299742 474614,301834 475150,302763 474373,305661 475243,307179 479212,308243 479748,309172 478972,312070 479841,313588 487480,315634 488017,316564 487219,319541 486290,320078 478651,318031 477138,318911 476362,321809 475433,322345 471464,321282 469952,322161 469176,325060 468247,325596 460439,323504 459903,322575 460679,319677 459810,318159 455841,317095 455305,316166 456081,313268 455214,311751 448707,310007 447195,310887 446418,313785 445489,314322 441353,313213 440816,312284 444202,299647 445131,299111 449268,300219 449804,301148 "/>
   <path class="fil0 str1" d="M453269 297105c329,-1227 1590,-1956 2817,-1627 1227,329 1955,1590 1627,2817 -329,1227 -1590,1955 -2817,1626 -1227,-328 -1955,-1589 -1627,-2816z"/>
   <path class="fil0 str1" d="M447397 319020c329,-1227 1590,-1955 2817,-1626 1227,328 1955,1589 1626,2816 -328,1227 -1589,1955 -2817,1627 -1227,-329 -1955,-1590 -1626,-2817z"/>
   <polygon class="fil0 str1" points="399136,394127 399129,395875 403892,400639 405641,400633 407763,398511 408836,398511 411740,401416 413490,401411 415612,399289 416684,399289 422400,405005 422400,406077 420278,408199 420272,409948 423178,412854 423178,413926 421056,416048 421050,417797 426643,423389 426642,424462 424463,426642 423390,426642 417798,421050 416048,421056 413927,423177 412854,423177 409949,420272 408199,420278 406078,422400 405005,422400 399290,416684 399290,415611 401411,413490 401417,411740 398512,408835 398512,407763 400633,405641 400641,403893 395878,399130 394128,399135 392006,401257 390933,401257 387905,398229 387905,397156 397156,387905 398229,387905 401257,390933 401257,392006 "/>
   <path class="fil0 str1" d="M406280 390237c898,-898 2354,-899 3253,-1 898,899 898,2355 0,3253 -899,899 -2355,898 -3253,0 -898,-898 -898,-2354 0,-3252z"/>
   <path class="fil0 str1" d="M390237 406280c898,-899 2354,-898 3252,0 899,898 899,2354 0,3252 -898,899 -2354,898 -3252,0 -898,-898 -899,-2354 0,-3252z"/>
   <polygon class="fil0 str1" points="310888,447194 310008,448704 311751,455211 313269,456081 316167,455304 317097,455841 318160,459809 319678,460679 322576,459902 323505,460438 325597,468246 325060,469175 322162,469951 321283,471464 322346,475432 321810,476361 318911,477138 318032,478650 320079,486289 319542,487218 316565,488016 315635,487480 313589,479841 312071,478971 309173,479747 308243,479211 307180,475243 305662,474373 302764,475149 301835,474613 299743,466806 300279,465877 303178,465100 304057,463588 302994,459619 303531,458691 306429,457914 307309,456404 305565,449897 304047,449027 301149,449804 300220,449267 299112,445131 299648,444202 312285,440815 313214,441352 314322,445488 313786,446418 "/>
   <path class="fil0 str1" d="M319020 447397c1227,-329 2489,398 2818,1626 328,1227 -400,2488 -1627,2817 -1227,329 -2488,-400 -2817,-1627 -328,-1226 400,-2488 1626,-2816z"/>
   <path class="fil0 str1" d="M297105 453269c1227,-329 2488,399 2817,1626 329,1227 -399,2488 -1626,2817 -1227,329 -2488,-400 -2817,-1627 -329,-1227 399,-2488 1626,-2816z"/>
   <path class="fil0 str1" d="M312624 509061l-31222 0 0 0c-1816,-2 -3887,-553 -3910,-3918l1 -21249c0,-1649 -1351,-3000 -3000,-3000l-36448 0c-1886,0 -3553,870 -3553,3000l0 21249c-23,3333 -2055,3905 -3858,3917l-31280 0c-3227,2526 -7560,3558 -11823,2416 -4263,-1143 -7500,-4203 -9032,-8003l-98093 -56635c-4058,574 -8326,-699 -11447,-3820 -3121,-3120 -4394,-7389 -3820,-11446l-56635 -98094c-3801,-1532 -6860,-4769 -8003,-9032 -1142,-4263 -111,-8595 2415,-11822l0 -113270c-2525,-3227 -3557,-7560 -2415,-11823 1142,-4263 4202,-7499 8002,-9031l56636 -98095c-574,-4057 699,-8325 3820,-11446 3120,-3121 7388,-4394 11445,-3820l98095 -56634c1532,-3801 4768,-6861 9031,-8004 4263,-1142 8596,-110 11823,2415l113270 0c3227,-2525 7560,-3557 11823,-2415 4262,1142 7499,4202 9031,8002l98095 56636c4057,-574 8325,699 11446,3820 3120,3120 4393,7388 3820,11445l56635 98095c3800,1532 6860,4769 8002,9032 1142,4262 111,8595 -2414,11822l-1 113270c2526,3227 3558,7560 2415,11823 -1142,4263 -4202,7500 -8003,9031l-56634 98094c574,4057 -699,8326 -3820,11447 -3121,3120 -7389,4394 -11446,3820l-98094 56634c-1532,3801 -4769,6861 -9032,8003 -4263,1143 -8596,111 -11822,-2414z"/>
   <path class="fil0 str2" d="M265340 346366c0,-1712 1387,-3100 3100,-3100 1712,0 3100,1388 3100,3100 0,1712 -1388,3100 -3100,3100 -1713,0 -3100,-1388 -3100,-3100z"/>
   <path class="fil0 str2" d="M265340 360889c0,-1713 1387,-3100 3100,-3100 1712,0 3100,1387 3100,3100 0,1712 -1388,3100 -3100,3100 -1713,0 -3100,-1388 -3100,-3100z"/>
   <path class="fil0 str2" d="M265340 375411c0,-1712 1387,-3100 3100,-3100 1712,0 3100,1388 3100,3100 0,1713 -1388,3100 -3100,3100 -1713,0 -3100,-1387 -3100,-3100z"/>
   <path class="fil0 str2" d="M265340 389934c0,-1712 1387,-3100 3100,-3100 1712,0 3100,1388 3100,3100 0,1712 -1388,3100 -3100,3100 -1713,0 -3100,-1388 -3100,-3100z"/>
   <path class="fil0 str2" d="M240998 346366c0,-1712 1388,-3100 3100,-3100 1712,0 3100,1388 3100,3100 0,1712 -1388,3100 -3100,3100 -1712,0 -3100,-1388 -3100,-3100z"/>
   <path class="fil0 str2" d="M240998 360889c0,-1713 1388,-3100 3100,-3100 1712,0 3100,1387 3100,3100 0,1712 -1388,3100 -3100,3100 -1712,0 -3100,-1388 -3100,-3100z"/>
   <path class="fil0 str2" d="M240998 375411c0,-1712 1388,-3100 3100,-3100 1712,0 3100,1388 3100,3100 0,1713 -1388,3100 -3100,3100 -1712,0 -3100,-1387 -3100,-3100z"/>
   <path class="fil0 str2" d="M240998 389934c0,-1712 1388,-3100 3100,-3100 1712,0 3100,1388 3100,3100 0,1712 -1388,3100 -3100,3100 -1712,0 -3100,-1388 -3100,-3100z"/>
   <path class="fil0 str2" d="M253169 467968l0 -14706c0,-1705 1395,-3100 3100,-3100 1705,0 3100,1395 3100,3100l0 14706c0,1704 -1395,3100 -3100,3100 -1705,0 -3100,-1395 -3100,-3100z"/>
  </g>
  <g id="_1901424516832">
   <path class="fil0 str3" d="M959123 15989c132548,0 240000,107451 240000,239999 0,132549 -107452,240000 -240000,240000 -132548,0 -240000,-107451 -240000,-240000 0,-132548 107452,-239999 240000,-239999z"/>
   <path class="fil0 str0" d="M959123 251888c2264,0 4100,1836 4100,4100 0,2265 -1836,4100 -4100,4100 -2264,0 -4100,-1835 -4100,-4100 0,-2264 1836,-4100 4100,-4100z"/>
   <path class="fil0 str0" d="M959123 251888c2264,0 4100,1836 4100,4100 0,2265 -1836,4100 -4100,4100 -2264,0 -4100,-1835 -4100,-4100 0,-2264 1836,-4100 4100,-4100z"/>
   <circle class="fil0 str4" cx="994478" cy="291344" r="5000"/>
   <circle class="fil0 str4" cx="994478" cy="220633" r="5000"/>
   <circle class="fil0 str4" cx="923768" cy="220633" r="5000"/>
   <circle class="fil0 str4" cx="923768" cy="291344" r="5000"/>
  </g>
  <path class="fil0 str5" d="M253994 537336c0,-1712 1388,-3100 3100,-3100 1712,0 3100,1388 3100,3100 0,1712 -1388,3100 -3100,3100 -1712,0 -3100,-1388 -3100,-3100zm18600 32502c-911,0 -1650,-739 -1650,-1650 0,-912 738,-1650 1650,-1650 911,0 1650,738 1650,1650 0,911 -739,1650 -1650,1650zm-31000 31000c911,0 1650,-739 1650,-1650 0,-912 -739,-1650 -1650,-1650 -911,0 -1650,738 -1650,1650 0,911 739,1650 1650,1650zm0 -31000c911,0 1650,-739 1650,-1650 0,-912 -739,-1650 -1650,-1650 -911,0 -1650,738 -1650,1650 0,911 739,1650 1650,1650zm15500 -2650c9113,0 16500,7387 16500,16500 0,9113 -7387,16500 -16500,16500l0 0 0 0c-9113,0 -16500,-7387 -16500,-16500 0,-9113 7387,-16500 16500,-16500zm15500 33650c-912,0 -1650,-739 -1650,-1650 0,-912 738,-1650 1650,-1650 911,0 1650,738 1650,1650 0,911 -739,1650 -1650,1650zm5999 -53263l-12105 -9706c10,-177 16,-354 16,-533 0,-5197 -4213,-9410 -9410,-9410 -5197,0 -9410,4213 -9410,9410 0,156 4,312 12,466l-12101 9773c-2993,0 -5443,2449 -5443,5443l0 44508c0,4275 3243,7162 6236,7162l41412 0c2993,0 6236,-2887 6236,-7162l0 -44508c0,-2994 -2450,-5443 -5443,-5443z"/>
 </g>
</svg>
