<?xml version="1.0" encoding="UTF-8"?>
<!DOCTYPE svg PUBLIC "-//W3C//DTD SVG 1.1//EN" "http://www.w3.org/Graphics/SVG/1.1/DTD/svg11.dtd">
<!-- Creator: CorelDRAW X8 -->
<svg xmlns="http://www.w3.org/2000/svg" xml:space="preserve" width="38.5921in" height="14.419in" version="1.1" style="shape-rendering:geometricPrecision; text-rendering:geometricPrecision; image-rendering:optimizeQuality; fill-rule:evenodd; clip-rule:evenodd"
viewBox="0 0 38592 14419"
 xmlns:xlink="http://www.w3.org/1999/xlink">
 <defs>
  <style type="text/css">
   <![CDATA[
    .fil0 {fill:#2B2A29}
   ]]>
  </style>
 </defs>
 <g id="Layer_x0020_1">
  <metadata id="CorelCorpID_0Corel-Layer"/>
  <g id="_2650086643472">
   <path class="fil0" d="M11505 674c79,-33 116,-123 83,-201 -32,-78 -122,-116 -200,-83 -78,32 -116,122 -83,200 32,79 122,116 200,84zm1107 2002l15 -36 -64 -153 -36 -15 -109 45 -66 -27 -118 -285 28 -66 109 -45 15 -36 -47 -113 28 -67 109 -45 15 -36 -121 -291 -36 -15 -109 45 -67 -27 -47 -113 -36 -15 -109 45 -66 -27 -135 -324 -36 -15 -109 45 -15 36 135 324 -28 67 -109 45 -15 36 46 113 -27 66 -109 46 -15 36 120 291 36 15 109 -46 67 28 47 113 36 15 109 -46 67 28 118 284 -28 67 -109 45 -15 36 63 153 36 15 473 -196zm46 -386c45,-18 66,-69 47,-113 -18,-44 -69,-65 -113,-47 -44,18 -65,69 -47,113 19,44 69,65 113,47zm-825 342c44,-18 65,-69 47,-113 -18,-45 -69,-66 -113,-47 -44,18 -65,69 -47,113 18,44 69,65 113,47zm5087 -1958c78,32 168,-5 201,-84 32,-78 -5,-168 -84,-200 -78,-33 -168,5 -200,83 -33,78 5,168 83,201zm-633 2198l36 -15 63 -153 -15 -36 -109 -45 -28 -67 118 -284 66 -28 110 46 36 -15 46 -113 67 -28 109 46 36 -15 121 -291 -15 -36 -109 -46 -28 -66 47 -113 -15 -36 -109 -45 -28 -67 134 -324 -15 -36 -109 -45 -36 15 -134 324 -67 27 -109 -45 -36 15 -47 113 -67 27 -109 -45 -36 15 -120 291 15 36 109 45 28 67 -47 113 15 36 109 45 28 67 -118 284 -67 27 -109 -45 -36 15 -63 153 15 36 473 196zm305 -240c44,18 95,-3 113,-47 19,-44 -2,-95 -46,-113 -45,-19 -95,2 -114,47 -18,44 3,95 47,113zm-825 -342c44,18 95,-3 113,-47 19,-44 -2,-95 -47,-113 -44,-18 -95,3 -113,47 -18,44 3,95 47,113zm4982 2212c32,79 122,116 200,83 79,-32 116,-122 83,-200 -32,-79 -122,-116 -200,-83 -79,32 -116,122 -83,200zm-2003 1107l36 14 153 -63 15 -36 -45 -109 27 -67 285 -117 66 27 45 110 36 14 113 -46 67 27 45 110 36 14 291 -120 15 -36 -45 -109 27 -67 113 -47 15 -36 -45 -109 28 -67 324 -134 14 -36 -45 -109 -36 -15 -324 134 -66 -27 -46 -110 -36 -15 -113 47 -66 -28 -45 -109 -36 -15 -291 121 -15 36 45 109 -27 67 -114 47 -14 36 45 109 -28 67 -284 117 -67 -28 -45 -109 -36 -15 -152 64 -15 36 195 473zm386 46c19,44 69,65 113,47 45,-18 66,-69 47,-113 -18,-44 -69,-65 -113,-47 -44,18 -65,69 -47,113zm-342 -825c19,44 69,65 114,47 44,-18 65,-69 46,-113 -18,-45 -69,-65 -113,-47 -44,18 -65,69 -47,113zm1959 5087c-33,78 4,168 83,200 78,33 168,-4 200,-83 33,-78 -4,-168 -83,-200 -78,-33 -168,5 -200,83zm-2198 -634l15 36 152 64 36 -15 45 -109 67 -28 284 118 28 66 -45 109 14 36 114 47 27 67 -45 109 15 36 291 121 36 -15 45 -109 66 -28 113 47 36 -15 46 -109 66 -28 324 134 36 -15 45 -109 -14 -36 -324 -134 -28 -67 45 -109 -15 -36 -113 -47 -27 -67 45 -109 -15 -36 -291 -120 -36 15 -45 109 -67 27 -113 -46 -36 15 -45 109 -66 27 -285 -117 -27 -67 45 -109 -15 -36 -153 -63 -36 14 -195 473zm239 306c-18,44 3,95 47,113 44,19 95,-2 113,-47 19,-44 -2,-94 -46,-113 -45,-18 -95,3 -114,47zm342 -825c-18,44 3,95 47,113 44,18 95,-3 113,-47 19,-44 -2,-95 -47,-113 -44,-18 -94,3 -113,47zm-2212 4982c-78,32 -116,122 -83,200 32,78 122,116 201,83 78,-32 115,-122 83,-200 -33,-79 -123,-116 -201,-83zm-1106 -2003l-15 36 63 153 36 15 109 -45 67 27 118 285 -28 66 -109 45 -15 36 47 113 -28 67 -109 45 -15 36 120 291 36 15 109 -45 67 27 47 113 36 15 109 -45 67 27 134 324 36 15 109 -45 15 -36 -134 -324 28 -67 109 -45 15 -36 -47 -113 28 -66 109 -46 15 -36 -121 -291 -36 -14 -109 45 -67 -28 -46 -113 -36 -15 -110 46 -66 -28 -118 -284 28 -67 109 -45 15 -36 -63 -153 -36 -15 -473 196zm-47 386c-44,18 -65,69 -47,113 18,44 69,65 113,47 45,-18 66,-69 47,-113 -18,-44 -69,-65 -113,-47zm825 -342c-44,19 -65,69 -47,113 19,45 69,66 114,47 44,-18 65,-69 46,-113 -18,-44 -69,-65 -113,-47zm-5087 1959c-78,-33 -168,4 -200,83 -33,78 5,168 83,200 78,33 168,-5 200,-83 33,-78 -4,-168 -83,-200zm634 -2199l-36 15 -63 153 15 36 109 45 27 67 -117 284 -67 28 -109 -46 -36 15 -47 113 -67 28 -109 -45 -36 14 -120 291 15 36 109 46 27 66 -46 113 15 36 109 45 28 67 -135 324 15 36 109 45 36 -15 135 -324 66 -27 109 45 36 -15 47 -113 67 -27 109 45 36 -15 121 -291 -15 -36 -109 -45 -28 -67 47 -113 -15 -36 -109 -45 -28 -67 118 -284 66 -27 109 45 36 -15 64 -153 -15 -36 -473 -196zm-306 240c-44,-18 -95,3 -113,47 -18,44 3,95 47,113 44,19 95,-2 113,-47 18,-44 -3,-94 -47,-113zm825 342c-44,-18 -94,3 -113,47 -18,44 3,95 47,113 44,18 95,-3 113,-47 19,-44 -2,-95 -47,-113zm-4981 -2212c-33,-78 -123,-116 -201,-83 -78,32 -115,122 -83,200 33,79 122,116 201,83 78,-32 115,-122 83,-200zm2002 -1107l-36 -14 -153 63 -15 36 45 109 -27 67 -284 118 -67 -28 -45 -109 -36 -15 -113 46 -67 -27 -45 -109 -36 -15 -291 120 -15 36 45 109 -27 67 -113 47 -15 36 45 109 -27 67 -324 134 -15 36 45 109 36 15 324 -134 67 28 45 109 36 15 113 -47 67 28 45 109 36 15 291 -121 15 -36 -46 -109 28 -67 113 -47 15 -36 -45 -109 27 -66 284 -118 67 28 45 109 36 15 153 -64 15 -36 -196 -473zm-386 -46c-18,-44 -69,-65 -113,-47 -44,18 -65,69 -47,113 18,44 69,65 113,47 44,-18 65,-69 47,-113zm342 825c-18,-44 -69,-65 -113,-47 -44,19 -65,69 -47,113 18,45 69,66 113,47 44,-18 65,-69 47,-113zm-1958 -5087c32,-78 -5,-168 -83,-200 -79,-33 -168,4 -201,83 -32,78 5,168 83,200 78,33 168,-4 201,-83zm2198 634l-15 -36 -153 -64 -36 15 -45 109 -67 28 -284 -117 -27 -67 45 -109 -15 -36 -113 -47 -28 -67 46 -109 -15 -36 -291 -121 -36 15 -45 109 -67 28 -113 -47 -36 15 -45 110 -67 27 -324 -134 -36 15 -45 109 15 36 324 134 27 67 -45 109 15 36 113 47 27 67 -45 109 15 36 291 120 36 -14 45 -110 67 -27 113 46 36 -14 45 -110 67 -27 284 117 27 67 -45 109 15 36 153 64 36 -15 196 -473zm-240 -306c18,-44 -3,-95 -47,-113 -44,-19 -95,2 -113,47 -18,44 3,95 47,113 44,18 95,-3 113,-47zm-342 825c18,-44 -3,-95 -47,-113 -44,-18 -95,3 -113,47 -18,44 3,95 47,113 44,18 95,-3 113,-47zm4920 1401c85,0 153,69 153,154 0,84 -68,153 -153,153 -85,0 -154,-69 -154,-153 0,-85 69,-154 154,-154zm-3297 6867l-3417 -3417c-195,-13 -375,-134 -455,-327 -80,-193 -38,-406 91,-554l0 -4832c-129,-147 -171,-360 -91,-553 80,-193 260,-314 456,-327l3416 -3417c13,-195 134,-375 327,-455 193,-80 406,-38 554,91l4832 0c147,-129 360,-171 553,-91 193,80 314,260 327,455l3417 3417c195,13 376,134 456,327 80,193 37,406 -91,553l0 4833c128,147 171,360 91,553 -80,193 -261,314 -456,327l-3417 3417c-13,195 -134,375 -327,455 -193,80 -406,38 -553,-91l-1416 0c-71,0 -153,-21 -154,-154l0 -836c0,-65 -53,-118 -118,-118l-22 0c-41,0 -78,-21 -78,-74l2 -884c0,-87 -71,-158 -158,-158 -61,0 -114,35 -140,86 -18,35 -17,33 -77,33l-68 0c-23,0 -32,-8 -32,-31l0 -294 0 -560c0,-23 9,-30 32,-30l68 0c60,0 59,-3 77,33 26,51 79,85 140,85 87,0 158,-70 158,-157 0,-87 -71,-158 -158,-158l-472 0 -473 0c-87,0 -157,71 -157,158 0,87 70,157 157,157 61,0 114,-34 140,-85 19,-36 18,-33 77,-33l68 0c23,0 33,7 33,31l0 559 0 294c0,23 -10,31 -33,31l-68 0c-59,0 -58,2 -77,-33 -26,-51 -79,-86 -140,-86 -87,0 -157,71 -157,158l2 884c0,53 -38,74 -79,74l-22 0c-65,0 -118,53 -118,118l0 836c-1,133 -82,154 -154,154l-1415 0c-148,129 -361,171 -554,91 -193,-80 -314,-260 -327,-455z"/>
   <path class="fil0" d="M31899 7056c85,0 154,69 154,153 0,85 -69,154 -154,154 -85,0 -153,-69 -153,-154 0,-84 68,-153 153,-153zm0 -6539c3697,0 6693,2996 6693,6692 0,3697 -2996,6693 -6693,6693 -3696,0 -6693,-2996 -6693,-6693 0,-3696 2997,-6692 6693,-6692z"/>
   <path class="fil0" d="M815 5540l613 0c41,0 78,20 78,73l0 294c0,24 -9,31 -32,31l-68 0c-60,0 -58,3 -77,-33 -26,-51 -79,-85 -140,-85 -87,0 -157,70 -157,157 0,87 70,158 157,158l473 0 472 0c87,0 157,-71 157,-158 0,-87 -70,-157 -157,-157 -61,0 -114,34 -140,85 -19,36 -17,33 -77,33l-68 0c-23,0 -32,-7 -32,-31l0 -294c0,-53 37,-73 78,-73l613 0c118,0 174,103 214,214l548 1500c67,183 77,137 -8,310l-540 1101c-52,106 -96,214 -214,214l-847 0 -846 0c-118,0 -162,-108 -214,-214l-540 -1101c-85,-173 -75,-127 -8,-310l548 -1500c40,-111 96,-214 214,-214zm236 1692c36,0 65,-29 65,-65 0,-36 -29,-65 -65,-65 -36,0 -65,29 -65,65 0,36 29,65 65,65zm0 1221c36,0 65,-29 65,-65 0,-36 -29,-65 -65,-65 -36,0 -65,29 -65,65 0,36 29,65 65,65zm1221 0c36,0 65,-29 65,-65 0,-36 -29,-65 -65,-65 -36,0 -65,29 -65,65 0,36 29,65 65,65zm0 -1221c36,0 65,-29 65,-65 0,-36 -29,-65 -65,-65 -36,0 -65,29 -65,65 0,36 29,65 65,65zm-611 -104c359,0 650,291 650,650 0,358 -291,649 -650,649 -358,0 -649,-291 -649,-649 0,-359 291,-650 649,-650z"/>
  </g>
 </g>
</svg>
