<?xml version="1.0" encoding="UTF-8"?>
<!DOCTYPE svg PUBLIC "-//W3C//DTD SVG 1.1//EN" "http://www.w3.org/Graphics/SVG/1.1/DTD/svg11.dtd">
<!-- Creator: CorelDRAW X7 -->
<svg xmlns="http://www.w3.org/2000/svg" xml:space="preserve" width="1900mm" height="1000mm" version="1.1" style="shape-rendering:geometricPrecision; text-rendering:geometricPrecision; image-rendering:optimizeQuality; fill-rule:evenodd; clip-rule:evenodd"
viewBox="0 0 190000 100000"
 xmlns:xlink="http://www.w3.org/1999/xlink">
 <defs>
  <style type="text/css">
   <![CDATA[
    .fil0 {fill:#FEFEFE}
    .fil1 {fill:#D80003}
   ]]>
  </style>
 </defs>
 <g id="Layer_x0020_1">
  <metadata id="CorelCorpID_0Corel-Layer"/>
  <rect class="fil0" width="190000" height="100000"/>
  <path class="fil1" d="M66329 33399c199,-83 294,-311 211,-510 -82,-199 -310,-293 -509,-211 -199,83 -293,311 -211,510 82,199 311,293 509,211zm2811 5085l37 -91 -160 -388 -92 -38 -277 115 -169 -70 -300 -722 71 -169 277 -115 38 -91 -119 -287 71 -169 277 -115 38 -92 -306 -739 -92 -38 -277 115 -169 -70 -119 -287 -92 -38 -277 115 -169 -69 -341 -823 -92 -38 -277 115 -38 91 341 823 -71 169 -277 115 -38 91 119 288 -70 169 -278 114 -37 92 306 739 91 38 277 -115 170 70 119 287 91 38 277 -115 170 69 299 723 -71 169 -277 115 -38 91 161 388 92 38 1201 -498zm118 -979c112,-47 166,-176 119,-288 -46,-112 -175,-166 -287,-119 -113,46 -166,175 -119,287 46,113 175,166 287,120zm-2096 868c112,-47 165,-175 119,-288 -47,-112 -175,-165 -287,-119 -113,47 -166,175 -120,288 47,112 176,165 288,119zm12921 -4974c198,82 427,-12 509,-211 82,-199 -12,-427 -211,-510 -199,-82 -427,12 -509,211 -83,199 12,427 211,510zm-1610 5583l92 -38 161 -388 -38 -91 -277 -115 -71 -169 299 -723 170 -69 277 115 91 -38 119 -287 170 -70 277 115 91 -38 306 -739 -37 -92 -278 -114 -70 -169 119 -288 -38 -91 -277 -115 -71 -169 341 -823 -38 -91 -277 -115 -92 38 -341 823 -169 69 -277 -115 -92 38 -119 288 -169 69 -277 -115 -92 38 -306 739 38 92 277 115 71 169 -119 287 38 91 277 115 71 169 -300 723 -169 69 -277 -115 -92 38 -160 388 37 91 1201 498zm777 -609c112,46 241,-7 288,-119 46,-113 -7,-241 -120,-288 -112,-46 -240,7 -287,119 -46,113 7,241 119,288zm-2096 -868c112,46 241,-7 287,-120 47,-112 -6,-240 -119,-287 -112,-47 -241,7 -287,119 -47,112 7,241 119,288zm12653 5619c83,199 311,293 510,211 199,-83 293,-311 211,-510 -83,-199 -311,-293 -510,-211 -199,83 -293,311 -211,510zm-5085 2810l91 38 388 -161 38 -92 -115 -277 70 -169 722 -300 169 71 115 277 91 38 288 -119 169 71 114 277 92 38 739 -306 38 -92 -115 -277 70 -169 287 -119 38 -92 -115 -277 69 -169 824 -341 37 -92 -114 -277 -92 -38 -823 341 -169 -70 -115 -278 -91 -38 -287 119 -169 -70 -115 -277 -92 -38 -739 306 -38 91 115 277 -69 170 -288 119 -38 91 115 278 -69 169 -723 299 -169 -70 -114 -278 -92 -37 -388 160 -38 92 498 1201zm980 118c46,112 175,166 287,119 112,-46 166,-175 119,-287 -46,-112 -175,-166 -287,-119 -113,46 -166,175 -119,287zm-869 -2096c47,112 176,166 288,119 112,-46 165,-175 119,-287 -47,-113 -175,-166 -288,-119 -112,46 -165,175 -119,287zm4974 12921c-82,199 13,427 211,509 199,82 427,-12 510,-211 82,-199 -12,-427 -211,-509 -199,-83 -427,12 -510,211zm-5583 -1609l38 91 388 161 92 -38 114 -277 169 -71 723 299 69 170 -115 277 38 91 287 119 70 170 -115 277 38 91 739 307 92 -38 115 -277 169 -71 287 119 91 -38 115 -277 169 -71 823 341 92 -38 114 -277 -37 -92 -824 -340 -69 -170 115 -277 -38 -92 -287 -119 -70 -169 115 -277 -38 -92 -739 -306 -92 38 -114 277 -169 71 -288 -119 -91 38 -115 277 -169 71 -722 -300 -70 -169 115 -277 -38 -92 -388 -160 -91 38 -498 1201zm609 776c-46,112 7,241 119,288 113,46 241,-7 288,-119 46,-113 -7,-241 -119,-288 -112,-46 -241,7 -288,119zm869 -2096c-47,112 6,241 119,288 112,46 241,-7 287,-120 47,-112 -7,-240 -119,-287 -112,-46 -241,7 -287,119zm-5619 12654c-199,82 -294,310 -211,509 82,199 310,293 509,211 199,-82 293,-310 211,-509 -82,-199 -310,-294 -509,-211zm-2811 -5086l-37 91 160 388 92 38 277 -115 169 70 300 722 -71 169 -277 115 -38 91 119 288 -71 169 -277 115 -38 91 306 739 92 38 277 -115 169 70 119 287 92 38 277 -115 169 70 341 823 92 38 277 -115 38 -92 -341 -823 71 -169 277 -115 38 -91 -119 -287 70 -169 278 -115 37 -92 -306 -739 -91 -38 -277 115 -170 -69 -119 -288 -91 -37 -277 114 -170 -69 -299 -723 71 -168 277 -115 38 -92 -161 -388 -92 -38 -1201 498zm-118 980c-112,46 -166,175 -119,287 46,112 175,166 287,119 113,-46 166,-175 119,-287 -46,-112 -175,-166 -287,-119zm2096 -868c-112,46 -165,175 -119,287 47,112 175,166 287,119 113,-46 166,-175 120,-287 -47,-113 -176,-166 -288,-119zm-12921 4974c-198,-83 -427,12 -509,211 -82,199 12,427 211,509 199,82 427,-12 510,-211 82,-199 -13,-427 -212,-509zm1610 -5584l-92 38 -161 388 38 92 277 114 71 170 -299 722 -170 69 -277 -114 -91 37 -119 288 -170 69 -277 -115 -91 38 -306 739 37 92 278 115 70 169 -119 287 38 91 277 115 71 169 -341 823 38 92 277 115 92 -38 341 -823 169 -70 277 115 92 -38 119 -287 169 -70 277 115 92 -38 306 -739 -38 -91 -277 -115 -71 -169 119 -288 -38 -91 -277 -115 -71 -169 300 -722 169 -70 277 115 92 -38 160 -388 -37 -91 -1201 -498zm-777 609c-112,-46 -241,7 -288,120 -46,112 7,241 120,287 112,47 240,-7 287,-119 46,-112 -7,-241 -119,-288zm2096 869c-112,-47 -241,7 -287,119 -47,112 6,241 119,287 112,47 241,-7 287,-119 47,-112 -7,-241 -119,-287zm-12653 -5619c-83,-199 -311,-294 -510,-211 -199,82 -293,310 -211,509 83,199 311,293 510,211 199,-82 293,-310 211,-509zm5085 -2810l-91 -38 -388 160 -38 92 115 277 -70 170 -722 299 -169 -71 -115 -277 -91 -38 -288 119 -169 -71 -114 -277 -92 -38 -739 306 -38 92 115 277 -70 169 -287 119 -38 92 115 277 -69 170 -824 340 -37 92 114 277 92 38 823 -341 169 71 115 277 91 38 287 -119 170 70 114 278 92 38 739 -307 38 -91 -115 -277 70 -170 287 -119 38 -91 -115 -277 69 -170 723 -299 169 71 114 277 92 38 388 -161 38 -91 -498 -1201zm-980 -119c-46,-112 -175,-165 -287,-119 -112,47 -166,175 -119,287 46,113 175,166 287,120 113,-47 166,-176 119,-288zm869 2096c-47,-112 -176,-165 -288,-119 -112,47 -165,175 -119,288 47,112 175,165 288,119 112,-47 165,-176 119,-288zm-4974 -12920c82,-199 -12,-427 -211,-510 -199,-82 -427,12 -510,211 -82,199 12,427 211,510 199,82 427,-12 510,-211zm5583 1609l-38 -92 -388 -161 -92 38 -114 278 -169 70 -723 -299 -69 -169 115 -278 -38 -91 -287 -119 -70 -170 115 -277 -38 -91 -739 -306 -92 38 -115 277 -169 70 -287 -119 -91 38 -115 278 -169 70 -823 -341 -92 38 -114 277 37 92 824 341 69 169 -115 277 38 92 287 119 70 169 -115 277 38 92 739 306 92 -38 114 -277 169 -71 288 119 91 -38 115 -277 169 -70 722 299 70 169 -115 277 38 92 388 161 91 -38 498 -1201zm-609 -777c46,-112 -7,-241 -119,-287 -113,-47 -241,6 -288,119 -46,112 7,241 119,287 112,47 241,-7 288,-119zm-869 2096c47,-112 -6,-241 -119,-287 -112,-47 -241,7 -287,119 -47,112 7,241 119,287 112,47 241,-7 287,-119zm12496 3558c215,0 390,175 390,390 0,216 -175,390 -390,390 -215,0 -390,-174 -390,-390 0,-215 175,-390 390,-390zm-8373 17442l-8679 -8679c-496,-34 -954,-340 -1157,-831 -203,-490 -96,-1031 231,-1405l0 -12274c-327,-374 -434,-915 -231,-1405 203,-491 662,-798 1158,-831l8678 -8679c33,-495 340,-954 831,-1157 490,-203 1031,-96 1406,231l12273 0c374,-327 915,-434 1405,-231 491,203 798,662 831,1158l8679 8678c495,33 954,340 1157,831 203,490 96,1031 -231,1405l0 12274c327,374 434,915 231,1405 -203,491 -662,798 -1157,831l-8679 8679c-34,496 -340,954 -831,1157 -490,203 -1031,96 -1405,-231l-3596 0c-182,0 -389,-55 -391,-392l0 -2125c0,-165 -135,-300 -300,-300l-55 0c-105,0 -200,-53 -200,-187l5 -2245c0,-221 -179,-400 -400,-400 -155,0 -289,88 -356,216 -47,91 -43,84 -195,84l-173 0c-58,0 -82,-19 -82,-78l0 -746 0 -1421c0,-60 24,-79 82,-79l173 0c152,0 148,-7 195,84 67,129 201,217 356,217 221,0 400,-179 400,-400 0,-221 -179,-400 -400,-400l-1200 0 -1200 0c-221,0 -400,179 -400,400 0,221 179,400 400,400 155,0 289,-88 356,-217 47,-91 44,-84 195,-84l173 0c59,0 82,19 82,79l0 1421 0 746c0,59 -23,78 -82,78l-173 0c-151,0 -148,7 -195,-84 -67,-128 -201,-216 -356,-216 -221,0 -400,179 -400,400l5 2245c0,134 -95,187 -200,187l-55 0c-165,0 -300,135 -300,300l0 2125c-2,337 -210,392 -392,392l-3595 0c-374,327 -915,434 -1405,231 -491,-203 -798,-662 -831,-1157z"/>
  <path class="fil1" d="M118130 49610c215,0 390,175 390,390 0,215 -175,390 -390,390 -216,0 -390,-175 -390,-390 0,-215 174,-390 390,-390zm0 -16610c9389,0 17000,7611 17000,17000 0,9389 -7611,17000 -17000,17000 -9389,0 -17000,-7611 -17000,-17000 0,-9389 7611,-17000 17000,-17000z"/>
  <path class="fil1" d="M39176 45758l1556 0c105,0 200,53 200,188l0 746c0,59 -24,79 -82,79l-173 0c-152,0 -148,6 -195,-85 -67,-128 -201,-216 -356,-216 -221,0 -400,179 -400,400 0,221 179,400 400,400l1200 0 1200 0c221,0 400,-179 400,-400 0,-221 -179,-400 -400,-400 -155,0 -289,88 -356,216 -47,91 -44,85 -195,85l-173 0c-59,0 -82,-20 -82,-79l0 -746c0,-135 95,-188 200,-188l1556 0c299,0 441,264 544,545l1391 3810c170,466 197,348 -19,788l-1372 2796c-132,269 -245,545 -544,545l-2150 0 -2150 0c-299,0 -413,-276 -544,-545l-1372 -2796c-216,-440 -189,-322 -19,-788l1391 -3810c102,-281 245,-545 544,-545zm600 4300c91,0 165,-74 165,-165 0,-91 -74,-165 -165,-165 -91,0 -165,74 -165,165 0,91 74,165 165,165zm0 3100c91,0 165,-74 165,-165 0,-91 -74,-165 -165,-165 -91,0 -165,74 -165,165 0,91 74,165 165,165zm3100 0c91,0 165,-74 165,-165 0,-91 -74,-165 -165,-165 -91,0 -165,74 -165,165 0,91 74,165 165,165zm0 -3100c91,0 165,-74 165,-165 0,-91 -74,-165 -165,-165 -91,0 -165,74 -165,165 0,91 74,165 165,165zm-1550 -265c911,0 1650,739 1650,1650 0,911 -739,1650 -1650,1650 -911,0 -1650,-739 -1650,-1650 0,-911 739,-1650 1650,-1650z"/>
  <path class="fil1" d="M147894 45000c2762,0 5000,2239 5000,5000 0,2761 -2238,5000 -5000,5000 -2761,0 -5000,-2239 -5000,-5000 0,-2761 2239,-5000 5000,-5000zm0 4050c525,0 950,425 950,950 0,525 -425,950 -950,950 -524,0 -950,-425 -950,-950 0,-525 426,-950 950,-950z"/>
 </g>
</svg>
