<?xml version="1.0" encoding="UTF-8"?>
<!DOCTYPE svg PUBLIC "-//W3C//DTD SVG 1.1//EN" "http://www.w3.org/Graphics/SVG/1.1/DTD/svg11.dtd">
<!-- Creator: CorelDRAW X7 -->
<svg xmlns="http://www.w3.org/2000/svg" xml:space="preserve" width="4961px" height="3508px" version="1.1" shape-rendering="geometricPrecision" text-rendering="geometricPrecision" image-rendering="optimizeQuality" fill-rule="evenodd" clip-rule="evenodd"
viewBox="0 0 496100 350814"
 xmlns:xlink="http://www.w3.org/1999/xlink">
 <g id="Layer_x0020_1">
  <metadata id="CorelCorpID_0Corel-Layer"/>
  <rect fill="white" width="496100" height="350814"/>
  <g id="_1638701104240">
   <path fill="#4D4D4D" d="M386961 197831c-1141,0 -2067,925 -2067,2067 0,1142 926,2067 2067,2067 1142,0 2067,-925 2067,-2067 0,-1142 -925,-2067 -2067,-2067zm30706 0c-1142,0 -2067,925 -2067,2067 0,1142 925,2067 2067,2067 1141,0 2067,-925 2067,-2067 0,-1142 -926,-2067 -2067,-2067zm-97159 -92051c0,-1141 926,-2067 2067,-2067 1142,0 2067,926 2067,2067 0,1142 -925,2068 -2067,2068 -1141,0 -2067,-926 -2067,-2068zm-37798 0c0,-1141 925,-2067 2067,-2067 1142,0 2067,926 2067,2067 0,1142 -925,2068 -2067,2068 -1142,0 -2067,-926 -2067,-2068zm117267 0c0,-1141 925,-2067 2067,-2067 1141,0 2067,926 2067,2067 0,1142 -926,2068 -2067,2068 -1142,0 -2067,-926 -2067,-2068zm-37798 0c0,-1141 925,-2067 2067,-2067 1141,0 2067,926 2067,2067 0,1142 -926,2068 -2067,2068 -1142,0 -2067,-926 -2067,-2068zm-18638 54575c1142,0 2067,-925 2067,-2067 0,-1141 -925,-2067 -2067,-2067 -1141,0 -2067,926 -2067,2067 0,1142 926,2067 2067,2067zm-59059 0c1141,0 2067,-925 2067,-2067 0,-1141 -926,-2067 -2067,-2067 -1142,0 -2067,926 -2067,2067 0,1142 925,2067 2067,2067zm59059 -31301c1142,0 2067,-926 2067,-2067 0,-1142 -925,-2067 -2067,-2067 -1141,0 -2067,925 -2067,2067 0,1141 926,2067 2067,2067zm-59059 0c1141,0 2067,-926 2067,-2067 0,-1142 -926,-2067 -2067,-2067 -1142,0 -2067,925 -2067,2067 0,1141 925,2067 2067,2067zm39813 42856c-1142,0 -2067,925 -2067,2067 0,1142 925,2067 2067,2067 1141,0 2067,-925 2067,-2067 0,-1142 -926,-2067 -2067,-2067zm53744 0c-1142,0 -2067,925 -2067,2067 0,1142 925,2067 2067,2067 1141,0 2067,-925 2067,-2067 0,-1142 -926,-2067 -2067,-2067zm-53744 40160c-1142,0 -2067,926 -2067,2068 0,1141 925,2067 2067,2067 1141,0 2067,-926 2067,-2067 0,-1142 -926,-2068 -2067,-2068zm53744 0c-1142,0 -2067,926 -2067,2068 0,1141 925,2067 2067,2067 1141,0 2067,-926 2067,-2067 0,-1142 -926,-2068 -2067,-2068zm38835 -129553c2609,0 4725,-2115 4725,-4724 0,-2610 -2116,-4725 -4725,-4725 -2609,0 -4725,2115 -4724,4724 -1,2610 2115,4725 4724,4725zm-146927 0c2609,0 4724,-2115 4724,-4724 1,-2610 -2115,-4725 -4724,-4725 -2610,0 -4725,2115 -4725,4724 0,2610 2115,4725 4725,4725zm0 146928c2609,0 4724,-2115 4724,-4725 1,-2609 -2115,-4725 -4724,-4724 -2610,-1 -4725,2115 -4725,4724 0,2610 2115,4725 4725,4725zm146927 0c2609,0 4725,-2115 4725,-4725 0,-2609 -2116,-4725 -4725,-4724 -2609,-1 -4725,2115 -4724,4724 -1,2610 2115,4725 4724,4725zm-138161 -41514c-1141,0 -2067,925 -2067,2067 0,1141 926,2067 2067,2067 1142,0 2067,-926 2067,-2067 0,-1142 -925,-2067 -2067,-2067zm7087 -21852c-1141,0 -2067,925 -2067,2067 0,1141 926,2067 2067,2067 1142,0 2068,-926 2068,-2067 0,-1142 -926,-2067 -2068,-2067zm0 47247c-1141,0 -2067,926 -2067,2067 0,1142 926,2067 2067,2067 1142,0 2068,-925 2068,-2067 0,-1141 -926,-2067 -2068,-2067zm79817 -82205c-1142,0 -2067,925 -2067,2067 0,1142 925,2067 2067,2067 1141,0 2067,-925 2067,-2067 0,-1142 -926,-2067 -2067,-2067zm0 27167c-1142,0 -2067,926 -2067,2067 0,1142 925,2067 2067,2067 1141,0 2067,-925 2067,-2067 0,-1141 -926,-2067 -2067,-2067zm55516 -27167l0 0c-1137,0 -2067,932 -2067,2067l0 3420c0,1135 930,2067 2067,2067l0 0c1137,0 2067,-930 2067,-2067l0 -3420c0,-1137 -930,-2067 -2067,-2067zm0 23683l0 0c-1137,0 -2067,932 -2067,2067l0 3420c0,1135 930,2067 2067,2067l0 0c1137,0 2067,-930 2067,-2067l0 -3420c0,-1137 -930,-2067 -2067,-2067zm-88649 -62017c-1141,0 -2067,926 -2067,2067 0,1142 926,2068 2067,2068 1142,0 2068,-926 2068,-2068 0,-1141 -926,-2067 -2068,-2067zm21852 0c-1141,0 -2067,926 -2067,2067 0,1142 926,2068 2067,2068 1142,0 2068,-926 2068,-2068 0,-1141 -926,-2067 -2068,-2067zm40811 141153l-34491 0 0 3543 34491 0 0 -3543zm-68982 0l-34491 0 0 3543 34491 0 0 -3543zm103472 -33074l0 -33073 -3543 0 0 33073 3543 0zm0 -75577l0 -23643 -3543 0 0 23643 3543 0zm-34490 -60260l-34491 0 0 3544 34491 0 0 -3544zm-68982 0l-34491 0 0 3544 34491 0 0 -3544zm-68981 36617l0 33074 3543 0 0 -33074 -3543 0zm0 83332l0 12402 3543 0 0 -12402 -3543 0zm-1 -125264l172454 0c2924,0 5316,2392 5316,5315l0 68706 0 2141c0,1177 -963,2140 -2140,2140l-4711 0c-1233,0 -2244,1003 -2244,2235l0 13041c0,1240 1001,2220 2235,2235l4720 0c1177,0 2140,963 2140,2140l0 2141 0 77675c0,2924 -2392,5316 -5316,5316l-172454 0c-2923,0 -5315,-2392 -5315,-5316l0 -172454c0,-2923 2392,-5315 5315,-5315z"/>
   <path fill="#4D4D4D" d="M259509 294643l172454 0 0 -40829 -34491 0 0 -3544 -34490 0 0 3544 -34491 0 0 -3544 -34491 0 0 3544 -34491 0 0 40829zm44367 -18347c-1142,0 -2068,-926 -2068,-2067 0,-1142 926,-2067 2068,-2067 1141,0 2067,925 2067,2067 0,1141 -926,2067 -2067,2067zm83721 0c-1142,0 -2067,-926 -2067,-2067 0,-1142 925,-2067 2067,-2067 1142,0 2067,925 2067,2067 0,1141 -925,2067 -2067,2067z"/>
   <path fill="#4D4D4D" d="M259509 7869l172454 0 0 40830 -34491 0 0 3543 -34490 0 0 -3543 -11340 0 0 -7087c0,-3249 -2658,-5906 -5906,-5906l0 0c-3248,0 -5906,2657 -5906,5906l0 7087 -11339 0 0 3543 -34491 0 0 -3543 -34491 0 0 -40830zm21127 24438l18839 0c1810,0 3290,1481 3290,3290l0 6235c0,1809 -1480,3289 -3290,3289l-18839 0c-1809,0 -3289,-1480 -3289,-3289l0 -6235c0,-1809 1480,-3290 3289,-3290zm79469 0l18839 0c1809,0 3290,1481 3290,3290l0 6235c0,1809 -1481,3289 -3290,3289l-18839 0c-1809,0 -3290,-1480 -3290,-3289l0 -6235c0,-1809 1481,-3290 3290,-3290z"/>
   <path fill="#4D4D4D" d="M199859 233940l0 -165367 40829 0 0 33073 3544 0 0 33074 -3544 0 0 38446 -7087 0c-3248,0 -5906,2657 -5906,5906l0 0c0,3248 2658,5906 5906,5906l7087 0 3544 0 0 12402 -3544 0 -6496 0c-2924,0 -5316,2392 -5316,5315l0 1c0,2923 2392,5315 5316,5315l6496 0 0 25929 -40829 0zm34589 -115455c-1142,0 -2067,926 -2067,2068 0,1141 925,2067 2067,2067 1142,0 2067,-926 2067,-2067 0,-1142 -925,-2068 -2067,-2068zm-14174 -28643c9133,0 16536,7403 16536,16536 0,9133 -7403,16537 -16536,16537 -9133,0 -16537,-7404 -16537,-16537 0,-9133 7404,-16536 16537,-16536zm-14175 295c-1141,0 -2067,925 -2067,2067 0,1142 926,2067 2067,2067 1142,0 2067,-925 2067,-2067 0,-1142 -925,-2067 -2067,-2067zm28349 0c-1142,0 -2067,925 -2067,2067 0,1142 925,2067 2067,2067 1142,0 2067,-925 2067,-2067 0,-1142 -925,-2067 -2067,-2067zm-28349 28348c-1141,0 -2067,926 -2067,2068 0,1141 926,2067 2067,2067 1142,0 2067,-926 2067,-2067 0,-1142 -925,-2068 -2067,-2068z"/>
   <path fill="#4D4D4D" d="M446132 167793l-3543 0 0 33073 3543 0 0 33074 40830 0 0 -165367 -40830 0 0 33073 -3543 0 0 23643 3543 0 0 12727 4928 0c1230,0 2236,1006 2236,2235l0 13041c0,1229 -1006,2235 -2236,2235l-4928 0 0 12266zm34589 -49308c-1141,0 -2067,926 -2067,2068 0,1141 926,2067 2067,2067 1142,0 2067,-926 2067,-2067 0,-1142 -925,-2068 -2067,-2068zm-14174 -28643c9133,0 16537,7403 16537,16536 0,9133 -7404,16537 -16537,16537 -9133,0 -16537,-7404 -16537,-16537 0,-9133 7404,-16536 16537,-16536zm-14174 295c-1142,0 -2067,925 -2067,2067 0,1142 925,2067 2067,2067 1141,0 2067,-925 2067,-2067 0,-1142 -926,-2067 -2067,-2067zm28348 0c-1141,0 -2067,925 -2067,2067 0,1142 926,2067 2067,2067 1142,0 2067,-925 2067,-2067 0,-1142 -925,-2067 -2067,-2067zm-28348 28348c-1142,0 -2067,926 -2067,2068 0,1141 925,2067 2067,2067 1141,0 2067,-926 2067,-2067 0,-1142 -926,-2068 -2067,-2068z"/>
   <path fill="#4D4D4D" d="M314415 342945l25120 0 0 -3544 12402 0 0 3544 25121 0c11228,0 20414,-9187 20414,-20415l0 0c0,-11228 -9186,-20415 -20414,-20415l-62643 0c-11228,0 -20415,9187 -20415,20415l0 0c0,11228 9187,20415 20415,20415zm-10539 -18348c-1142,0 -2068,-926 -2068,-2067 0,-1142 926,-2067 2068,-2067 1141,0 2067,925 2067,2067 0,1141 -926,2067 -2067,2067zm83721 0c-1142,0 -2067,-926 -2067,-2067 0,-1142 925,-2067 2067,-2067 1142,0 2067,925 2067,2067 0,1141 -925,2067 -2067,2067z"/>
   <path fill="#4D4D4D" d="M171987 267732c2609,0 4724,2115 4724,4725 0,2609 -2115,4724 -4724,4724 -2610,0 -4725,-2115 -4725,-4724 0,-2610 2115,-4725 4725,-4725zm-16752 -4134l33503 0c1917,0 3485,1568 3485,3484l0 10749c0,1917 -1568,3485 -3485,3485l-33503 0c-1917,0 -3485,-1568 -3485,-3485l0 -10749c0,-1916 1568,-3484 3485,-3484zm1399 7045c-1142,0 -2067,925 -2067,2067 0,1142 925,2067 2067,2067 1141,0 2067,-925 2067,-2067 0,-1142 -926,-2067 -2067,-2067zm30705 0c-1141,0 -2067,925 -2067,2067 0,1142 926,2067 2067,2067 1142,0 2067,-925 2067,-2067 0,-1142 -925,-2067 -2067,-2067z"/>
   <path fill="#4D4D4D" d="M33087 275410c0,1141 925,2067 2067,2067 1142,0 2067,-926 2067,-2067 0,-1142 -925,-2067 -2067,-2067 -1142,0 -2067,925 -2067,2067zm-21852 -7087c0,1141 925,2067 2067,2067 1142,0 2067,-926 2067,-2067 0,-1142 -925,-2068 -2067,-2068 -1142,0 -2067,926 -2067,2068zm47248 0c0,1141 925,2067 2067,2067 1141,0 2067,-926 2067,-2067 0,-1142 -926,-2068 -2067,-2068 -1142,0 -2067,926 -2067,2068zm3213 12993l-49365 0c-1756,0 -3193,-1437 -3193,-3193l0 -11332c0,-1756 1437,-3193 3193,-3193l49365 0c1756,0 3193,1437 3193,3193l0 11332c0,1756 -1437,3193 -3193,3193z"/>
   <path fill="#4D4D4D" d="M14453 59714l172454 0c2924,0 5316,2392 5316,5315 0,71586 0,98905 0,172454 0,2924 -2392,5316 -5316,5316l-172454 0c-2923,0 -5315,-2392 -5315,-5316l0 -172454c0,-2923 2392,-5315 5315,-5315zm159691 23689c3099,0 5611,-2512 5611,-5610 0,-3099 -2512,-5611 -5611,-5611 -3099,0 -5610,2512 -5610,5610 0,3099 2511,5611 5610,5611zm-146927 0c3098,0 5610,-2512 5610,-5610 1,-3099 -2512,-5611 -5610,-5611 -3099,0 -5611,2512 -5611,5610 0,3099 2512,5611 5611,5611zm0 146927c3098,1 5610,-2511 5610,-5610 1,-3099 -2512,-5610 -5610,-5610 -3099,0 -5611,2511 -5611,5610 0,3099 2512,5611 5611,5610zm146927 0c3099,1 5611,-2511 5611,-5610 0,-3099 -2512,-5610 -5611,-5610 -3099,0 -5610,2511 -5610,5610 0,3099 2511,5611 5610,5610z"/>
   <path fill="#4D4D4D" d="M97393 270390c-1141,0 -2067,925 -2067,2067 0,1141 926,2067 2067,2067 1142,0 2067,-926 2067,-2067 0,-1142 -925,-2067 -2067,-2067zm21852 0c-1141,0 -2067,925 -2067,2067 0,1141 926,2067 2067,2067 1142,0 2067,-926 2067,-2067 0,-1142 -925,-2067 -2067,-2067zm-22389 -5906l22927 0c2068,0 3761,1692 3761,3761l0 8424c0,2068 -1693,3761 -3761,3761l-22927 0c-2069,0 -3761,-1693 -3761,-3761l0 -8424c0,-2069 1692,-3761 3761,-3761z"/>
  </g>
 </g>
</svg>
