<?xml version="1.0" encoding="UTF-8"?>
<!DOCTYPE svg PUBLIC "-//W3C//DTD SVG 1.1//EN" "http://www.w3.org/Graphics/SVG/1.1/DTD/svg11.dtd">
<!-- Creator: CorelDRAW 2020 (64-Bit) -->
<svg xmlns="http://www.w3.org/2000/svg" xml:space="preserve" width="2954px" height="8519px" version="1.1" style="shape-rendering:geometricPrecision; text-rendering:geometricPrecision; image-rendering:optimizeQuality; fill-rule:evenodd; clip-rule:evenodd"
viewBox="0 0 321552000 927470000"
 xmlns:xlink="http://www.w3.org/1999/xlink"
 xmlns:xodm="http://www.corel.com/coreldraw/odm/2003">
 <defs>
  <style type="text/css">
   <![CDATA[
    .str0 {stroke:black;stroke-width:98000;stroke-miterlimit:22.9256}
    .str2 {stroke:black;stroke-width:98000;stroke-miterlimit:2.61313}
    .str1 {stroke:red;stroke-width:98000;stroke-miterlimit:22.9256}
    .fil0 {fill:none}
    .fil1 {fill:red;fill-rule:nonzero}
   ]]>
  </style>
 </defs>
 <g id="Layer_x0020_1">
  <metadata id="CorelCorpID_0Corel-Layer"/>
  <g id="_1637934863216">
   <circle class="fil0 str0" cx="160776000" cy="215916000" r="160727000"/>
   <path class="fil0 str0" d="M201691000 256831000c2510000,-2511000 6580000,-2510000 9091000,0 2511000,2511000 2511000,6581000 1000,9091000 -2511000,2512000 -6581000,2511000 -9092000,0 -2511000,-2510000 -2512000,-6580000 0,-9091000z"/>
   <path class="fil0 str1" d="M198963000 254103000c4017000,-4017000 10529000,-4016000 14547000,0 4017000,4017000 4017000,10530000 0,14547000 -4016000,4018000 -10529000,4017000 -14546000,0 -4018000,-4018000 -4019000,-10530000 -1000,-14547000z"/>
   <path class="fil0 str0" d="M110769000 256831000c2511000,-2511000 6581000,-2511000 9092000,0 2511000,2510000 2511000,6581000 1000,9091000 -2511000,2512000 -6581000,2511000 -9092000,0 -2511000,-2510000 -2512000,-6581000 -1000,-9091000z"/>
   <path class="fil0 str1" d="M108042000 254103000c4017000,-4017000 10529000,-4016000 14547000,0 4016000,4017000 4017000,10530000 0,14547000 -4017000,4018000 -10529000,4017000 -14547000,0 -4017000,-4018000 -4018000,-10530000 0,-14547000z"/>
   <path class="fil0 str0" d="M110770000 165910000c2510000,-2511000 6580000,-2511000 9091000,0 2511000,2510000 2511000,6581000 1000,9091000 -2511000,2511000 -6581000,2511000 -9092000,0 -2511000,-2511000 -2512000,-6581000 0,-9091000z"/>
   <path class="fil0 str1" d="M108042000 163182000c4017000,-4017000 10529000,-4017000 14547000,0 4017000,4017000 4017000,10530000 1000,14547000 -4017000,4018000 -10530000,4017000 -14547000,0 -4018000,-4018000 -4019000,-10530000 -1000,-14547000z"/>
   <path class="fil0 str0" d="M201691000 165910000c2510000,-2511000 6581000,-2511000 9092000,0 2510000,2510000 2510000,6581000 0,9091000 -2511000,2512000 -6581000,2511000 -9092000,0 -2511000,-2510000 -2512000,-6581000 0,-9091000z"/>
   <path class="fil0 str1" d="M198963000 163182000c4017000,-4017000 10529000,-4016000 14547000,0 4017000,4017000 4017000,10530000 1000,14547000 -4017000,4018000 -10530000,4017000 -14547000,0 -4018000,-4018000 -4019000,-10530000 -1000,-14547000z"/>
  </g>
  <g id="_1637934863312">
   <path class="fil0 str0" d="M99700000 822563000c2876000,0 5207000,2331000 5207000,5207000 0,2876000 -2331000,5208000 -5207000,5208000 -2876000,0 -5208000,-2332000 -5208000,-5208000 0,-2876000 2332000,-5207000 5208000,-5207000z"/>
   <circle class="fil0 str0" cx="99700000" cy="827770000" r="99651000"/>
   <path class="fil0 str0" d="M95154000 758934000c2511000,-2511000 6581000,-2511000 9092000,0 2510000,2510000 2510000,6581000 0,9091000 -2511000,2511000 -6581000,2511000 -9092000,0 -2511000,-2511000 -2511000,-6581000 0,-9091000z"/>
   <path class="fil0 str0" d="M145160000 775881000c3551000,0 6429000,2878000 6429000,6429000 0,3550000 -2878000,6429000 -6428000,6429000 -3551000,0 -6429000,-2878000 -6429000,-6429000 0,-3551000 2877000,-6430000 6428000,-6429000z"/>
   <path class="fil0 str0" d="M168536000 823225000c2511000,2510000 2511000,6580000 0,9091000 -2510000,2511000 -6581000,2511000 -9091000,1000 -2511000,-2511000 -2511000,-6581000 0,-9092000 2511000,-2511000 6581000,-2512000 9091000,0z"/>
   <path class="fil0 str0" d="M151589000 873231000c0,3550000 -2878000,6428000 -6429000,6429000 -3550000,0 -6429000,-2879000 -6429000,-6429000 0,-3551000 2878000,-6428000 6429000,-6429000 3551000,0 6430000,2878000 6429000,6429000z"/>
   <path class="fil0 str0" d="M104246000 896607000c-2511000,2511000 -6581000,2510000 -9092000,0 -2511000,-2511000 -2511000,-6581000 -1000,-9091000 2511000,-2512000 6581000,-2511000 9092000,0 2511000,2510000 2512000,6580000 1000,9091000z"/>
   <path class="fil0 str0" d="M54239000 879660000c-3550000,0 -6428000,-2879000 -6429000,-6429000 0,-3551000 2879000,-6429000 6429000,-6429000 3551000,-1000 6428000,2878000 6429000,6429000 0,3551000 -2878000,6429000 -6429000,6429000z"/>
   <path class="fil0 str0" d="M30863000 832316000c-2511000,-2511000 -2510000,-6581000 0,-9092000 2511000,-2510000 6581000,-2510000 9092000,0 2511000,2511000 2510000,6581000 0,9092000 -2511000,2511000 -6581000,2511000 -9092000,0z"/>
   <path class="fil0 str0" d="M47810000 782310000c0,-3551000 2879000,-6429000 6429000,-6429000 3551000,0 6429000,2878000 6429000,6428000 1000,3551000 -2878000,6429000 -6429000,6429000 -3551000,0 -6429000,-2877000 -6429000,-6428000z"/>
  </g>
  <g id="_1637934864656">
   <path class="fil0 str0" d="M160776000 548740000c2876000,0 5207000,2331000 5207000,5207000 0,2876000 -2331000,5208000 -5207000,5208000 -2876000,0 -5208000,-2332000 -5208000,-5208000 0,-2876000 2332000,-5207000 5208000,-5207000z"/>
   <circle class="fil0 str0" cx="160776000" cy="553947000" r="160727000"/>
   <g>
    <path class="fil0 str0" d="M203495000 602304000l-13370000 -13370000c-1550000,-1551000 -1550000,-4087000 0,-5637000 1550000,-1551000 4087000,-1551000 5637000,-1000l13371000 13371000c1550000,1550000 1550000,4087000 0,5637000 -1551000,1550000 -4087000,1550000 -5638000,0z"/>
    <rect class="fil0 str0" transform="matrix(0.708153 -0.708153 2.8167 2.8167 1.96576E+08 6.28843E+08)" width="55208000" height="16831000" rx="1174000" ry="1174000"/>
   </g>
   <path class="fil0 str0" d="M172451000 542272000c-1556000,-1557000 -1556000,-4080000 0,-5637000 1557000,-1557000 4081000,-1557000 5637000,0 1557000,1557000 1557000,4080000 0,5637000 -1556000,1557000 -4080000,1557000 -5637000,0z"/>
   <path class="fil0 str0" d="M143463000 571260000c-1556000,-1557000 -1556000,-4081000 0,-5637000 1557000,-1557000 4081000,-1557000 5638000,0 1556000,1556000 1556000,4080000 0,5637000 -1557000,1556000 -4081000,1556000 -5638000,0z"/>
   <g>
    <path class="fil0 str2" d="M160776000 406178000c2898000,0 5272000,2373000 5272000,5272000 0,2899000 -2373000,5272000 -5272000,5272000 -2899000,0 -5272000,-2373000 -5272000,-5272000 0,-2899000 2373000,-5272000 5272000,-5272000z"/>
    <polygon class="fil0 str2" points="165329000,436577000 163733000,438159000 163733000,446821000 165329000,448406000 169187000,448407000 170162000,449382000 170162000,454664000 171758000,456250000 175616000,456250000 176591000,457225000 176591000,467618000 175616000,468594000 171758000,468593000 170162000,470179000 170162000,475462000 169187000,476437000 165329000,476437000 163733000,478022000 163733000,488191000 162758000,489167000 158794000,489167000 157818000,488192000 157818000,478023000 156223000,476437000 152365000,476437000 151389000,475462000 151389000,470179000 149794000,468594000 145935000,468594000 144960000,467618000 144960000,457225000 145935000,456250000 149793000,456250000 151389000,454664000 151390000,449382000 152365000,448407000 156223000,448407000 157818000,446824000 157819000,438162000 156222000,436577000 152365000,436577000 151389000,435601000 151389000,424694000 152365000,423719000 169187000,423719000 170162000,424694000 170162000,435601000 169187000,436577000 "/>
    <path class="fil0 str2" d="M175362000 439535000c1633000,0 2958000,1323000 2958000,2957000 -1000,1633000 -1325000,2957000 -2958000,2957000 -1633000,1000 -2957000,-1324000 -2957000,-2957000 0,-1633000 1324000,-2957000 2957000,-2957000z"/>
    <path class="fil0 str2" d="M146189000 439535000c1633000,0 2957000,1324000 2957000,2957000 0,1633000 -1324000,2957000 -2957000,2957000 -1633000,0 -2957000,-1324000 -2957000,-2957000 0,-1633000 1324000,-2958000 2957000,-2957000z"/>
   </g>
   <g>
    <path class="fil0 str2" d="M308545000 553947000c0,2899000 -2373000,5272000 -5272000,5272000 -2898000,0 -5272000,-2373000 -5272000,-5272000 0,-2899000 2373000,-5272000 5272000,-5272000 2899000,0 5272000,2374000 5272000,5272000z"/>
    <polygon class="fil0 str2" points="278146000,558500000 276564000,556905000 267902000,556904000 266317000,558500000 266317000,562358000 265341000,563334000 260059000,563333000 258473000,564929000 258473000,568787000 257498000,569763000 247105000,569763000 246130000,568787000 246130000,564929000 244544000,563334000 239261000,563333000 238286000,562358000 238286000,558500000 236701000,556904000 226532000,556905000 225556000,555929000 225556000,551965000 226532000,550990000 236700000,550990000 238286000,549394000 238286000,545536000 239261000,544561000 244544000,544561000 246129000,542965000 246130000,539107000 247105000,538131000 257498000,538131000 258473000,539107000 258473000,542965000 260059000,544561000 265341000,544561000 266316000,545536000 266317000,549394000 267899000,550990000 276561000,550990000 278146000,549394000 278146000,545536000 279122000,544561000 290029000,544561000 291004000,545536000 291004000,562358000 290029000,563334000 279122000,563333000 278146000,562358000 "/>
    <path class="fil0 str2" d="M275188000 568533000c0,1634000 -1323000,2958000 -2957000,2958000 -1633000,0 -2957000,-1324000 -2957000,-2958000 0,-1633000 1324000,-2957000 2957000,-2957000 1633000,0 2958000,1324000 2957000,2957000z"/>
    <path class="fil0 str2" d="M275188000 539360000c0,1634000 -1324000,2958000 -2957000,2958000 -1633000,0 -2957000,-1324000 -2957000,-2957000 0,-1634000 1324000,-2958000 2957000,-2958000 1634000,0 2958000,1324000 2957000,2957000z"/>
   </g>
   <g>
    <path class="fil0 str2" d="M160776000 701716000c-2899000,0 -5272000,-2373000 -5272000,-5271000 0,-2899000 2373000,-5272000 5272000,-5272000 2899000,0 5272000,2373000 5272000,5272000 0,2898000 -2373000,5271000 -5272000,5271000z"/>
    <polygon class="fil0 str2" points="156223000,671318000 157818000,669735000 157819000,661074000 156223000,659488000 152365000,659488000 151389000,658513000 151390000,653230000 149794000,651645000 145936000,651645000 144961000,650669000 144960000,640276000 145936000,639301000 149794000,639301000 151390000,637716000 151390000,632433000 152365000,631458000 156223000,631457000 157819000,629872000 157819000,619703000 158794000,618728000 162758000,618728000 163733000,619703000 163733000,629872000 165329000,631457000 169187000,631457000 170163000,632433000 170163000,637716000 171758000,639301000 175616000,639301000 176592000,640276000 176592000,650669000 175616000,651645000 171758000,651645000 170162000,653230000 170162000,658513000 169187000,659487000 165329000,659488000 163733000,661070000 163733000,669732000 165329000,671318000 169187000,671318000 170163000,672293000 170162000,683200000 169187000,684176000 152365000,684176000 151389000,683200000 151390000,672294000 152365000,671318000 "/>
    <path class="fil0 str2" d="M146190000 668360000c-1634000,0 -2958000,-1324000 -2958000,-2957000 0,-1634000 1324000,-2958000 2958000,-2958000 1633000,0 2957000,1324000 2957000,2958000 0,1633000 -1324000,2957000 -2957000,2957000z"/>
    <path class="fil0 str2" d="M175363000 668360000c-1634000,0 -2957000,-1324000 -2958000,-2958000 0,-1633000 1324000,-2957000 2958000,-2957000 1633000,0 2957000,1324000 2957000,2958000 0,1633000 -1324000,2957000 -2957000,2957000z"/>
   </g>
   <g>
    <path class="fil0 str2" d="M13007000 553948000c0,-2899000 2373000,-5273000 5271000,-5273000 2899000,1000 5272000,2374000 5272000,5272000 0,2899000 -2373000,5272000 -5272000,5272000 -2898000,0 -5271000,-2373000 -5271000,-5271000z"/>
    <polygon class="fil0 str2" points="43405000,549394000 44988000,550990000 53650000,550990000 55235000,549394000 55235000,545536000 56211000,544561000 61493000,544561000 63078000,542965000 63078000,539107000 64054000,538132000 74447000,538132000 75422000,539107000 75422000,542965000 77007000,544561000 82290000,544561000 83266000,545536000 83266000,549394000 84851000,550990000 95020000,550990000 95995000,551966000 95996000,555929000 95020000,556905000 84851000,556905000 83266000,558501000 83266000,562358000 82290000,563334000 77008000,563334000 75422000,564930000 75422000,568788000 74447000,569763000 64054000,569763000 63078000,568788000 63078000,564930000 61493000,563334000 56210000,563334000 55236000,562358000 55235000,558500000 53653000,556905000 44991000,556905000 43405000,558501000 43405000,562358000 42430000,563334000 31523000,563334000 30547000,562358000 30547000,545536000 31523000,544561000 42430000,544561000 43405000,545536000 "/>
    <path class="fil0 str2" d="M46363000 539361000c0,-1633000 1324000,-2958000 2957000,-2958000 1634000,1000 2958000,1325000 2958000,2958000 0,1633000 -1324000,2957000 -2957000,2957000 -1634000,0 -2958000,-1324000 -2958000,-2957000z"/>
    <path class="fil0 str2" d="M46363000 568534000c0,-1633000 1324000,-2957000 2958000,-2957000 1633000,0 2957000,1324000 2957000,2957000 0,1633000 -1324000,2957000 -2957000,2957000 -1634000,0 -2958000,-1324000 -2958000,-2957000z"/>
   </g>
  </g>
  <path class="fil0 str0" d="M262462000 792160000c0,-2201000 1785000,-3986000 3986000,-3986000 2202000,0 3986000,1785000 3986000,3986000 0,2202000 -1784000,3986000 -3986000,3986000 -2201000,0 -3986000,-1784000 -3986000,-3986000zm23916000 41792000c-1172000,0 -2121000,-950000 -2121000,-2122000 0,-1172000 949000,-2121000 2121000,-2121000 1172000,0 2122000,949000 2122000,2121000 0,1172000 -950000,2122000 -2122000,2122000zm-39860000 39860000c1172000,0 2122000,-950000 2122000,-2122000 0,-1171000 -950000,-2121000 -2122000,-2121000 -1172000,0 -2122000,950000 -2122000,2121000 0,1173000 950000,2122000 2122000,2122000zm0 -39860000c1172000,0 2122000,-950000 2122000,-2122000 0,-1172000 -950000,-2121000 -2122000,-2121000 -1172000,0 -2122000,949000 -2122000,2121000 0,1172000 950000,2122000 2122000,2122000zm19930000 -3407000c11718000,-1000 21216000,9498000 21216000,21215000 0,11718000 -9498000,21216000 -21216000,21216000l0 0 0 0c-11717000,0 -21216000,-9498000 -21216000,-21216000 0,-11717000 9499000,-21216000 21216000,-21215000zm19930000 43267000c-1172000,0 -2121000,-950000 -2121000,-2122000 0,-1171000 949000,-2121000 2121000,-2121000 1172000,0 2122000,950000 2122000,2121000 0,1173000 -950000,2122000 -2122000,2122000zm7714000 -68486000l-15564000 -12481000c12000,-226000 19000,-455000 19000,-685000 0,-6682000 -5417000,-12099000 -12099000,-12099000 -6682000,0 -12099000,5417000 -12099000,12099000 0,202000 5000,401000 15000,600000l-15560000 12566000c-3848000,0 -6998000,3149000 -6998000,6998000l0 57229000c0,5497000 4170000,9209000 8019000,9209000l53247000 0c3848000,0 8018000,-3712000 8018000,-9209000l0 -57229000c0,-3849000 -3149000,-6998000 -6998000,-6998000z"/>
  <path class="fil1" d="M92068000 16861000l0 -12171000 1853000 0 0 1864000c473000,-863000 911000,-1434000 1313000,-1708000 403000,-277000 844000,-414000 1325000,-414000 696000,0 1403000,219000 2122000,653000l-734000 1903000c-501000,-281000 -1001000,-422000 -1501000,-422000 -450000,0 -852000,137000 -1208000,406000 -356000,270000 -610000,645000 -762000,1126000 -231000,731000 -344000,1532000 -344000,2404000l0 6359000 -2064000 0zm16134000 -3940000l2134000 281000c-332000,1239000 -954000,2205000 -1860000,2889000 -907000,683000 -2064000,1027000 -3475000,1027000 -1774000,0 -3181000,-547000 -4221000,-1641000 -1039000,-1090000 -1559000,-2626000 -1559000,-4600000 0,-2040000 524000,-3627000 1575000,-4753000 1051000,-1129000 2415000,-1692000 4092000,-1692000 1622000,0 2947000,551000 3975000,1657000 1027000,1106000 1543000,2662000 1543000,4667000 0,121000 -4000,305000 -11000,547000l-9064000 0c78000,1333000 454000,2357000 1134000,3064000 676000,707000 1524000,1063000 2536000,1063000 754000,0 1399000,-199000 1931000,-598000 535000,-399000 957000,-1036000 1270000,-1911000zm-6754000 -3307000l6777000 0c-89000,-1023000 -351000,-1790000 -777000,-2302000 -653000,-793000 -1505000,-1192000 -2548000,-1192000 -946000,0 -1740000,317000 -2385000,950000 -641000,633000 -996000,1481000 -1067000,2544000zm19444000 2791000l2017000 281000c-223000,1388000 -786000,2470000 -1696000,3256000 -911000,786000 -2033000,1176000 -3357000,1176000 -1661000,0 -2998000,-543000 -4006000,-1629000 -1013000,-1087000 -1517000,-2642000 -1517000,-4667000 0,-1313000 219000,-2458000 653000,-3443000 434000,-981000 1094000,-1720000 1985000,-2208000 887000,-493000 1853000,-739000 2900000,-739000 1317000,0 2400000,332000 3236000,1001000 841000,668000 1380000,1618000 1615000,2845000l-1994000 305000c-191000,-817000 -527000,-1431000 -1016000,-1845000 -485000,-410000 -1071000,-618000 -1759000,-618000 -1039000,0 -1884000,372000 -2536000,1114000 -649000,747000 -973000,1919000 -973000,3530000 0,1633000 312000,2817000 938000,3556000 629000,739000 1446000,1110000 2450000,1110000 813000,0 1489000,-246000 2029000,-743000 543000,-492000 887000,-1254000 1031000,-2282000zm12077000 516000l2134000 281000c-332000,1239000 -954000,2205000 -1860000,2889000 -907000,683000 -2064000,1027000 -3475000,1027000 -1774000,0 -3181000,-547000 -4221000,-1641000 -1039000,-1090000 -1559000,-2626000 -1559000,-4600000 0,-2040000 523000,-3627000 1575000,-4753000 1051000,-1129000 2415000,-1692000 4092000,-1692000 1622000,0 2947000,551000 3975000,1657000 1027000,1106000 1543000,2662000 1543000,4667000 0,121000 -4000,305000 -11000,547000l-9064000 0c78000,1333000 454000,2357000 1134000,3064000 676000,707000 1524000,1063000 2536000,1063000 754000,0 1399000,-199000 1931000,-598000 535000,-399000 957000,-1036000 1270000,-1911000zm-6754000 -3307000l6777000 0c-89000,-1023000 -351000,-1790000 -777000,-2302000 -653000,-793000 -1505000,-1192000 -2548000,-1192000 -946000,0 -1740000,317000 -2385000,950000 -641000,633000 -996000,1481000 -1067000,2544000zm10674000 3612000l2040000 -329000c114000,817000 434000,1443000 958000,1880000 523000,434000 1258000,653000 2196000,653000 950000,0 1653000,-191000 2115000,-578000 457000,-383000 687000,-837000 687000,-1357000 0,-465000 -207000,-832000 -617000,-1098000 -289000,-183000 -993000,-414000 -2111000,-699000 -1508000,-379000 -2552000,-708000 -3138000,-985000 -582000,-282000 -1024000,-665000 -1325000,-1157000 -301000,-489000 -453000,-1032000 -453000,-1626000 0,-543000 125000,-1044000 371000,-1505000 250000,-461000 586000,-844000 1012000,-1149000 321000,-234000 759000,-434000 1310000,-598000 555000,-164000 1145000,-246000 1778000,-246000 954000,0 1790000,137000 2509000,414000 723000,274000 1255000,649000 1599000,1118000 340000,473000 578000,1102000 707000,1892000l-2017000 281000c-90000,-633000 -355000,-1129000 -793000,-1485000 -438000,-356000 -1055000,-532000 -1857000,-532000 -941000,0 -1618000,157000 -2020000,469000 -403000,313000 -606000,680000 -606000,1099000 0,265000 82000,508000 250000,723000 168000,219000 430000,402000 790000,547000 207000,78000 809000,254000 1817000,527000 1454000,387000 2470000,708000 3049000,954000 578000,246000 1031000,610000 1360000,1079000 332000,473000 496000,1059000 496000,1763000 0,683000 -199000,1328000 -602000,1934000 -402000,606000 -981000,1075000 -1735000,1407000 -758000,332000 -1614000,496000 -2568000,496000 -1579000,0 -2787000,-328000 -3615000,-981000 -829000,-656000 -1356000,-1625000 -1587000,-2911000zm11725000 0l2040000 -329000c114000,817000 434000,1443000 958000,1880000 523000,434000 1258000,653000 2196000,653000 950000,0 1653000,-191000 2115000,-578000 457000,-383000 687000,-837000 687000,-1357000 0,-465000 -207000,-832000 -617000,-1098000 -289000,-183000 -993000,-414000 -2111000,-699000 -1508000,-379000 -2552000,-708000 -3138000,-985000 -582000,-282000 -1024000,-665000 -1325000,-1157000 -301000,-489000 -453000,-1032000 -453000,-1626000 0,-543000 125000,-1044000 371000,-1505000 250000,-461000 586000,-844000 1012000,-1149000 321000,-234000 759000,-434000 1310000,-598000 555000,-164000 1145000,-246000 1778000,-246000 953000,0 1790000,137000 2509000,414000 723000,274000 1255000,649000 1599000,1118000 340000,473000 578000,1102000 707000,1892000l-2017000 281000c-90000,-633000 -355000,-1129000 -793000,-1485000 -438000,-356000 -1055000,-532000 -1857000,-532000 -941000,0 -1618000,157000 -2020000,469000 -403000,313000 -606000,680000 -606000,1099000 0,265000 82000,508000 250000,723000 168000,219000 430000,402000 790000,547000 207000,78000 809000,254000 1817000,527000 1454000,387000 2470000,708000 3049000,954000 578000,246000 1031000,610000 1360000,1079000 332000,473000 496000,1059000 496000,1763000 0,683000 -199000,1328000 -602000,1934000 -403000,606000 -981000,1075000 -1735000,1407000 -758000,332000 -1614000,496000 -2568000,496000 -1579000,0 -2787000,-328000 -3615000,-981000 -829000,-656000 -1356000,-1625000 -1587000,-2911000zm18498000 -821000l2064000 -281000c238000,1172000 637000,2016000 1203000,2532000 567000,516000 1263000,774000 2088000,774000 977000,0 1801000,-336000 2466000,-1008000 664000,-673000 996000,-1505000 996000,-2498000 0,-945000 -308000,-1727000 -930000,-2345000 -617000,-613000 -1403000,-922000 -2360000,-922000 -391000,0 -876000,78000 -1458000,231000l230000 -1806000c137000,16000 250000,23000 333000,23000 883000,0 1672000,-230000 2380000,-687000 703000,-458000 1055000,-1161000 1055000,-2111000 0,-754000 -258000,-1380000 -770000,-1876000 -512000,-496000 -1172000,-743000 -1981000,-743000 -806000,0 -1474000,254000 -2009000,763000 -536000,508000 -880000,1270000 -1032000,2286000l-2064000 -375000c254000,-1384000 825000,-2459000 1720000,-3221000 891000,-762000 2005000,-1141000 3334000,-1141000 914000,0 1758000,195000 2528000,590000 774000,391000 1364000,926000 1771000,1603000 410000,680000 613000,1399000 613000,2161000 0,723000 -195000,1380000 -582000,1974000 -391000,594000 -969000,1067000 -1731000,1418000 992000,227000 1762000,704000 2313000,1427000 548000,719000 821000,1626000 821000,2708000 0,1466000 -535000,2713000 -1602000,3733000 -1071000,1020000 -2423000,1528000 -4057000,1528000 -1474000,0 -2697000,-442000 -3670000,-1321000 -977000,-879000 -1532000,-2017000 -1669000,-3416000zm20120000 4456000l0 -12171000 1853000 0 0 1720000c379000,-594000 887000,-1075000 1520000,-1435000 633000,-363000 1352000,-543000 2161000,-543000 899000,0 1638000,188000 2213000,559000 574000,375000 980000,895000 1215000,1567000 969000,-1419000 2224000,-2126000 3772000,-2126000 1211000,0 2145000,332000 2794000,1001000 653000,668000 981000,1696000 981000,3083000l0 8345000 -2064000 0 0 -7661000c0,-821000 -70000,-1415000 -203000,-1778000 -133000,-364000 -375000,-653000 -731000,-876000 -351000,-222000 -766000,-332000 -1239000,-332000 -860000,0 -1571000,286000 -2137000,852000 -567000,571000 -849000,1481000 -849000,2732000l0 7063000 -2063000 0 0 -7899000c0,-915000 -168000,-1603000 -504000,-2060000 -336000,-457000 -888000,-688000 -1650000,-688000 -578000,0 -1114000,153000 -1606000,458000 -493000,304000 -848000,750000 -1071000,1340000 -219000,586000 -328000,1434000 -328000,2540000l0 6309000 -2064000 0zm19534000 0l0 -12171000 1853000 0 0 1720000c379000,-594000 887000,-1075000 1520000,-1435000 633000,-363000 1352000,-543000 2161000,-543000 899000,0 1638000,188000 2212000,559000 575000,375000 981000,895000 1216000,1567000 969000,-1419000 2224000,-2126000 3771000,-2126000 1212000,0 2146000,332000 2795000,1001000 653000,668000 981000,1696000 981000,3083000l0 8345000 -2064000 0 0 -7661000c0,-821000 -70000,-1415000 -203000,-1778000 -133000,-364000 -375000,-653000 -731000,-876000 -352000,-222000 -766000,-332000 -1239000,-332000 -860000,0 -1571000,286000 -2138000,852000 -566000,571000 -848000,1481000 -848000,2732000l0 7063000 -2063000 0 0 -7899000c0,-915000 -168000,-1603000 -505000,-2060000 -336000,-457000 -887000,-688000 -1649000,-688000 -578000,0 -1114000,153000 -1606000,458000 -493000,304000 -848000,750000 -1071000,1340000 -219000,586000 -328000,1434000 -328000,2540000l0 6309000 -2064000 0z"/>
 </g>
</svg>
