<?xml version="1.0" encoding="UTF-8"?>
<!DOCTYPE svg PUBLIC "-//W3C//DTD SVG 1.1//EN" "http://www.w3.org/Graphics/SVG/1.1/DTD/svg11.dtd">
<!-- Creator: CorelDRAW X8 -->
<svg xmlns="http://www.w3.org/2000/svg" xml:space="preserve" width="63.2031in" height="28.5197in" version="1.1" style="shape-rendering:geometricPrecision; text-rendering:geometricPrecision; image-rendering:optimizeQuality; fill-rule:evenodd; clip-rule:evenodd"
viewBox="0 0 63203 28520"
 xmlns:xlink="http://www.w3.org/1999/xlink">
 <defs>
  <style type="text/css">
   <![CDATA[
    .fil0 {fill:#2B2A29}
   ]]>
  </style>
 </defs>
 <g id="Layer_x0020_1">
  <metadata id="CorelCorpID_0Corel-Layer"/>
  <g id="_2650086638640">
   <path class="fil0" d="M63203 14260c0,7610 -6169,13779 -13779,13779 -7611,0 -13780,-6169 -13780,-13779 0,-7610 6169,-13780 13780,-13780 7610,0 13779,6170 13779,13780zm-13630 0c0,-83 -67,-150 -149,-150 -83,0 -150,67 -150,150 0,82 67,149 150,149 82,0 149,-67 149,-149z"/>
   <path class="fil0" d="M16133 28406l2362 0c68,-2 141,-29 142,-154l0 -896c0,-65 53,-118 118,-118l22 0c41,0 78,-21 78,-74l-1 -884c0,-87 70,-157 157,-157 61,0 114,35 140,85 18,36 17,33 77,33l68 0c23,0 32,-7 32,-30l0 -294 0 -560c0,-23 -9,-31 -32,-31l-68 0c-60,0 -59,-2 -77,34 -26,50 -79,85 -140,85 -87,0 -157,-71 -157,-158 0,-87 70,-157 157,-157l472 0 473 0c87,0 157,70 157,157 0,87 -70,158 -157,158 -61,0 -114,-35 -140,-85 -19,-36 -17,-34 -77,-34l-68 0c-23,0 -33,8 -33,31l0 560 0 294c0,23 10,30 33,30l68 0c60,0 58,3 77,-33 26,-50 79,-85 140,-85 87,0 157,70 157,157l-2 884c0,53 38,74 79,74l22 0c65,0 118,53 118,118l0 896c1,125 73,152 142,154l2362 0c127,100 298,140 465,95 168,-44 296,-165 356,-315l5803 -3350c160,22 328,-28 451,-151 123,-122 173,-291 150,-450l3351 -5804c150,-60 270,-187 315,-355 45,-168 4,-339 -95,-466l0 -6701c99,-127 140,-297 95,-465 -45,-168 -165,-295 -315,-356l-3351 -5803c23,-160 -27,-328 -150,-451 -123,-123 -291,-173 -450,-150l-5804 -3351c-60,-149 -188,-270 -356,-315 -167,-45 -338,-4 -465,95l-6701 0c-127,-99 -298,-140 -466,-95 -167,45 -295,166 -355,315l-5804 3351c-159,-23 -327,28 -450,150 -123,123 -173,291 -151,451l-3350 5803c-150,61 -270,188 -315,356 -45,168 -5,338 95,465l0 6702c-100,127 -140,297 -95,465 45,168 165,295 315,355l3350 5804c-22,160 28,328 151,450 123,123 291,173 451,151l5803 3350c60,150 188,271 355,315 168,45 339,5 466,-95zm6989 -27726c82,22 166,-27 188,-109 22,-82 -26,-166 -108,-188 -82,-22 -166,27 -188,109 -22,82 26,166 108,188zm-301 2114l33 -20 43 -159 -19 -34 -114 -31 -37 -62 80 -297 63 -36 114 30 33 -19 32 -118 63 -36 114 30 34 -19 81 -304 -19 -34 -115 -31 -36 -62 32 -118 -20 -34 -114 -31 -36 -62 91 -339 -20 -33 -114 -31 -34 19 -90 339 -63 36 -114 -30 -34 19 -31 118 -63 36 -114 -30 -34 19 -81 304 19 34 114 31 37 62 -32 118 19 34 114 30 37 63 -80 297 -63 36 -114 -31 -33 20 -43 160 19 33 495 133zm272 -278c46,13 93,-15 106,-61 12,-46 -15,-94 -62,-106 -46,-13 -93,15 -106,61 -12,46 15,94 62,106zm-863 -231c46,12 93,-15 106,-61 12,-46 -15,-94 -61,-106 -47,-13 -94,15 -107,61 -12,46 15,94 62,106zm-6385 -1605c82,-22 130,-106 108,-188 -22,-82 -106,-131 -188,-109 -82,22 -130,106 -108,188 22,82 106,131 188,109zm796 1981l19 -33 -43 -160 -33 -20 -115 31 -62 -36 -80 -297 36 -63 115 -30 19 -34 -32 -118 37 -62 114 -31 19 -34 -81 -304 -34 -19 -114 30 -63 -36 -31 -118 -34 -19 -114 30 -63 -36 -91 -339 -33 -19 -114 31 -20 33 91 339 -36 62 -115 31 -19 34 32 118 -37 62 -114 31 -19 34 81 304 34 19 114 -30 63 36 31 118 34 19 114 -30 63 36 80 297 -37 62 -114 31 -19 34 42 159 34 20 495 -133zm96 -376c46,-12 74,-60 61,-106 -12,-46 -59,-74 -106,-61 -46,12 -73,60 -61,106 12,46 60,73 106,61zm-863 231c47,-12 74,-60 62,-106 -13,-46 -60,-74 -106,-61 -47,12 -74,60 -62,106 13,46 60,74 106,61zm-6332 1802c60,-59 60,-157 0,-217 -60,-60 -157,-60 -217,0 -60,60 -60,158 0,217 60,60 157,60 217,0zm1680 1319l0 -39 -117 -117 -39 0 -83 83 -72 1 -218 -218 0 -72 84 -84 0 -39 -87 -86 1 -72 83 -84 0 -39 -223 -223 -39 0 -83 84 -72 0 -87 -86 -39 0 -83 83 -72 0 -248 -248 -39 0 -84 84 0 39 248 248 0 72 -84 84 0 39 87 86 0 72 -84 84 0 39 223 222 39 0 83 -83 72 0 87 86 39 0 83 -83 73 -1 217 218 0 72 -84 84 0 39 117 117 39 0 362 -362zm-104 -375c34,-33 34,-88 0,-122 -34,-34 -89,-34 -123,0 -34,34 -34,89 0,122 34,34 89,34 123,0zm-632 632c34,-34 34,-89 0,-122 -34,-34 -89,-34 -122,0 -34,33 -34,88 0,122 33,34 88,34 122,0zm-4583 4727c22,-82 -26,-166 -108,-188 -82,-22 -166,27 -188,109 -22,81 26,166 108,188 82,21 166,-27 188,-109zm2115 302l-20 -34 -160 -43 -33 19 -31 115 -62 36 -298 -80 -36 -62 31 -114 -19 -34 -119 -32 -36 -63 31 -114 -19 -33 -305 -82 -33 20 -31 114 -62 36 -119 -32 -33 20 -31 114 -62 36 -339 -91 -34 20 -30 114 19 34 339 90 36 63 -31 114 20 34 118 32 36 62 -31 114 20 34 304 82 34 -20 30 -114 63 -36 118 31 34 -19 30 -114 63 -36 297 79 36 63 -31 114 20 34 159 42 34 -19 133 -494zm-278 -272c12,-47 -15,-94 -61,-106 -47,-13 -94,15 -106,61 -13,46 15,94 61,106 46,12 93,-15 106,-61zm-231 862c12,-46 -15,-93 -62,-106 -46,-12 -93,15 -106,62 -12,46 15,93 62,106 46,12 93,-15 106,-62zm-1606 6386c-22,-82 -106,-131 -188,-109 -82,22 -130,106 -108,188 22,82 106,130 188,109 82,-22 130,-107 108,-188zm1982 -796l-34 -20 -159 43 -20 34 31 114 -36 62 -298 80 -62 -36 -30 -114 -34 -20 -118 32 -63 -36 -30 -115 -34 -19 -304 81 -20 34 31 114 -36 63 -118 32 -20 33 31 114 -36 63 -339 91 -19 34 30 114 34 19 339 -91 62 37 31 114 33 19 119 -31 62 36 31 114 33 19 305 -81 19 -34 -31 -114 36 -63 119 -31 19 -34 -31 -114 36 -63 298 -79 62 36 31 114 33 20 160 -43 20 -34 -133 -494zm-376 -97c-13,-46 -60,-74 -106,-61 -47,12 -74,60 -62,106 13,46 60,73 106,61 47,-12 74,-60 62,-106zm231 863c-13,-46 -60,-74 -106,-61 -46,12 -74,59 -62,106 13,46 60,73 107,61 46,-12 73,-60 61,-106zm1802 6332c-60,-60 -157,-60 -217,0 -60,60 -60,157 0,217 60,60 157,60 217,0 60,-60 60,-157 0,-217zm1318 -1680l-39 0 -117 117 0 39 84 83 0 73 -217 217 -73 0 -83 -84 -39 0 -87 87 -72 0 -83 -84 -39 0 -223 223 0 39 84 83 0 72 -87 87 0 39 84 84 0 72 -248 248 0 39 84 83 39 0 248 -248 72 0 83 84 39 0 87 -87 72 1 83 83 39 0 223 -223 0 -39 -83 -83 -1 -72 87 -87 0 -39 -84 -83 0 -72 218 -218 72 0 83 84 39 0 117 -117 0 -39 -362 -362zm-374 104c-34,-33 -89,-33 -122,1 -34,33 -34,88 0,122 33,34 88,34 122,0 34,-34 34,-89 0,-123zm632 632c-34,-34 -89,-34 -123,0 -34,34 -34,89 0,123 34,33 89,33 123,0 34,-34 34,-89 0,-123zm4727 4583c-82,-22 -166,26 -188,108 -22,82 26,166 108,188 82,22 166,-26 188,-108 22,-82 -26,-166 -108,-188zm301 -2114l-34 19 -42 160 19 34 114 30 37 63 -80 297 -63 36 -114 -31 -34 20 -31 118 -63 36 -114 -31 -34 20 -81 304 19 34 114 30 37 63 -32 118 19 34 115 30 36 62 -91 339 20 34 114 31 33 -20 91 -339 63 -36 114 31 34 -20 31 -118 63 -36 114 31 34 -20 81 -304 -19 -33 -114 -31 -37 -62 32 -119 -19 -33 -115 -31 -36 -62 80 -298 62 -35 115 30 33 -19 43 -160 -19 -34 -495 -132zm-272 277c-46,-12 -93,15 -106,62 -12,46 15,93 62,106 46,12 93,-15 106,-62 12,-46 -15,-93 -62,-106zm863 232c-46,-13 -94,15 -106,61 -12,46 15,94 61,106 47,12 94,-15 106,-61 13,-47 -15,-94 -61,-106zm6385 1605c-82,22 -130,106 -108,188 22,82 106,130 188,108 82,-22 130,-106 108,-188 -22,-82 -106,-130 -188,-108zm-796 -1982l-19 34 43 160 33 19 114 -30 63 35 80 298 -37 62 -114 31 -19 33 32 119 -37 62 -114 31 -19 33 81 304 34 20 114 -31 63 36 31 118 34 20 114 -31 63 36 90 339 34 20 114 -31 20 -34 -91 -339 36 -62 114 -31 20 -33 -32 -118 36 -63 115 -30 19 -34 -81 -304 -34 -20 -114 31 -63 -36 -32 -118 -33 -20 -114 31 -63 -36 -80 -298 37 -62 114 -30 19 -34 -43 -160 -33 -19 -495 132zm-96 377c-47,12 -74,59 -62,106 13,46 60,73 107,61 46,-12 73,-60 61,-106 -13,-46 -60,-74 -106,-61zm862 -232c-46,13 -73,60 -61,106 13,47 60,74 106,62 47,-13 74,-60 62,-106 -13,-47 -60,-74 -107,-62zm6333 -1802c-60,60 -60,157 0,217 60,60 157,60 217,0 60,-60 60,-157 0,-217 -60,-60 -157,-60 -217,0zm-1680 -1318l0 39 117 117 39 0 83 -84 72 0 218 218 0 72 -84 83 0 39 87 87 -1 72 -83 83 0 39 223 223 38 0 84 -83 72 -1 87 87 39 0 83 -84 72 0 248 248 39 0 84 -83 0 -39 -248 -248 0 -72 84 -84 0 -39 -87 -87 0 -72 84 -83 0 -39 -223 -223 -39 0 -83 84 -73 0 -86 -87 -39 0 -84 84 -72 0 -217 -218 0 -72 83 -83 0 -39 -117 -117 -38 0 -362 362zm104 374c-34,34 -34,89 0,123 34,33 89,33 123,0 33,-34 33,-89 0,-123 -34,-34 -89,-34 -123,0zm632 -631c-34,33 -34,88 0,122 34,34 88,34 122,0 34,-34 34,-89 0,-123 -34,-33 -88,-33 -122,1zm4582 -4727c-21,81 27,166 109,188 82,21 166,-27 188,-109 22,-82 -27,-166 -109,-188 -81,-22 -166,27 -188,109zm-2114 -302l20 34 160 43 33 -20 31 -114 62 -36 298 79 35 63 -30 114 19 34 119 31 35 63 -30 114 19 34 305 81 33 -19 31 -114 62 -36 118 31 34 -19 31 -114 62 -37 339 91 34 -19 30 -114 -19 -34 -339 -91 -36 -63 31 -114 -20 -33 -118 -32 -36 -63 31 -114 -20 -34 -304 -81 -34 19 -30 115 -63 36 -118 -32 -34 20 -30 114 -63 36 -297 -80 -36 -62 31 -114 -20 -34 -159 -43 -34 20 -133 494zm278 272c-12,46 15,94 61,106 46,12 94,-15 106,-61 13,-47 -15,-94 -61,-106 -46,-13 -94,15 -106,61zm231 -863c-12,46 15,94 61,106 47,12 94,-15 107,-61 12,-46 -15,-94 -62,-106 -46,-13 -93,15 -106,61zm1605 -6385c22,82 107,130 188,109 82,-22 131,-107 109,-188 -22,-82 -106,-131 -188,-109 -82,22 -130,106 -109,188zm-1981 796l34 19 159 -42 20 -34 -31 -114 36 -63 297 -80 63 37 30 114 34 19 118 -31 63 36 30 114 34 20 304 -82 20 -34 -31 -114 36 -62 118 -32 20 -34 -31 -114 36 -63 339 -90 19 -34 -30 -114 -34 -20 -339 91 -62 -36 -31 -114 -34 -20 -118 32 -62 -36 -31 -114 -33 -20 -305 82 -19 33 30 114 -35 63 -119 32 -19 34 30 114 -35 62 -298 80 -62 -36 -31 -115 -33 -19 -160 43 -20 34 133 494zm376 97c13,46 60,73 106,61 47,-13 74,-60 62,-106 -13,-47 -60,-74 -107,-62 -46,13 -73,60 -61,107zm-231 -863c12,46 60,73 106,61 46,-12 74,-60 61,-106 -12,-46 -60,-74 -106,-61 -46,12 -73,59 -61,106zm-1802 -6333c60,60 157,60 217,0 60,-59 60,-157 0,-217 -60,-60 -157,-60 -217,0 -60,60 -60,158 0,217zm-1318 1681l38 0 117 -117 0 -39 -83 -84 0 -72 217 -218 72 1 84 83 39 0 86 -86 73 0 83 83 39 0 223 -222 0 -39 -84 -84 0 -72 87 -86 0 -39 -84 -84 0 -72 248 -248 0 -39 -84 -84 -39 0 -248 248 -72 0 -83 -83 -39 0 -87 86 -72 0 -84 -84 -38 0 -223 223 0 39 83 84 1 72 -87 86 0 39 84 84 0 72 -218 218 -72 -1 -84 -83 -38 0 -117 117 0 39 362 362zm374 -105c34,34 88,34 122,0 34,-34 34,-89 0,-122 -34,-34 -88,-34 -122,0 -34,33 -34,88 0,122zm-632 -632c34,34 89,34 123,0 33,-33 33,-88 0,-122 -34,-34 -89,-34 -123,0 -34,34 -34,89 0,122zm-8110 2401l28 -28 0 -165 -28 -28 -118 0 -51 -51 0 -307 51 -51 118 0 28 -28 0 -122 51 -51 118 0 28 -28 0 -315 -28 -27 -118 0 -51 -51 0 -122 -28 -28 -118 0 -51 -51 0 -350 -28 -28 -118 0 -27 28 0 350 -51 51 -118 0 -28 28 0 122 -51 51 -118 0 -28 27 0 315 28 28 118 0 51 51 0 122 28 28 118 0 51 51 0 307 -51 51 -118 0 -28 28 0 165 28 28 511 0zm191 -339c48,0 87,-39 87,-86 0,-48 -39,-87 -87,-87 -48,0 -87,39 -87,87 0,47 39,86 87,86zm-893 0c48,0 86,-39 86,-86 0,-48 -38,-87 -86,-87 -48,0 -87,39 -87,87 0,47 39,86 87,86zm-2630 1095l10 -38 -83 -143 -38 -10 -102 59 -70 -19 -154 -266 19 -70 103 -59 10 -38 -62 -106 19 -69 103 -59 10 -38 -158 -273 -37 -10 -103 59 -69 -18 -62 -106 -37 -10 -103 59 -69 -19 -176 -303 -37 -10 -103 59 -10 37 176 304 -19 70 -103 59 -10 37 62 106 -19 70 -103 59 -10 38 158 272 37 11 103 -60 69 19 62 106 37 10 103 -59 69 18 154 267 -19 70 -102 59 -10 37 83 143 37 10 444 -255zm-5 -389c42,-24 56,-77 32,-118 -24,-42 -77,-56 -118,-32 -42,24 -56,77 -32,118 24,42 77,56 118,32zm-773 447c41,-24 55,-77 32,-119 -24,-41 -77,-55 -119,-31 -41,24 -55,77 -31,118 23,41 76,56 118,32zm-1731 2263l-10 -38 -143 -83 -38 10 -59 103 -69 19 -267 -154 -18 -70 59 -102 -10 -38 -106 -61 -19 -70 59 -102 -10 -38 -273 -157 -37 10 -59 102 -70 19 -106 -61 -38 10 -59 102 -69 19 -304 -175 -38 10 -59 102 10 38 304 175 19 70 -60 102 11 38 106 61 18 70 -59 102 10 38 273 157 37 -10 59 -102 70 -19 106 61 38 -10 59 -102 69 -19 267 154 18 69 -59 103 10 37 144 83 37 -10 256 -443zm-198 -335c24,-41 10,-94 -31,-118 -42,-24 -95,-10 -119,32 -24,41 -9,94 32,118 41,24 94,10 118,-32zm-446 774c24,-42 9,-95 -32,-119 -41,-24 -94,-9 -118,32 -24,42 -10,95 31,118 42,24 95,10 119,-31zm-368 2825l-27 -28 -166 0 -27 28 0 118 -51 51 -308 0 -51 -51 0 -118 -27 -28 -122 0 -51 -51 0 -118 -28 -28 -315 0 -27 28 0 118 -51 51 -123 0 -27 28 0 118 -51 51 -351 0 -27 28 0 118 27 27 351 0 51 52 0 118 27 27 123 0 51 51 0 119 27 27 315 0 28 -27 0 -119 51 -51 122 0 27 -27 0 -118 51 -52 308 0 51 52 0 118 27 27 166 0 27 -27 0 -512zm-338 -191c0,-48 -39,-86 -87,-86 -48,0 -86,38 -86,86 0,48 38,87 86,87 48,0 87,-39 87,-87zm0 893c0,-47 -39,-86 -87,-86 -48,0 -86,39 -86,86 0,48 38,87 86,87 48,0 87,-39 87,-87zm1094 2631l-37 -10 -144 82 -10 38 59 102 -18 70 -267 154 -69 -19 -59 -102 -38 -10 -106 61 -70 -19 -59 -102 -37 -11 -273 158 -10 38 59 102 -18 70 -106 61 -11 37 60 103 -19 70 -304 175 -10 38 59 102 38 10 304 -175 69 18 59 103 38 10 106 -61 70 18 59 103 37 10 273 -158 10 -37 -59 -103 19 -69 106 -61 10 -38 -59 -102 18 -70 267 -154 69 19 59 102 38 10 143 -82 10 -38 -256 -443zm-388 4c-24,-42 -77,-56 -119,-32 -41,24 -55,77 -31,118 24,42 77,56 118,32 41,-24 56,-77 32,-118zm446 773c-24,-41 -77,-55 -118,-31 -41,24 -56,77 -32,118 24,41 77,56 119,32 41,-24 55,-77 31,-119zm2263 1731l-37 10 -83 143 10 38 102 59 19 70 -154 266 -69 19 -103 -59 -37 10 -62 106 -69 18 -103 -59 -37 10 -158 273 10 38 103 59 19 69 -62 106 11 38 102 59 19 70 -176 303 10 38 103 59 37 -10 176 -304 69 -18 103 59 37 -10 62 -106 69 -19 103 59 37 -10 158 -273 -10 -37 -103 -59 -19 -70 62 -106 -10 -38 -103 -59 -19 -69 154 -267 70 -18 102 59 38 -10 83 -143 -10 -38 -444 -256zm-334 198c-42,-24 -95,-10 -118,32 -24,41 -10,94 31,118 42,24 95,10 119,-32 23,-41 9,-94 -32,-118zm773 447c-41,-24 -94,-10 -118,31 -24,42 -10,95 32,119 41,23 94,9 118,-32 24,-42 10,-95 -32,-118zm2826 367l-28 27 0 166 28 27 118 0 51 51 0 308 -51 51 -118 0 -28 27 0 123 -51 51 -118 0 -28 27 0 315 28 28 118 0 51 50 0 123 28 27 118 0 51 51 0 351 27 28 118 0 28 -28 0 -351 51 -51 118 0 28 -27 0 -123 51 -50 118 0 28 -28 0 -315 -28 -27 -118 0 -51 -51 0 -123 -28 -27 -118 0 -51 -51 0 -308 51 -51 118 0 28 -27 0 -166 -28 -27 -511 0zm-191 338c-48,0 -87,39 -87,87 0,48 39,87 87,87 48,0 86,-39 86,-87 0,-48 -38,-87 -86,-87zm893 0c-48,0 -87,39 -87,87 0,48 39,87 87,87 48,0 87,-39 87,-87 0,-48 -39,-87 -87,-87zm2630 -1094l-10 38 83 143 38 10 102 -59 70 18 154 267 -19 69 -103 59 -10 38 61 106 -18 70 -103 59 -10 37 158 273 37 10 103 -59 69 19 61 106 38 10 102 -59 70 18 176 304 37 10 102 -59 11 -38 -176 -303 19 -70 102 -59 10 -38 -61 -106 19 -69 102 -59 11 -38 -158 -273 -38 -10 -102 59 -70 -18 -61 -106 -37 -10 -103 59 -69 -19 -154 -266 19 -70 102 -59 10 -38 -83 -143 -37 -10 -444 256zm4 389c-41,23 -55,76 -31,118 24,41 77,55 118,32 42,-24 56,-77 32,-119 -24,-41 -77,-55 -119,-31zm774 -447c-41,24 -56,77 -32,118 24,42 77,56 119,32 41,-24 55,-77 31,-118 -24,-42 -77,-56 -118,-32zm1731 -2263l10 38 143 82 38 -10 59 -102 69 -19 267 154 18 70 -59 102 10 38 106 61 19 69 -59 103 10 37 273 158 37 -10 59 -103 70 -18 106 61 38 -10 59 -103 69 -18 304 175 38 -10 59 -102 -10 -38 -304 -176 -19 -69 59 -103 -10 -37 -106 -61 -18 -70 59 -102 -10 -38 -273 -158 -38 11 -59 102 -69 19 -106 -61 -38 10 -59 102 -70 19 -266 -154 -19 -70 60 -102 -11 -38 -143 -82 -37 10 -256 443zm198 334c-24,42 -10,95 31,119 42,24 95,9 119,-32 24,-41 9,-94 -32,-118 -42,-24 -95,-10 -118,31zm446 -773c-24,41 -10,94 32,118 41,24 94,10 118,-32 24,-41 10,-94 -31,-118 -42,-24 -95,-10 -119,32zm368 -2825l27 27 165 0 28 -27 0 -118 51 -52 308 0 50 52 0 118 28 27 122 0 51 51 0 119 28 27 315 0 27 -27 0 -119 51 -51 123 0 27 -27 0 -118 51 -52 351 0 27 -27 0 -118 -27 -28 -351 0 -51 -51 0 -118 -27 -28 -123 0 -51 -51 0 -118 -27 -28 -315 0 -28 28 0 118 -51 51 -122 0 -28 28 0 118 -50 51 -308 0 -51 -51 0 -118 -28 -28 -165 0 -27 28 0 512zm338 190c0,48 39,87 87,87 48,0 86,-39 86,-87 0,-47 -38,-86 -86,-86 -48,0 -87,39 -87,86zm0 -893c0,48 39,87 87,87 48,0 86,-39 86,-87 0,-48 -38,-86 -86,-86 -48,0 -87,38 -87,86zm-1094 -2630l37 10 143 -83 11 -37 -60 -103 19 -69 267 -154 69 19 59 102 38 10 106 -61 69 19 59 102 38 10 273 -157 10 -38 -59 -102 18 -70 106 -61 10 -38 -59 -102 19 -70 304 -175 10 -38 -59 -102 -38 -10 -304 175 -69 -19 -60 -102 -37 -10 -106 61 -70 -19 -59 -102 -37 -10 -273 157 -10 38 59 102 -19 70 -106 61 -10 38 59 102 -18 70 -267 154 -69 -19 -59 -103 -38 -10 -143 83 -10 38 256 443zm388 -4c24,41 77,55 119,31 41,-23 55,-76 31,-118 -24,-41 -77,-56 -118,-32 -42,24 -56,77 -32,119zm-446 -774c23,42 76,56 118,32 41,-24 56,-77 32,-118 -24,-42 -77,-56 -119,-32 -41,24 -55,77 -31,118zm-2263 -1731l37 -10 83 -143 -10 -37 -102 -59 -19 -70 154 -267 69 -18 103 59 37 -10 61 -106 70 -19 102 60 38 -11 158 -272 -11 -38 -102 -59 -19 -70 61 -106 -10 -37 -102 -59 -19 -70 176 -304 -11 -37 -102 -59 -37 10 -176 303 -70 19 -102 -59 -38 10 -61 106 -69 18 -103 -59 -37 10 -158 273 10 38 103 59 18 69 -61 106 10 38 103 59 18 70 -153 266 -70 19 -102 -59 -38 10 -83 143 10 38 444 255zm334 -197c41,24 94,9 118,-32 24,-42 10,-94 -31,-118 -42,-24 -95,-10 -119,31 -24,42 -9,95 32,119zm-774 -447c42,24 95,10 119,-32 24,-41 10,-94 -32,-118 -41,-24 -94,-10 -118,32 -24,41 -10,94 31,118zm-3081 6076c85,0 154,69 154,154 0,85 -69,153 -154,153 -84,0 -153,-68 -153,-153 0,-85 69,-154 153,-154z"/>
   <path class="fil0" d="M815 12590l613 0c41,0 78,21 78,74l0 294c0,23 -9,30 -32,30l-68 0c-60,0 -58,3 -77,-33 -26,-50 -79,-85 -140,-85 -87,0 -157,70 -157,157 0,87 70,158 157,158l473 0 472 0c87,0 157,-71 157,-158 0,-87 -70,-157 -157,-157 -61,0 -114,35 -140,85 -19,36 -17,33 -77,33l-68 0c-23,0 -32,-7 -32,-30l0 -294c0,-53 37,-74 78,-74l613 0c118,0 174,104 214,214l548 1500c67,184 77,137 -8,311l-540 1100c-52,106 -96,215 -214,215l-847 0 -846 0c-118,0 -162,-109 -214,-215l-540 -1100c-85,-174 -75,-127 -8,-311l548 -1500c40,-110 96,-214 214,-214zm236 1693c36,0 65,-29 65,-65 0,-36 -29,-65 -65,-65 -36,0 -65,29 -65,65 0,36 29,65 65,65zm0 1220c36,0 65,-29 65,-65 0,-36 -29,-65 -65,-65 -36,0 -65,29 -65,65 0,36 29,65 65,65zm1221 0c36,0 65,-29 65,-65 0,-36 -29,-65 -65,-65 -36,0 -65,29 -65,65 0,36 29,65 65,65zm0 -1220c36,0 65,-29 65,-65 0,-36 -29,-65 -65,-65 -36,0 -65,29 -65,65 0,36 29,65 65,65zm-611 -105c359,0 650,291 650,650 0,359 -291,650 -650,650 -358,0 -649,-291 -649,-650 0,-359 291,-650 649,-650z"/>
  </g>
 </g>
</svg>
