<?xml version="1.0" encoding="UTF-8"?>
<!DOCTYPE svg PUBLIC "-//W3C//DTD SVG 1.1//EN" "http://www.w3.org/Graphics/SVG/1.1/DTD/svg11.dtd">
<!-- Creator: CorelDRAW X7 -->
<svg xmlns="http://www.w3.org/2000/svg" xml:space="preserve" width="1900mm" height="1000mm" version="1.1" style="shape-rendering:geometricPrecision; text-rendering:geometricPrecision; image-rendering:optimizeQuality; fill-rule:evenodd; clip-rule:evenodd"
viewBox="0 0 190000 100000"
 xmlns:xlink="http://www.w3.org/1999/xlink">
 <defs>
  <style type="text/css">
   <![CDATA[
    .fil0 {fill:#FEFEFE}
    .fil1 {fill:#D80003}
   ]]>
  </style>
 </defs>
 <g id="Layer_x0020_1">
  <metadata id="CorelCorpID_0Corel-Layer"/>
  <rect class="fil0" width="190000" height="100000"/>
  <path class="fil1" d="M167854 50000c0,19330 -15670,35000 -35000,35000 -19330,0 -35000,-15670 -35000,-35000 0,-19330 15670,-35000 35000,-35000 19330,0 35000,15670 35000,35000zm-34620 0c0,-210 -170,-380 -380,-380 -210,0 -380,170 -380,380 0,210 170,380 380,380 210,0 380,-170 380,-380z"/>
  <path class="fil1" d="M48296 85932l6000 0c173,-7 358,-74 360,-392l0 -2275c0,-165 135,-300 300,-300l55 0c105,0 200,-53 200,-188l-5 -2245c0,-221 179,-400 400,-400 155,0 289,88 356,217 47,91 44,84 195,84l173 0c59,0 82,-19 82,-78l0 -746 0 -1422c0,-59 -23,-78 -82,-78l-173 0c-151,0 -148,-7 -195,84 -67,129 -201,217 -356,217 -221,0 -400,-179 -400,-400 0,-221 179,-400 400,-400l1200 0 1200 0c221,0 400,179 400,400 0,221 -179,400 -400,400 -155,0 -289,-88 -355,-217 -47,-91 -44,-84 -196,-84l-173 0c-58,0 -82,19 -82,78l0 1422 0 746c0,59 24,78 82,78l173 0c152,0 149,7 196,-84 66,-129 200,-217 355,-217 221,0 400,179 400,400l-5 2245c0,135 96,188 200,188l55 0c165,0 300,135 300,300l0 2275c2,318 187,385 360,392l6001 0c322,253 756,356 1182,242 426,-115 750,-421 903,-801l14741 -8510c405,57 832,-70 1144,-382 312,-312 440,-739 382,-1145l8511 -14740c380,-153 686,-477 800,-903 114,-427 11,-860 -241,-1183l0 -17021c252,-322 355,-756 241,-1182 -114,-426 -420,-749 -800,-903l-8511 -14741c57,-406 -70,-832 -382,-1144 -312,-312 -738,-439 -1144,-382l-14741 -8511c-154,-380 -477,-686 -903,-800 -426,-114 -859,-11 -1182,241l-17022 0c-323,-252 -756,-355 -1182,-241 -426,114 -749,420 -902,800l-14742 8511c-405,-57 -832,70 -1144,382 -312,312 -439,739 -382,1144l-8511 14741c-380,154 -685,477 -799,903 -115,427 -12,860 241,1182l0 17022c-253,322 -356,756 -241,1182 114,426 420,750 800,903l8510 14741c-57,405 70,832 382,1144 312,312 739,439 1145,382l14740 8510c154,381 477,686 904,801 426,114 859,11 1182,-242zm17753 -70426c208,56 421,-67 477,-275 56,-208 -67,-422 -275,-478 -209,-56 -422,68 -478,276 -56,208 68,422 276,477zm-766 5370l85 -49 109 -406 -49 -86 -290 -77 -92 -159 202 -755 159 -91 290 78 86 -50 80 -300 159 -91 290 78 86 -50 207 -773 -50 -85 -290 -78 -92 -158 81 -301 -50 -85 -290 -78 -92 -158 231 -861 -50 -86 -289 -77 -86 49 -231 861 -159 91 -290 -78 -85 50 -81 300 -159 91 -290 -78 -85 50 -207 773 49 85 290 78 92 158 -80 301 49 85 290 78 92 158 -202 756 -159 91 -290 -78 -86 49 -108 406 49 86 1256 336zm690 -705c118,31 238,-38 270,-156 31,-117 -39,-238 -156,-269 -117,-31 -238,38 -269,156 -32,117 38,238 155,269zm-2191 -587c117,31 238,-38 269,-156 32,-117 -38,-238 -155,-269 -118,-32 -238,38 -270,155 -31,118 38,238 156,270zm-16218 -4078c208,-55 331,-269 275,-477 -55,-208 -269,-332 -477,-276 -208,56 -331,270 -276,478 56,208 270,331 478,275zm2021 5034l50 -86 -109 -406 -86 -49 -289 78 -159 -92 -203 -755 92 -158 290 -78 50 -85 -81 -301 92 -158 290 -78 50 -85 -207 -773 -86 -50 -290 78 -159 -91 -80 -300 -86 -50 -290 78 -159 -91 -230 -861 -86 -49 -290 77 -49 86 230 861 -92 158 -290 78 -49 85 80 301 -92 158 -290 78 -49 85 207 773 86 50 289 -78 159 91 81 300 86 50 289 -78 159 91 203 756 -92 158 -290 77 -50 86 109 406 86 49 1255 -336zm246 -956c117,-32 187,-152 155,-270 -31,-117 -152,-187 -269,-155 -118,31 -187,152 -156,269 32,118 152,187 270,156zm-2192 587c118,-31 187,-152 156,-269 -32,-118 -152,-187 -270,-156 -117,31 -187,152 -155,269 31,118 152,187 269,156zm-16084 4578c153,-152 153,-399 0,-552 -152,-152 -399,-152 -551,0 -152,153 -152,400 0,552 152,152 399,152 551,0zm4268 3348l0 -99 -297 -297 -99 0 -212 212 -184 1 -552 -553 0 -183 212 -212 0 -99 -219 -220 0 -183 212 -212 0 -99 -565 -566 -99 0 -212 212 -184 1 -219 -220 -99 0 -213 212 -183 1 -630 -630 -99 0 -212 212 0 99 630 630 -1 183 -212 212 0 99 220 220 0 183 -213 212 0 99 566 566 99 0 212 -212 183 -1 220 220 99 0 212 -212 184 -1 553 553 -1 183 -212 212 0 99 297 297 99 0 919 -919zm-266 -951c86,-85 86,-225 0,-311 -86,-86 -225,-86 -311,0 -86,86 -86,226 0,311 86,86 225,86 311,0zm-1604 1605c86,-86 86,-225 0,-311 -86,-86 -225,-86 -311,0 -86,86 -86,225 0,311 86,86 225,86 311,0zm-11640 12006c56,-208 -68,-422 -276,-477 -208,-56 -422,67 -477,275 -56,208 67,422 275,478 208,56 422,-68 478,-276zm5370 766l-50 -86 -405 -108 -86 49 -78 290 -158 92 -756 -202 -90 -159 77 -290 -49 -86 -300 -80 -92 -159 78 -290 -49 -86 -773 -207 -86 50 -78 290 -158 92 -300 -81 -86 50 -78 290 -158 92 -860 -231 -86 50 -78 289 50 86 860 231 91 159 -77 290 49 85 300 81 92 159 -78 289 49 86 773 207 86 -49 77 -290 159 -92 300 80 86 -49 77 -290 159 -92 755 202 91 159 -78 290 50 86 406 108 85 -49 337 -1256zm-706 -690c32,-118 -38,-238 -155,-270 -117,-31 -238,38 -270,156 -31,117 39,238 156,269 117,32 238,-38 269,-155zm-587 2191c32,-117 -38,-238 -155,-269 -118,-32 -238,38 -270,155 -31,118 38,238 156,270 117,31 238,-38 269,-156zm-4077 16218c-56,-208 -270,-331 -478,-275 -208,55 -331,269 -275,477 55,208 269,331 477,276 208,-56 332,-270 276,-478zm5033 -2021l-85 -50 -406 109 -50 86 78 289 -91 159 -755 203 -159 -93 -77 -289 -86 -50 -300 81 -159 -92 -77 -290 -86 -50 -773 207 -49 86 77 290 -91 159 -300 80 -49 86 77 290 -91 159 -860 230 -50 86 78 290 86 49 860 -230 158 92 78 290 86 49 300 -80 158 92 78 290 86 49 773 -207 49 -86 -78 -289 92 -159 300 -81 49 -86 -77 -289 91 -159 755 -203 158 92 78 290 86 50 405 -109 50 -86 -337 -1255zm-956 -246c-31,-117 -152,-187 -269,-155 -118,31 -187,152 -156,269 32,117 152,187 270,156 117,-32 187,-152 155,-270zm587 2192c-31,-118 -152,-187 -269,-156 -117,32 -187,152 -156,270 32,117 153,187 270,155 117,-31 187,-152 155,-269zm4578 16084c-152,-153 -399,-153 -551,0 -152,152 -152,399 0,551 152,152 399,152 551,0 153,-152 153,-399 0,-551zm3349 -4268l-99 0 -297 297 0 99 212 212 0 183 -553 553 -183 0 -212 -212 -99 -1 -220 220 -183 0 -212 -212 -99 0 -566 565 0 99 213 212 0 184 -220 219 0 99 212 213 1 183 -630 630 0 99 212 212 99 0 630 -630 183 1 213 212 99 0 219 -220 184 0 212 213 99 0 565 -566 0 -99 -212 -212 0 -183 219 -220 0 -99 -212 -212 0 -184 553 -553 183 1 212 212 99 0 297 -297 0 -99 -919 -919zm-951 266c-86,-86 -225,-86 -311,0 -86,86 -86,225 0,311 86,86 225,86 311,0 86,-86 86,-225 0,-311zm1604 1604c-86,-86 -225,-86 -311,0 -86,86 -86,225 0,311 86,86 225,86 311,0 86,-86 86,-225 0,-311zm12007 11640c-208,-56 -422,68 -478,276 -55,208 68,422 276,477 208,56 422,-67 477,-275 56,-208 -67,-422 -275,-478zm766 -5370l-86 50 -109 405 50 86 290 78 92 158 -203 755 -159 91 -289 -77 -86 49 -81 300 -159 92 -289 -78 -86 49 -207 773 49 86 290 78 92 158 -80 300 49 86 290 78 92 158 -230 860 49 86 290 78 86 -50 230 -860 159 -91 290 77 86 -49 80 -300 159 -92 290 78 86 -49 207 -773 -50 -86 -290 -77 -92 -159 81 -300 -50 -86 -289 -78 -93 -158 203 -755 159 -91 289 78 86 -50 109 -406 -50 -85 -1255 -337zm-691 706c-117,-32 -238,38 -269,155 -32,117 38,238 155,270 118,31 238,-39 270,-156 31,-117 -38,-238 -156,-269zm2192 587c-118,-32 -238,38 -270,155 -31,118 38,238 156,270 117,31 238,-38 269,-156 32,-117 -38,-238 -155,-269zm16218 4077c-208,56 -332,270 -276,478 56,208 270,331 478,275 208,-55 331,-269 275,-477 -56,-208 -269,-332 -477,-276zm-2022 -5033l-49 85 108 406 86 50 290 -78 159 91 202 755 -92 158 -290 78 -49 86 80 300 -92 159 -290 77 -49 86 207 773 85 49 290 -78 159 92 81 300 85 49 290 -77 159 91 231 860 86 50 289 -78 50 -86 -231 -860 92 -158 290 -78 50 -86 -81 -300 92 -159 290 -77 50 -86 -207 -773 -86 -49 -290 78 -159 -92 -80 -300 -86 -49 -290 77 -159 -91 -202 -755 92 -158 290 -78 49 -86 -108 -405 -86 -50 -1256 337zm-245 956c-118,31 -187,152 -156,269 32,118 152,187 270,156 117,-32 187,-152 155,-270 -31,-117 -152,-187 -269,-155zm2191 -587c-117,31 -187,152 -155,269 31,117 152,187 269,156 118,-32 187,-153 156,-270 -32,-117 -152,-187 -270,-155zm16084 -4578c-152,152 -152,399 0,551 152,152 399,152 552,0 152,-152 152,-399 -1,-551 -152,-153 -399,-153 -551,0zm-4267 -3349l0 99 297 297 99 0 212 -212 183 0 553 553 -1 183 -212 212 0 99 220 220 -1 183 -212 212 0 99 566 566 99 0 212 -213 183 0 220 220 99 0 212 -212 183 -1 630 630 99 0 212 -212 0 -99 -630 -630 1 -183 212 -213 0 -99 -220 -219 1 -184 212 -212 0 -99 -566 -565 -99 0 -212 212 -183 0 -220 -220 -99 0 -212 213 -183 0 -553 -553 1 -183 212 -212 0 -99 -297 -297 -99 0 -919 919zm265 951c-86,86 -86,225 0,311 86,86 225,86 311,0 86,-86 86,-225 0,-311 -86,-86 -225,-86 -311,0zm1604 -1604c-85,86 -85,225 0,311 86,86 226,86 312,0 86,-86 86,-225 0,-311 -86,-86 -226,-86 -312,0zm11641 -12007c-56,208 67,422 275,478 208,55 422,-68 478,-276 56,-208 -68,-422 -276,-478 -208,-55 -422,68 -477,276zm-5370 -766l49 86 406 109 86 -50 77 -290 159 -92 755 203 91 159 -78 289 50 86 300 81 91 159 -78 289 50 86 773 207 85 -49 78 -290 158 -92 301 80 85 -49 78 -290 158 -92 861 230 86 -49 77 -290 -49 -86 -861 -230 -91 -159 78 -290 -50 -86 -300 -80 -91 -159 78 -290 -50 -86 -773 -207 -85 50 -78 289 -158 93 -301 -81 -85 50 -78 289 -158 93 -756 -203 -91 -159 78 -290 -49 -85 -406 -109 -86 50 -336 1255zm705 691c-31,117 38,238 156,269 117,32 238,-38 269,-155 31,-118 -38,-238 -156,-270 -117,-31 -238,38 -269,156zm587 -2192c-31,118 38,238 156,270 117,31 238,-39 269,-156 32,-117 -38,-238 -155,-269 -118,-32 -238,38 -270,155zm4078 -16218c55,208 269,332 477,276 208,-56 332,-270 276,-478 -56,-208 -270,-331 -478,-275 -208,55 -331,269 -275,477zm-5034 2022l86 49 406 -108 49 -86 -78 -290 91 -159 756 -202 158 92 78 290 85 49 301 -80 158 92 78 290 85 49 773 -207 50 -86 -78 -289 91 -159 300 -81 50 -86 -78 -289 91 -159 861 -231 49 -86 -77 -289 -86 -50 -861 231 -158 -92 -78 -290 -85 -50 -301 81 -158 -92 -78 -290 -85 -50 -773 207 -50 86 78 290 -91 159 -300 80 -50 86 78 290 -91 159 -756 202 -158 -92 -77 -290 -86 -49 -406 108 -49 86 336 1256zm956 245c32,118 152,187 270,156 117,-32 187,-152 155,-270 -31,-117 -152,-187 -269,-155 -118,31 -187,152 -156,269zm-587 -2191c31,117 152,187 269,155 118,-31 187,-152 156,-269 -31,-118 -152,-187 -269,-156 -118,32 -187,152 -156,270zm-4578 -16084c152,152 399,152 551,0 153,-152 153,-399 0,-552 -152,-152 -399,-152 -551,0 -152,153 -152,400 0,552zm-3348 4267l99 0 297 -297 0 -99 -212 -212 -1 -183 553 -553 183 1 212 212 99 0 220 -220 183 1 212 212 99 0 566 -566 0 -99 -212 -212 -1 -183 220 -220 0 -99 -212 -212 -1 -183 630 -630 0 -99 -212 -212 -99 0 -630 630 -183 -1 -212 -212 -99 0 -220 220 -183 -1 -212 -212 -99 0 -566 566 0 99 212 212 1 183 -220 220 0 99 212 212 1 183 -553 553 -183 -1 -212 -212 -99 0 -297 297 0 99 919 919zm950 -265c86,86 226,86 312,0 86,-86 86,-225 0,-311 -86,-86 -226,-86 -311,0 -86,86 -86,225 -1,311zm-1604 -1605c86,86 225,86 311,0 86,-85 86,-225 0,-311 -86,-86 -225,-86 -311,0 -86,86 -86,226 0,311zm-20599 6097l70 -70 0 -420 -70 -70 -300 0 -130 -129 0 -782 130 -129 300 0 70 -70 0 -311 130 -129 300 0 70 -70 0 -800 -70 -70 -300 0 -130 -129 0 -311 -70 -70 -300 0 -130 -129 0 -891 -70 -70 -300 0 -70 70 0 891 -130 129 -300 0 -70 70 0 311 -130 129 -300 0 -70 70 0 800 70 70 300 0 130 129 0 311 70 70 300 0 130 129 0 782 -130 129 -300 0 -70 70 0 420 70 70 1300 0zm485 -860c121,0 220,-98 220,-220 0,-121 -99,-220 -220,-220 -122,0 -220,99 -220,220 0,122 98,220 220,220zm-2269 0c121,0 220,-98 220,-220 0,-121 -99,-220 -220,-220 -122,0 -220,99 -220,220 0,122 98,220 220,220zm-6681 2780l25 -95 -210 -364 -95 -26 -260 150 -177 -47 -391 -677 48 -176 260 -151 25 -95 -155 -269 48 -177 260 -150 26 -96 -400 -693 -96 -25 -260 150 -177 -47 -156 -269 -95 -26 -260 150 -177 -47 -446 -771 -95 -26 -260 150 -26 96 446 771 -48 177 -260 150 -26 96 156 269 -48 177 -260 150 -26 95 400 693 96 26 260 -150 177 47 155 269 96 26 260 -150 177 46 391 678 -48 176 -260 150 -26 96 210 364 96 25 1126 -650zm-11 -987c106,-61 142,-195 81,-300 -61,-106 -195,-142 -301,-81 -105,61 -141,195 -80,301 61,105 195,141 300,80zm-1964 1135c105,-61 141,-196 80,-301 -61,-105 -195,-141 -300,-80 -106,60 -142,195 -81,300 61,105 195,141 301,81zm-4396 5748l-26 -96 -364 -210 -95 26 -150 259 -177 48 -677 -391 -47 -177 150 -259 -26 -96 -269 -155 -47 -178 150 -259 -25 -96 -693 -400 -96 26 -150 259 -177 48 -269 -155 -95 26 -150 259 -177 48 -772 -445 -95 26 -150 259 25 96 772 445 47 178 -150 259 25 96 269 155 47 178 -150 259 26 96 693 400 95 -26 150 -259 177 -48 269 155 96 -26 150 -259 177 -48 677 391 47 177 -150 259 25 96 364 210 96 -26 650 -1125zm-503 -850c61,-105 25,-240 -80,-300 -106,-61 -240,-25 -301,80 -61,105 -25,240 81,301 105,60 239,24 300,-81zm-1134 1965c60,-105 24,-240 -81,-301 -105,-60 -240,-24 -300,81 -61,105 -25,240 80,300 105,61 240,25 301,-80zm-933 7176l-70 -70 -420 0 -70 70 0 300 -129 130 -782 0 -129 -130 0 -300 -70 -70 -311 0 -129 -130 0 -300 -70 -70 -800 0 -70 70 0 300 -129 130 -311 0 -70 70 0 300 -129 130 -891 0 -70 70 0 300 70 70 891 0 129 130 0 300 70 70 311 0 129 130 0 300 70 70 800 0 70 -70 0 -300 129 -130 311 0 70 -70 0 -300 129 -130 782 0 129 130 0 300 70 70 420 0 70 -70 0 -1300zm-860 -485c0,-121 -99,-220 -220,-220 -122,0 -220,99 -220,220 0,122 98,220 220,220 121,0 220,-98 220,-220zm0 2269c0,-121 -99,-220 -220,-220 -122,0 -220,99 -220,220 0,122 98,220 220,220 121,0 220,-98 220,-220zm2780 6681l-96 -25 -364 209 -25 96 150 260 -47 177 -677 391 -177 -48 -150 -260 -96 -26 -269 156 -177 -48 -150 -260 -95 -26 -693 400 -26 96 150 260 -47 177 -269 155 -25 96 150 260 -47 177 -772 446 -25 95 150 260 95 26 772 -446 177 48 150 260 95 26 269 -156 177 48 150 260 96 26 693 -400 25 -96 -150 -260 47 -177 269 -155 26 -96 -150 -260 47 -177 677 -391 177 48 150 260 95 26 364 -210 26 -96 -650 -1126zm-987 11c-61,-106 -196,-142 -301,-81 -105,61 -141,195 -80,301 60,105 195,141 300,80 105,-61 141,-195 81,-300zm1134 1964c-61,-105 -195,-141 -300,-80 -106,61 -142,195 -81,300 61,106 195,142 301,81 105,-61 141,-195 80,-301zm5748 4396l-96 26 -210 364 26 95 260 150 48 177 -391 677 -177 47 -260 -150 -96 26 -155 269 -177 47 -260 -150 -96 25 -400 693 26 96 260 150 48 177 -156 269 26 95 260 150 48 177 -446 772 26 95 260 150 95 -25 446 -772 177 -47 260 150 96 -25 155 -269 177 -47 260 150 96 -26 400 -693 -26 -95 -260 -150 -48 -177 156 -269 -26 -96 -260 -150 -48 -177 391 -677 177 -47 260 150 96 -25 210 -364 -26 -96 -1126 -650zm-849 503c-106,-61 -240,-25 -301,80 -61,106 -25,240 81,301 105,61 239,25 300,-81 61,-105 25,-239 -80,-300zm1964 1134c-105,-60 -239,-24 -300,81 -61,105 -25,240 80,300 106,61 240,25 301,-80 61,-105 25,-240 -81,-301zm7176 933l-70 70 0 420 70 70 300 0 130 129 0 782 -130 129 -300 0 -70 70 0 311 -130 129 -300 0 -70 70 0 800 70 70 300 0 130 129 0 311 70 70 300 0 130 129 0 891 70 70 300 0 70 -70 0 -891 130 -129 300 0 70 -70 0 -311 130 -129 300 0 70 -70 0 -800 -70 -70 -300 0 -130 -129 0 -311 -70 -70 -300 0 -130 -129 0 -782 130 -129 300 0 70 -70 0 -420 -70 -70 -1300 0zm-484 860c-122,0 -220,99 -220,220 0,122 98,220 220,220 121,0 220,-98 220,-220 0,-121 -99,-220 -220,-220zm2269 0c-122,0 -220,99 -220,220 0,122 98,220 220,220 121,0 220,-98 220,-220 0,-121 -99,-220 -220,-220zm6681 -2780l-26 96 210 364 96 25 259 -150 178 47 391 677 -49 177 -259 150 -26 96 155 269 -48 177 -259 150 -26 95 400 693 96 26 259 -150 178 47 155 269 96 25 259 -150 178 47 445 772 96 25 259 -150 26 -95 -445 -772 48 -177 259 -150 26 -95 -155 -269 48 -177 259 -150 26 -96 -400 -693 -96 -25 -259 150 -178 -47 -155 -269 -96 -26 -259 150 -178 -47 -390 -677 48 -177 259 -150 26 -95 -210 -364 -96 -26 -1125 650zm10 987c-105,61 -141,196 -80,301 60,105 195,141 300,80 105,-60 141,-195 81,-300 -61,-105 -196,-141 -301,-81zm1965 -1134c-105,61 -141,195 -81,300 61,106 196,142 301,81 105,-61 141,-195 80,-301 -60,-105 -195,-141 -300,-80zm4396 -5748l25 96 364 210 96 -26 150 -260 177 -48 677 391 46 177 -149 260 25 96 269 155 47 177 -150 260 26 96 693 400 95 -26 150 -260 177 -48 269 156 96 -26 150 -260 177 -48 771 446 96 -26 150 -260 -26 -96 -771 -445 -47 -177 150 -260 -26 -96 -269 -155 -47 -177 150 -260 -25 -96 -693 -400 -96 26 -150 260 -177 48 -269 -156 -96 26 -150 260 -176 48 -678 -391 -46 -177 150 -260 -26 -96 -364 -210 -95 26 -650 1126zm502 849c-60,106 -24,240 81,301 105,61 240,25 300,-81 61,-105 25,-239 -80,-300 -105,-61 -240,-25 -301,80zm1135 -1964c-61,105 -25,239 80,300 106,61 240,25 301,-80 61,-106 25,-240 -81,-301 -105,-61 -239,-25 -300,81zm933 -7176l70 70 420 0 70 -70 0 -300 129 -130 782 0 129 130 0 300 70 70 311 0 129 130 0 300 70 70 800 0 70 -70 0 -300 129 -130 311 0 70 -70 0 -300 129 -130 891 0 70 -70 0 -300 -70 -70 -891 0 -129 -130 0 -300 -70 -70 -311 0 -129 -130 0 -300 -70 -70 -800 0 -70 70 0 300 -129 130 -311 0 -70 70 0 300 -129 130 -782 0 -129 -130 0 -300 -70 -70 -420 0 -70 70 0 1300zm860 484c0,122 98,220 220,220 121,0 220,-98 220,-220 0,-121 -99,-220 -220,-220 -122,0 -220,99 -220,220zm0 -2269c0,122 98,220 220,220 121,0 220,-98 220,-220 0,-121 -99,-220 -220,-220 -122,0 -220,99 -220,220zm-2780 -6681l95 26 364 -210 26 -96 -150 -259 47 -178 677 -391 176 49 150 259 96 26 269 -155 177 48 150 259 96 26 693 -400 25 -96 -150 -259 47 -178 269 -155 26 -96 -150 -259 47 -178 771 -445 26 -96 -150 -259 -96 -26 -771 445 -177 -48 -150 -259 -96 -26 -269 155 -177 -48 -150 -259 -95 -26 -693 400 -26 96 150 259 -47 178 -269 155 -26 96 150 259 -46 178 -678 390 -176 -48 -150 -259 -96 -26 -364 210 -25 96 650 1125zm987 -10c61,105 195,141 300,80 106,-60 142,-195 81,-300 -61,-105 -195,-141 -301,-81 -105,61 -141,196 -80,301zm-1135 -1965c61,105 196,141 301,81 105,-61 141,-196 80,-301 -60,-105 -195,-141 -300,-80 -105,60 -141,195 -81,300zm-5748 -4396l96 -25 210 -364 -26 -96 -259 -150 -48 -177 391 -677 177 -47 259 150 96 -25 155 -269 178 -47 259 150 96 -26 400 -693 -26 -95 -259 -150 -48 -177 155 -269 -26 -96 -259 -150 -48 -177 445 -771 -26 -96 -259 -150 -96 26 -445 771 -178 47 -259 -150 -96 26 -155 269 -178 47 -259 -150 -96 25 -400 693 26 96 259 150 48 177 -155 269 26 95 259 151 48 176 -391 678 -177 46 -259 -150 -96 26 -210 364 26 95 1125 650zm850 -502c105,60 240,24 300,-81 61,-105 25,-240 -80,-300 -105,-61 -240,-25 -301,80 -60,105 -24,240 81,301zm-1965 -1135c105,61 240,25 301,-80 60,-106 24,-240 -81,-301 -105,-61 -240,-25 -300,81 -61,105 -25,239 80,300zm-7826 15434c216,0 390,174 390,390 0,215 -174,390 -390,390 -215,0 -390,-175 -390,-390 0,-216 175,-390 390,-390z"/>
  <path class="fil1" d="M9389 45758l1556 0c104,0 200,53 200,188l0 746c0,59 -24,79 -82,79l-173 0c-152,0 -149,6 -196,-85 -66,-128 -201,-216 -356,-216 -220,0 -400,179 -400,400 1,221 180,400 401,400l1200 0 1200 0c220,0 400,-179 400,-400 0,-221 -180,-400 -400,-400 -155,0 -290,88 -356,216 -47,91 -44,85 -196,85l-172 0c-59,0 -83,-20 -83,-79l0 -746c0,-135 96,-188 200,-188l1556 0c300,0 442,264 545,545l1390 3810c170,466 197,348 -19,788l-1371 2796c-132,269 -245,545 -545,545l-2150 0 -2149 0c-300,0 -413,-276 -545,-545l-1372 -2796c-216,-440 -188,-322 -18,-788l1390 -3810c103,-281 245,-545 545,-545zm599 4300c92,0 165,-74 165,-165 0,-91 -73,-165 -165,-165 -91,0 -165,74 -165,165 0,91 74,165 165,165zm0 3100c92,0 165,-74 165,-165 0,-91 -73,-165 -165,-165 -91,0 -165,74 -165,165 0,91 74,165 165,165zm3100 0c92,0 165,-74 165,-165 0,-91 -73,-165 -165,-165 -91,0 -165,74 -165,165 0,91 74,165 165,165zm0 -3100c92,0 165,-74 165,-165 0,-91 -73,-165 -165,-165 -91,0 -165,74 -165,165 0,91 74,165 165,165zm-1550 -265c912,0 1650,739 1650,1650 0,911 -738,1650 -1650,1650 -911,0 -1650,-739 -1650,-1650 0,-911 739,-1650 1650,-1650z"/>
  <path class="fil1" d="M177682 45000c2761,0 5000,2239 5000,5000 0,2761 -2239,5000 -5000,5000 -2762,0 -5000,-2239 -5000,-5000 0,-2761 2238,-5000 5000,-5000zm0 4050c524,0 950,425 950,950 0,525 -426,950 -950,950 -525,0 -950,-425 -950,-950 0,-525 425,-950 950,-950z"/>
 </g>
</svg>
