<?xml version="1.0" encoding="UTF-8"?>
<!DOCTYPE svg PUBLIC "-//W3C//DTD SVG 1.1//EN" "http://www.w3.org/Graphics/SVG/1.1/DTD/svg11.dtd">
<!-- Creator: CorelDRAW X8 -->
<svg xmlns="http://www.w3.org/2000/svg" xml:space="preserve" width="1675.04mm" height="840.692mm" version="1.1" style="shape-rendering:geometricPrecision; text-rendering:geometricPrecision; image-rendering:optimizeQuality; fill-rule:evenodd; clip-rule:evenodd"
viewBox="0 0 1675038 840692"
 xmlns:xlink="http://www.w3.org/1999/xlink">
 <defs>
  <style type="text/css">
   <![CDATA[
    .str3 {stroke:black;stroke-width:176.4}
    .str4 {stroke:#2B2A29;stroke-width:76.2}
    .str1 {stroke:#2B2A29;stroke-width:76.2}
    .str2 {stroke:black;stroke-width:76.2}
    .str0 {stroke:red;stroke-width:76.2}
    .fil0 {fill:none}
   ]]>
  </style>
 </defs>
 <g id="Слой_x0020_1">
  <metadata id="CorelCorpID_0Corel-Layer"/>
  <g id="_1901162932256">
   <path class="fil0 str0" d="M110933 616440c583,2178 -722,4438 -2899,5022 -2178,583 -4438,-722 -5022,-2899 -583,-2178 722,-4438 2900,-5022 2177,-583 4437,722 5021,2899z"/>
   <path class="fil0 str0" d="M272765 709874c583,2177 -721,4438 -2899,5021 -2177,584 -4438,-721 -5022,-2899 -583,-2177 722,-4438 2900,-5021 2177,-584 4438,722 5021,2899z"/>
   <path class="fil0 str0" d="M459632 709874c584,2177 -721,4438 -2899,5021 -2177,584 -4438,-721 -5021,-2899 -584,-2177 721,-4438 2899,-5021 2177,-584 4438,722 5021,2899z"/>
   <path class="fil0 str0" d="M621464 616440c584,2178 -721,4438 -2899,5022 -2177,583 -4438,-722 -5021,-2900 -584,-2177 721,-4438 2899,-5021 2177,-583 4438,722 5021,2899z"/>
   <path class="fil0 str0" d="M714898 454608c583,2177 -722,4438 -2899,5021 -2178,584 -4438,-721 -5022,-2899 -583,-2177 722,-4438 2900,-5021 2177,-584 4437,722 5021,2899z"/>
   <path class="fil0 str0" d="M714898 267741c583,2177 -722,4438 -2899,5021 -2178,584 -4438,-721 -5022,-2899 -583,-2177 722,-4438 2900,-5021 2177,-584 4437,721 5021,2899z"/>
   <path class="fil0 str0" d="M621464 105909c584,2177 -721,4438 -2899,5021 -2177,584 -4438,-721 -5021,-2899 -584,-2177 721,-4438 2899,-5021 2177,-584 4438,722 5021,2899z"/>
   <path class="fil0 str0" d="M459632 12475c583,2178 -721,4438 -2899,5022 -2177,583 -4438,-722 -5022,-2899 -583,-2178 722,-4438 2900,-5022 2177,-583 4438,722 5021,2899z"/>
   <path class="fil0 str0" d="M272765 12475c583,2178 -722,4438 -2899,5022 -2178,583 -4438,-722 -5022,-2899 -583,-2178 722,-4438 2899,-5022 2178,-583 4438,722 5022,2899z"/>
   <path class="fil0 str0" d="M110933 105909c583,2178 -722,4438 -2899,5022 -2178,583 -4438,-722 -5022,-2900 -583,-2177 722,-4438 2899,-5021 2178,-583 4438,722 5022,2899z"/>
   <path class="fil0 str0" d="M17499 267741c584,2178 -721,4438 -2899,5022 -2177,583 -4438,-722 -5021,-2900 -584,-2177 721,-4438 2899,-5021 2177,-583 4438,722 5021,2899z"/>
   <path class="fil0 str0" d="M362238 358186c2237,0 4050,1813 4050,4050 0,2236 -1813,4050 -4050,4050 -2236,0 -4050,-1814 -4050,-4050 0,-2237 1814,-4050 4050,-4050z"/>
   <path class="fil0 str0" d="M17499 454608c584,2178 -721,4438 -2899,5022 -2177,583 -4438,-722 -5021,-2899 -584,-2178 721,-4438 2899,-5022 2177,-583 4438,722 5021,2899z"/>
   <path class="fil0 str1" d="M277136 721560l59719 0 0 0c1803,-12 3836,-585 3858,-3917l0 -21249c0,-2130 1667,-3000 3553,-3000l36448 0c1649,0 3000,1350 3000,3000l-1 21248c30,4414 3901,3857 3910,3918l59720 0c3227,2526 7560,3557 11823,2415 4263,-1142 7500,-4202 9032,-8003l147405 -85105c4058,574 8326,-699 11447,-3820 3121,-3121 4394,-7389 3820,-11447l85104 -147405c3801,-1532 6861,-4768 8004,-9032 1142,-4263 110,-8596 -2416,-11823l0 -170209c2524,-3227 3555,-7559 2413,-11821 -1142,-4261 -4200,-7497 -7998,-9029l-85109 -147412c572,-4056 -701,-8322 -3820,-11441 -3119,-3119 -7385,-4392 -11440,-3821l-147415 -85110c-1533,-3797 -4768,-6854 -9028,-7996 -4261,-1142 -8591,-112 -11818,2411l-170220 0c-3226,-2522 -7556,-3552 -11817,-2410 -4260,1141 -7496,4198 -9029,7996l-147414 85110c-4055,-571 -8320,702 -11439,3821 -3120,3119 -4393,7385 -3821,11441l-85108 147413c-3799,1532 -6856,4768 -7998,9029 -1142,4262 -111,8594 2413,11820l0 170214c-2524,3227 -3554,7558 -2412,11820 1142,4263 4201,7499 8001,9031l85106 147407c-574,4057 700,8324 3820,11445 3121,3120 7389,4394 11447,3820l147404 85104c1532,3800 4769,6860 9032,8003 4263,1142 8597,110 11824,-2416zm260823 -348019c0,-1270 1030,-2300 2300,-2300 1271,0 2300,1030 2300,2300 0,1270 -1029,2300 -2300,2300 -1270,0 -2300,-1029 -2300,-2300zm0 -22688c1,-1270 1030,-2300 2300,-2300 1271,0 2300,1030 2300,2300 0,1270 -1029,2300 -2300,2300 -1270,0 -2300,-1030 -2300,-2300zm-2300 7803l1231 1241 6736 0 1233 -1241 0 -3000 759 -759 4108 0 1233 -1241 0 -3001 759 -758 8083 0 758 759 0 3000 1233 1241 4109 0 758 759 0 3000 1233 1241 7909 0 758 759 0 3082 -758 759 -7909 0 -1233 1241 0 3000 -758 759 -4109 0 -1233 1241 0 3001 -758 758 -8083 0 -759 -759 0 -3000 -1233 -1241 -4108 0 -758 -759 -1 -3000 -1230 -1241 -6737 0 -1233 1241 0 3000 -759 759 -4282 0 -759 -759 0 -13082 759 -759 4282 0 759 758 0 3001zm-15550 -74417c-635,-1100 -258,-2506 842,-3141 1100,-635 2506,-259 3142,841 635,1100 258,2507 -842,3142 -1100,635 -2507,259 -3142,-842zm-11344 -19648c-635,-1100 -259,-2507 841,-3142 1101,-635 2507,-258 3143,842 635,1100 257,2506 -842,3142 -1100,635 -2507,258 -3142,-842zm1909 7908l1686 459 5834 -3368 448 -1692 -1500 -2598 277 -1036 3558 -2054 447 -1692 -1500 -2598 278 -1036 7000 -4042 1036 278 1500 2599 1688 458 3559 -2054 1036 277 1500 2599 1688 458 6849 -3954 1036 277 1542 2670 -278 1036 -6849 3954 -447 1692 1500 2598 -277 1036 -3558 2055 -448 1691 1500 2598 -277 1037 -7000 4041 -1036 -278 -1501 -2598 -1688 -458 -3558 2054 -1036 -278 -1500 -2598 -1686 -460 -5835 3368 -447 1692 1500 2598 -277 1037 -3709 2141 -1036 -278 -6542 -11330 278 -1036 3708 -2141 1037 277 1500 2599zm-50675 -56672c-1100,-635 -1477,-2042 -842,-3142 635,-1100 2042,-1477 3142,-842 1100,635 1477,2042 842,3142 -635,1100 -2042,1477 -3142,842zm-19648 -11344c-1100,-635 -1478,-2042 -843,-3142 636,-1100 2042,-1477 3142,-842 1101,635 1477,2042 842,3142 -635,1100 -2042,1477 -3141,842zm5607 5894l1690 -446 3368 -5834 -458 -1688 -2598 -1500 -278 -1037 2054 -3557 -458 -1689 -2599 -1500 -277 -1036 4041 -7000 1036 -278 2599 1501 1691 -448 2054 -3558 1036 -277 2599 1500 1691 -447 3954 -6849 1037 -278 2669 1541 278 1036 -3954 6849 458 1689 2599 1500 277 1036 -2054 3558 458 1688 2599 1501 278 1036 -4042 7000 -1036 278 -2599 -1501 -1691 448 -2054 3558 -1036 277 -2599 -1500 -1690 445 -3368 5834 458 1689 2598 1500 278 1036 -2141 3709 -1036 277 -11330 -6541 -278 -1036 2141 -3709 1036 -278 2599 1501zm-72222 -23742c-1270,0 -2300,-1030 -2300,-2300 0,-1270 1030,-2300 2300,-2300 1270,0 2300,1030 2300,2300 0,1270 -1029,2300 -2300,2300zm-22688 0c-1270,0 -2300,-1029 -2300,-2300 0,-1270 1030,-2300 2300,-2300 1270,0 2300,1030 2300,2300 0,1270 -1030,2300 -2300,2300zm7803 2301l1241 -1231 0 -6737 -1241 -1233 -3000 0 -759 -758 0 -4108 -1241 -1234 -3001 1 -758 -759 0 -8083 759 -759 3000 1 1241 -1233 0 -4109 759 -758 3000 -1 1241 -1232 0 -7909 759 -759 3082 0 759 759 0 7908 1241 1233 3000 0 759 759 0 4108 1241 1233 3001 0 758 759 0 8083 -759 758 -3000 0 -1241 1234 0 4108 -759 758 -3000 0 -1241 1231 0 6736 1241 1234 3000 0 759 758 0 4283 -759 758 -13082 0 -759 -758 0 -4283 758 -759 3001 1zm-74417 15550c-1100,635 -2506,258 -3141,-842 -635,-1100 -259,-2507 841,-3142 1100,-635 2507,-258 3142,842 635,1100 259,2507 -842,3142zm-19648 11344c-1100,635 -2507,258 -3142,-842 -635,-1100 -258,-2507 842,-3142 1100,-635 2506,-258 3142,842 635,1100 258,2507 -842,3142zm7908 -1910l459 -1686 -3368 -5834 -1692 -447 -2598 1500 -1036 -278 -2054 -3557 -1692 -448 -2598 1501 -1036 -278 -4042 -7000 278 -1036 2599 -1500 458 -1689 -2054 -3558 277 -1036 2599 -1500 458 -1689 -3954 -6849 277 -1036 2670 -1541 1036 277 3954 6849 1692 448 2598 -1501 1036 278 2055 3558 1691 447 2598 -1500 1037 278 4041 7000 -278 1036 -2598 1500 -458 1689 2054 3558 -278 1035 -2598 1501 -460 1686 3368 5834 1692 447 2598 -1500 1037 278 2141 3709 -278 1036 -11330 6541 -1036 -277 -2141 -3709 277 -1036 2599 -1501zm-56672 50675c-635,1100 -2042,1477 -3142,842 -1100,-635 -1477,-2041 -842,-3141 635,-1101 2042,-1477 3142,-842 1100,635 1477,2041 842,3141zm-11344 19649c-635,1100 -2042,1478 -3142,842 -1100,-635 -1477,-2042 -842,-3142 635,-1100 2042,-1477 3142,-842 1100,635 1477,2042 842,3142zm5894 -5607l-446 -1690 -5834 -3369 -1688 459 -1500 2598 -1037 278 -3557 -2055 -1689 459 -1500 2598 -1036 278 -7000 -4042 -278 -1036 1501 -2598 -448 -1691 -3558 -2055 -277 -1036 1500 -2598 -447 -1692 -6849 -3954 -278 -1036 1541 -2670 1036 -278 6849 3955 1689 -459 1500 -2598 1036 -278 3558 2054 1688 -458 1501 -2598 1036 -278 7000 4041 278 1037 -1501 2598 448 1692 3558 2054 277 1036 -1500 2598 445 1690 5834 3369 1689 -459 1500 -2598 1036 -278 3709 2142 277 1036 -6541 11330 -1036 278 -3709 -2142 -278 -1036 1501 -2598zm-23742 72221c0,1271 -1030,2300 -2300,2300 -1270,0 -2300,-1029 -2300,-2300 0,-1270 1030,-2299 2300,-2300 1270,0 2300,1030 2300,2300zm0 22688c0,1271 -1029,2301 -2300,2301 -1270,0 -2300,-1030 -2300,-2300 0,-1271 1030,-2300 2300,-2300 1270,0 2300,1029 2300,2299zm2301 -7802l-1231 -1241 -6737 -1 -1233 1242 0 3000 -758 759 -4108 -1 -1234 1242 1 3000 -759 758 -8083 1 -759 -759 1 -3000 -1233 -1241 -4109 -1 -758 -758 -1 -3000 -1232 -1242 -7909 1 -759 -759 0 -3083 759 -759 7908 1 1233 -1242 0 -3000 759 -759 4108 0 1233 -1240 0 -3001 759 -759 8083 0 758 759 0 3000 1234 1242 4108 0 758 758 0 3001 1231 1241 6736 0 1234 -1242 0 -3000 758 -759 4283 1 758 758 0 13083 -758 759 -4283 -1 -759 -758 1 -3000zm15550 74416c635,1100 258,2507 -842,3142 -1100,635 -2507,258 -3142,-842 -635,-1100 -258,-2506 842,-3142 1100,-635 2507,-258 3142,842zm11344 19649c635,1100 258,2507 -842,3142 -1100,635 -2507,258 -3142,-842 -635,-1100 -258,-2507 842,-3142 1100,-635 2507,-258 3142,842zm-1910 -7908l-1686 -459 -5834 3368 -447 1691 1500 2598 -278 1037 -3557 2054 -448 1691 1501 2599 -278 1036 -7000 4041 -1036 -278 -1500 -2598 -1689 -458 -3558 2054 -1036 -278 -1500 -2598 -1689 -458 -6849 3954 -1036 -278 -1541 -2669 277 -1037 6849 -3954 448 -1691 -1501 -2599 278 -1036 3558 -2054 447 -1691 -1500 -2599 278 -1036 7000 -4042 1036 278 1500 2599 1689 458 3558 -2054 1035 278 1501 2598 1686 459 5834 -3368 447 -1691 -1500 -2599 278 -1036 3709 -2141 1036 277 6541 11330 -277 1037 -3709 2141 -1036 -278 -1501 -2598zm50675 56671c1100,636 1477,2042 842,3142 -635,1100 -2041,1477 -3141,842 -1101,-635 -1477,-2041 -842,-3142 635,-1100 2041,-1477 3141,-842zm19649 11345c1100,635 1478,2041 842,3141 -635,1101 -2042,1478 -3142,842 -1100,-635 -1477,-2041 -842,-3141 635,-1100 2042,-1478 3142,-842zm-5607 -5894l-1690 445 -3369 5834 459 1689 2598 1500 278 1036 -2055 3558 459 1688 2598 1500 278 1036 -4042 7001 -1036 277 -2598 -1500 -1691 447 -2055 3558 -1036 278 -2598 -1500 -1692 447 -3954 6849 -1036 278 -2670 -1542 -278 -1036 3955 -6849 -459 -1688 -2598 -1500 -278 -1037 2054 -3558 -458 -1688 -2598 -1500 -278 -1037 4041 -6999 1037 -278 2598 1500 1692 -447 2054 -3558 1036 -277 2598 1500 1690 -446 3369 -5834 -459 -1688 -2598 -1500 -278 -1037 2142 -3708 1036 -278 11330 6541 278 1037 -2142 3708 -1036 278 -2598 -1500zm72221 23741c1271,0 2300,1030 2300,2300 0,1271 -1029,2300 -2300,2300 -1270,0 -2299,-1029 -2300,-2300 0,-1270 1030,-2300 2300,-2300zm22688 0c1271,1 2301,1030 2301,2300 0,1271 -1030,2300 -2300,2300 -1271,1 -2300,-1029 -2300,-2300 0,-1270 1029,-2300 2299,-2300zm-7802 -2300l-1241 1231 -1 6736 1242 1233 3000 0 759 759 -1 4108 1242 1233 3000 0 758 759 1 8083 -759 758 -3000 0 -1241 1233 -1 4109 -758 758 -3000 0 -1242 1233 1 7909 -759 758 -3083 0 -759 -758 1 -7909 -1242 -1233 -3000 0 -759 -758 0 -4109 -1240 -1233 -3001 0 -759 -758 0 -8083 759 -759 3000 0 1242 -1233 0 -4108 758 -758 3001 -1 1241 -1230 0 -6737 -1242 -1233 -3000 0 -759 -759 1 -4282 758 -759 13083 0 759 759 -1 4282 -758 759 -3000 0zm74416 -15550c1100,-635 2507,-258 3142,842 635,1100 258,2506 -842,3142 -1100,635 -2506,258 -3142,-842 -635,-1100 -258,-2507 842,-3142zm19649 -11344c1100,-635 2507,-259 3142,841 635,1101 258,2507 -842,3143 -1100,635 -2507,257 -3142,-842 -635,-1100 -258,-2507 842,-3142zm-7908 1909l-459 1686 3368 5834 1691 448 2598 -1500 1037 277 2054 3558 1691 447 2599 -1500 1036 278 4041 7000 -278 1036 -2598 1500 -458 1688 2054 3559 -278 1036 -2598 1500 -458 1688 3954 6849 -278 1036 -2669 1542 -1037 -278 -3954 -6849 -1691 -447 -2599 1500 -1036 -277 -2054 -3558 -1691 -448 -2599 1500 -1036 -277 -4042 -7000 278 -1036 2599 -1501 458 -1688 -2054 -3558 278 -1036 2598 -1500 459 -1686 -3368 -5835 -1691 -447 -2599 1500 -1036 -277 -2141 -3709 277 -1036 11330 -6542 1037 278 2141 3708 -278 1037 -2598 1500zm-20103 155299c1227,-329 2488,399 2817,1626 329,1227 -399,2488 -1626,2817 -1227,329 -2488,-399 -2817,-1626 -329,-1227 399,-2489 1626,-2817zm21916 -5872c1227,-329 2488,399 2817,1626 328,1227 -400,2488 -1627,2817 -1227,329 -2488,-400 -2817,-1626 -328,-1227 400,-2489 1627,-2817zm-8133 -203l-880 1510 1743 6507 1519 870 2897 -777 930 537 1063 3968 1518 870 2898 -777 929 537 2092 7807 -536 929 -2899 777 -879 1512 1063 3968 -536 929 -2898 777 -880 1512 2047 7639 -537 929 -2977 798 -929 -536 -2047 -7639 -1518 -870 -2898 777 -929 -537 -1064 -3968 -1517 -870 -2899 777 -929 -537 -2092 -7807 537 -929 2898 -777 879 -1512 -1063 -3969 537 -928 2898 -777 880 -1510 -1743 -6507 -1519 -870 -2898 777 -929 -537 -1108 -4136 536 -929 12637 -3387 929 537 1109 4136 -537 930 -2898 776zm128682 -69396c898,-898 2355,-898 3253,0 898,898 898,2354 0,3252 -898,899 -2355,898 -3253,0 -898,-898 -898,-2354 0,-3252zm16043 -16043c898,-898 2355,-899 3253,-1 898,899 898,2355 0,3253 -898,899 -2355,898 -3253,0 -898,-898 -898,-2354 0,-3252zm-7144 3891l-7 1747 4763 4764 1750 -6 2121 -2121 1073 0 2905 2905 1749 -6 2122 -2122 1073 0 5715 5716 0 1072 -2122 2122 -5 1749 2905 2906 0 1072 -2122 2122 -6 1749 5593 5592 0 1073 -2180 2180 -1073 0 -5592 -5592 -1749 6 -2122 2121 -1073 1 -2905 -2906 -1749 6 -2122 2122 -1073 0 -5715 -5716 0 -1073 2122 -2121 5 -1750 -2905 -2905 0 -1072 2122 -2122 7 -1748 -4763 -4763 -1750 5 -2121 2122 -1073 0 -3028 -3028 0 -1073 9250 -9251 1073 0 3028 3028 1 1073 -2122 2122zm76745 -124441c328,-1227 1590,-1955 2816,-1626 1227,328 1955,1589 1627,2816 -329,1227 -1590,1955 -2817,1627 -1227,-329 -1955,-1590 -1626,-2817zm5872 -21915c329,-1227 1589,-1956 2817,-1627 1227,329 1955,1590 1626,2817 -329,1227 -1590,1955 -2817,1626 -1227,-328 -1955,-1589 -1626,-2816zm-4242 6941l868 1517 6507 1744 1512 -880 776 -2898 930 -536 3968 1063 1512 -879 776 -2899 930 -536 7807 2092 536 929 -776 2898 870 1518 3968 1064 536 929 -776 2898 870 1518 7639 2046 536 930 -797 2977 -930 537 -7639 -2047 -1512 879 -776 2899 -929 536 -3969 -1063 -1512 879 -777 2899 -929 536 -7807 -2092 -537 -929 777 -2898 -870 -1518 -3968 -1064 -536 -929 776 -2898 -867 -1517 -6507 -1744 -1513 880 -776 2898 -929 537 -4137 -1109 -536 -929 3385 -12637 930 -536 4136 1108 537 929 -777 2898zm4242 -146140c-329,-1227 400,-2488 1627,-2817 1226,-329 2487,399 2816,1626 329,1227 -399,2488 -1626,2817 -1227,329 -2488,-399 -2817,-1626zm-5872 -21915c-329,-1227 399,-2489 1626,-2818 1227,-328 2489,400 2817,1627 329,1227 -399,2488 -1626,2817 -1227,328 -2488,-400 -2817,-1626zm-202 8132l1510 880 6506 -1743 870 -1518 -776 -2898 536 -929 3968 -1064 870 -1518 -777 -2898 537 -929 7808 -2092 928 537 777 2898 1512 879 3969 -1063 929 537 776 2897 1512 880 7639 -2047 930 537 798 2977 -537 930 -7639 2046 -870 1518 777 2898 -536 930 -3969 1063 -870 1518 777 2898 -536 929 -7808 2092 -929 -536 -777 -2899 -1512 -879 -3968 1063 -929 -536 -777 -2899 -1509 -880 -6508 1744 -869 1518 776 2898 -536 929 -4137 1108 -929 -536 -3386 -12637 536 -929 4137 -1108 929 536 777 2898zm-69397 -128682c-898,-899 -898,-2355 0,-3253 898,-898 2354,-898 3252,0 899,898 899,2354 0,3252 -898,899 -2354,899 -3252,1zm-16043 -16043c-898,-899 -899,-2355 0,-3253 898,-898 2354,-899 3253,0 898,898 897,2354 -1,3252 -898,898 -2354,899 -3252,1zm3891 7144l1747 7 4764 -4763 -6 -1750 -2121 -2121 0 -1073 2905 -2905 -6 -1750 -2122 -2121 0 -1073 5716 -5716 1073 1 2121 2121 1750 6 2905 -2905 1072 0 2122 2121 1749 6 5593 -5592 1072 0 2180 2179 1 1073 -5593 5593 6 1749 2122 2122 0 1072 -2906 2906 6 1749 2122 2122 0 1072 -5716 5716 -1072 0 -2122 -2122 -1750 -5 -2905 2904 -1072 0 -2122 -2121 -1748 -8 -4763 4764 6 1749 2121 2122 0 1073 -3028 3028 -1073 0 -9251 -9251 0 -1073 3028 -3028 1073 0 2122 2122zm-124441 -76744c-1227,-329 -1955,-1590 -1626,-2817 329,-1227 1590,-1955 2817,-1627 1227,329 1955,1590 1626,2817 -329,1227 -1590,1956 -2817,1627zm-21915 -5872c-1227,-329 -1956,-1590 -1627,-2817 329,-1227 1590,-1956 2817,-1627 1228,329 1955,1590 1627,2817 -329,1227 -1590,1955 -2817,1627zm6942 4241l1517 -868 1743 -6506 -879 -1513 -2898 -776 -537 -929 1064 -3968 -880 -1513 -2898 -776 -537 -929 2092 -7808 929 -536 2899 777 1517 -870 1064 -3969 929 -536 2898 776 1518 -869 2047 -7639 929 -537 2978 798 536 929 -2047 7639 880 1512 2898 777 536 929 -1063 3968 880 1512 2898 777 536 929 -2092 7808 -929 536 -2898 -777 -1518 870 -1063 3969 -929 536 -2899 -777 -1517 868 -1743 6507 879 1512 2898 777 537 929 -1109 4136 -929 537 -12637 -3386 -536 -929 1108 -4137 929 -536 2899 776zm-146141 -4242c-1227,329 -2488,-399 -2817,-1626 -329,-1227 400,-2488 1626,-2817 1227,-329 2488,399 2817,1626 329,1227 -399,2489 -1626,2817zm-21915 5872c-1227,329 -2489,-399 -2817,-1626 -329,-1227 399,-2488 1626,-2817 1227,-329 2488,400 2817,1626 329,1227 -399,2489 -1626,2817zm8132 203l880 -1510 -1743 -6507 -1518 -870 -2898 777 -929 -537 -1063 -3968 -1518 -870 -2899 777 -928 -537 -2093 -7807 537 -929 2898 -777 880 -1512 -1063 -3968 536 -929 2898 -777 880 -1512 -2047 -7639 536 -929 2978 -798 929 536 2047 7639 1518 870 2898 -777 929 537 1063 3968 1518 870 2898 -777 930 537 2091 7807 -536 929 -2898 777 -880 1512 1063 3969 -536 928 -2898 777 -881 1510 1744 6507 1518 870 2898 -777 929 537 1109 4136 -537 929 -12637 3387 -929 -537 -1108 -4136 536 -930 2898 -776zm-128682 69396c-898,899 -2355,898 -3253,0 -898,-898 -898,-2354 0,-3252 898,-898 2354,-898 3253,0 898,898 898,2354 0,3252zm-16043 16043c-898,899 -2355,899 -3253,1 -898,-899 -898,-2355 0,-3253 898,-899 2354,-898 3253,0 898,898 898,2354 0,3252zm7144 -3890l7 -1748 -4763 -4764 -1750 6 -2121 2122 -1073 0 -2905 -2905 -1749 5 -2122 2122 -1073 0 -5715 -5716 0 -1072 2122 -2122 5 -1749 -2905 -2906 0 -1072 2121 -2122 6 -1749 -5592 -5592 0 -1073 2180 -2180 1073 0 5592 5592 1749 -6 2122 -2121 1073 0 2905 2905 1749 -6 2122 -2121 1073 -1 5715 5716 0 1073 -2122 2121 -5 1750 2905 2905 -1 1072 -2121 2122 -7 1748 4763 4763 1750 -5 2121 -2122 1073 0 3028 3029 0 1072 -9250 9251 -1073 0 -3028 -3028 -1 -1073 2122 -2121zm-76744 124440c-329,1227 -1590,1955 -2817,1626 -1227,-328 -1955,-1589 -1626,-2816 328,-1227 1590,-1955 2817,-1627 1227,329 1955,1590 1626,2817zm-5872 21915c-329,1227 -1590,1956 -2817,1627 -1227,-329 -1955,-1590 -1627,-2817 329,-1227 1591,-1955 2817,-1627 1227,329 1956,1590 1627,2817zm4241 -6941l-867 -1518 -6507 -1743 -1512 880 -777 2897 -929 537 -3968 -1063 -1512 879 -777 2899 -929 536 -7808 -2092 -536 -929 777 -2898 -870 -1518 -3968 -1064 -537 -929 777 -2898 -870 -1518 -7639 -2047 -536 -929 797 -2977 929 -537 7639 2047 1513 -880 776 -2898 929 -536 3969 1063 1512 -879 776 -2899 929 -536 7808 2092 536 929 -776 2898 870 1518 3968 1064 536 928 -776 2899 867 1517 6507 1744 1512 -880 777 -2898 929 -537 4137 1109 536 929 -3386 12637 -929 536 -4136 -1108 -537 -929 776 -2898zm-4242 146140c329,1227 -399,2488 -1626,2817 -1227,329 -2488,-399 -2817,-1626 -329,-1227 400,-2488 1627,-2817 1227,-329 2488,399 2816,1626zm5873 21915c328,1227 -399,2489 -1627,2817 -1227,329 -2488,-399 -2817,-1626 -329,-1227 400,-2488 1627,-2817 1227,-329 2488,399 2817,1626zm202 -8132l-1510 -880 -6507 1743 -870 1518 777 2898 -537 929 -3968 1064 -870 1517 777 2899 -536 929 -7808 2092 -929 -537 -776 -2898 -1513 -879 -3968 1063 -929 -537 -777 -2898 -1512 -879 -7639 2047 -929 -537 -798 -2977 536 -930 7639 -2047 870 -1517 -776 -2899 536 -929 3969 -1063 869 -1518 -776 -2898 536 -929 7808 -2092 929 536 776 2898 1513 880 3968 -1063 928 536 777 2899 1510 880 6507 -1744 870 -1518 -776 -2898 536 -929 4137 -1108 929 536 3386 12637 -537 929 -4136 1108 -929 -536 -777 -2898zm69397 128682c898,899 898,2355 0,3253 -898,898 -2355,898 -3253,0 -898,-898 -898,-2354 0,-3252 898,-899 2355,-899 3253,-1zm16043 16043c898,899 898,2355 0,3253 -898,898 -2355,899 -3253,0 -898,-898 -898,-2354 0,-3252 898,-898 2355,-899 3253,-1zm-3891 -7144l-1748 -7 -4763 4763 6 1750 2121 2121 0 1073 -2905 2905 6 1750 2121 2121 0 1073 -5715 5716 -1073 -1 -2121 -2121 -1750 -6 -2905 2905 -1073 0 -2121 -2121 -1750 -6 -5592 5592 -1073 0 -2180 -2179 0 -1073 5592 -5593 -5 -1749 -2122 -2122 0 -1072 2905 -2906 -5 -1749 -2122 -2122 0 -1072 5715 -5716 1073 0 2122 2122 1749 5 2905 -2904 1073 0 2122 2121 1747 8 4764 -4764 -6 -1749 -2121 -2122 -1 -1073 3029 -3028 1072 0 9252 9251 0 1073 -3029 3028 -1072 0 -2122 -2122zm124440 76744c1227,329 1955,1590 1627,2817 -329,1227 -1590,1955 -2817,1627 -1227,-329 -1955,-1590 -1626,-2817 328,-1227 1589,-1956 2816,-1627zm21916 5872c1226,329 1955,1590 1626,2817 -329,1227 -1590,1956 -2817,1627 -1227,-329 -1955,-1590 -1626,-2817 329,-1227 1590,-1955 2817,-1627zm-6942 -4241l-1517 868 -1744 6506 880 1513 2898 776 536 929 -1063 3968 879 1513 2899 776 536 929 -2092 7808 -929 536 -2898 -777 -1518 870 -1064 3969 -928 536 -2898 -776 -1518 869 -2047 7639 -929 537 -2978 -798 -537 -929 2047 -7639 -879 -1512 -2898 -777 -537 -929 1063 -3968 -879 -1512 -2898 -777 -537 -929 2092 -7808 929 -536 2898 777 1518 -870 1064 -3969 929 -536 2898 777 1517 -868 1744 -6507 -880 -1512 -2898 -777 -536 -929 1108 -4136 929 -537 12637 3386 537 929 -1109 4137 -929 536 -2898 -776zm222914 -201732c636,-1100 2042,-1477 3142,-842 1100,635 1477,2042 842,3142 -635,1100 -2041,1477 -3142,842 -1100,-635 -1477,-2042 -842,-3142zm11345 -19648c635,-1100 2041,-1478 3141,-843 1101,636 1478,2042 842,3142 -635,1101 -2041,1477 -3141,842 -1100,-635 -1478,-2042 -842,-3141zm-5894 5607l445 1690 5834 3368 1689 -458 1500 -2598 1036 -278 3558 2054 1688 -458 1500 -2599 1036 -277 7001 4041 277 1036 -1500 2599 447 1691 3558 2054 278 1036 -1500 2599 447 1691 6849 3954 278 1037 -1542 2669 -1036 278 -6849 -3954 -1688 458 -1500 2599 -1037 277 -3558 -2054 -1688 458 -1500 2599 -1037 278 -6999 -4042 -278 -1036 1500 -2599 -447 -1691 -3558 -2054 -277 -1036 1500 -2599 -446 -1690 -5834 -3368 -1688 458 -1500 2598 -1037 278 -3708 -2141 -278 -1036 6541 -11330 1037 -278 3708 2141 278 1036 -1500 2599z"/>
   <path class="fil0 str2" d="M371561 587911c0,-1712 1388,-3100 3100,-3100 1712,0 3100,1388 3100,3100 0,1712 -1388,3100 -3100,3100 -1712,0 -3100,-1388 -3100,-3100z"/>
   <path class="fil0 str2" d="M371561 602434c0,-1712 1388,-3100 3100,-3100 1712,0 3100,1388 3100,3100 0,1712 -1388,3100 -3100,3100 -1712,0 -3100,-1388 -3100,-3100z"/>
   <path class="fil0 str2" d="M347219 587911c0,-1712 1388,-3100 3100,-3100 1712,0 3100,1388 3100,3100 0,1712 -1388,3100 -3100,3100 -1712,0 -3100,-1388 -3100,-3100z"/>
   <path class="fil0 str2" d="M347219 602434c0,-1712 1388,-3100 3100,-3100 1712,0 3100,1388 3100,3100 0,1712 -1388,3100 -3100,3100 -1712,0 -3100,-1388 -3100,-3100z"/>
   <path class="fil0 str2" d="M359390 680467l0 -14706c0,-1705 1395,-3100 3100,-3100 1705,0 3100,1395 3100,3100l0 14706c0,1705 -1395,3100 -3100,3100 -1705,0 -3100,-1395 -3100,-3100z"/>
  </g>
  <g id="_1901419207984">
   <path class="fil0 str1" d="M1675000 362238c0,193300 -156700,350000 -350000,350000 -193300,0 -350000,-156700 -350000,-350000 0,-193299 156700,-349999 350000,-350000 193300,0 350000,156701 350000,350000z"/>
   <path class="fil0 str0" d="M1325000 358138c2264,0 4100,1836 4100,4100 0,2265 -1836,4100 -4100,4100 -2264,0 -4100,-1835 -4100,-4100 0,-2264 1836,-4100 4100,-4100z"/>
   <circle class="fil0 str3" cx="1360355" cy="397594" r="5000"/>
   <circle class="fil0 str3" cx="1360355" cy="326883" r="5000"/>
   <circle class="fil0 str3" cx="1289645" cy="326883" r="5000"/>
   <circle class="fil0 str3" cx="1289645" cy="397594" r="5000"/>
   <circle class="fil0 str3" cx="1611156" cy="326883" r="5000"/>
   <circle class="fil0 str3" cx="1611156" cy="397594" r="5000"/>
   <circle class="fil0 str3" transform="matrix(2.27499E-14 0.858988 -0.858988 2.27499E-14 1.36036E+06 648395)" r="5821"/>
   <circle class="fil0 str3" transform="matrix(2.27499E-14 0.858988 -0.858988 2.27499E-14 1.28964E+06 648395)" r="5821"/>
   <circle class="fil0 str3" cx="1038844" cy="397594" r="5000"/>
   <circle class="fil0 str3" cx="1038844" cy="326883" r="5000"/>
   <circle class="fil0 str3" transform="matrix(-6.88219E-14 -0.858988 0.858988 -6.88219E-14 1.28964E+06 76081.9)" r="5821"/>
   <circle class="fil0 str3" transform="matrix(-6.88219E-14 -0.858988 0.858988 -6.88219E-14 1.36036E+06 76081.9)" r="5821"/>
  </g>
  <path class="fil0 str4" d="M359666 773302c0,-1712 1388,-3100 3100,-3100 1712,0 3100,1388 3100,3100 0,1712 -1388,3100 -3100,3100 -1712,0 -3100,-1388 -3100,-3100zm18600 32502c-911,0 -1650,-738 -1650,-1650 0,-911 739,-1650 1650,-1650 911,0 1650,739 1650,1650 0,912 -739,1650 -1650,1650zm-31000 31000c912,0 1650,-738 1650,-1650 0,-911 -738,-1650 -1650,-1650 -911,0 -1650,739 -1650,1650 0,912 739,1650 1650,1650zm0 -31000c911,0 1650,-738 1650,-1650 0,-911 -738,-1650 -1650,-1650 -911,0 -1650,739 -1650,1650 0,912 739,1650 1650,1650zm15500 -2650c9113,0 16500,7387 16500,16500 0,9113 -7387,16500 -16500,16500l0 0 0 0c-9113,0 -16500,-7387 -16500,-16500 0,-9113 7387,-16500 16500,-16500zm15500 33650c-911,0 -1650,-738 -1650,-1650 0,-911 739,-1650 1650,-1650 911,0 1650,739 1650,1650 0,912 -739,1650 -1650,1650zm5999 -53263l-12104 -9706c9,-176 15,-354 15,-533 0,-5197 -4213,-9410 -9410,-9410 -5197,0 -9410,4213 -9410,9410 0,157 4,312 12,467l-12101 9772c-2993,0 -5443,2450 -5443,5443l0 44508c0,4275 3243,7162 6236,7162l41412 0c2993,0 6236,-2887 6236,-7162l0 -44508c0,-2993 -2450,-5443 -5443,-5443z"/>
 </g>
</svg>
