<?xml version="1.0" encoding="UTF-8"?>
<!DOCTYPE svg PUBLIC "-//W3C//DTD SVG 1.1//EN" "http://www.w3.org/Graphics/SVG/1.1/DTD/svg11.dtd">
<!-- Creator: CorelDRAW X7 -->
<svg xmlns="http://www.w3.org/2000/svg" xml:space="preserve" width="1900mm" height="1000mm" version="1.1" style="shape-rendering:geometricPrecision; text-rendering:geometricPrecision; image-rendering:optimizeQuality; fill-rule:evenodd; clip-rule:evenodd"
viewBox="0 0 190000 100000"
 xmlns:xlink="http://www.w3.org/1999/xlink">
 <defs>
  <style type="text/css">
   <![CDATA[
    .fil0 {fill:#FEFEFE}
    .fil1 {fill:#D80003}
   ]]>
  </style>
 </defs>
 <g id="Layer_x0020_1">
  <metadata id="CorelCorpID_0Corel-Layer"/>
  <rect class="fil0" width="190000" height="100000"/>
  <path class="fil1" d="M67539 49610c216,0 390,175 390,390 0,215 -174,390 -390,390 -215,0 -390,-175 -390,-390 0,-215 175,-390 390,-390zm13467 -14682c86,86 226,86 312,0 85,-86 85,-225 0,-311 -86,-86 -226,-86 -312,0 -86,86 -85,226 0,311zm1605 1605c86,86 225,86 311,0 86,-86 86,-225 0,-311 -86,-86 -225,-86 -311,0 -86,86 -86,225 0,311zm-951 265l99 0 297 -297 0 -99 -212 -212 -1 -183 553 -553 183 1 212 212 99 0 220 -220 183 1 213 212 99 0 565 -566 0 -99 -212 -212 0 -183 219 -220 0 -99 -212 -212 0 -183 630 -630 0 -99 -213 -212 -99 0 -630 630 -183 -1 -212 -212 -99 0 -220 220 -183 -1 -212 -212 -99 0 -566 566 0 99 212 212 1 183 -220 220 0 99 212 212 1 183 -553 553 -183 -1 -212 -212 -99 0 -297 297 0 99 919 919zm3352 -4271c152,153 399,153 551,0 153,-152 153,-399 0,-551 -152,-152 -399,-152 -551,0 -152,152 -152,399 0,551zm1726 11154c31,118 152,187 269,156 118,-32 187,-152 156,-270 -32,-117 -152,-187 -270,-155 -117,31 -187,152 -155,269zm587 2192c32,117 152,187 270,155 117,-31 187,-152 155,-269 -31,-117 -152,-187 -269,-156 -118,32 -187,152 -156,270zm-956 -246l86 50 405 -109 50 -86 -78 -289 91 -159 756 -203 158 93 78 289 85 50 301 -81 158 93 78 289 85 50 773 -207 50 -86 -78 -290 91 -159 300 -80 50 -86 -78 -290 91 -159 861 -230 49 -86 -77 -290 -86 -49 -861 230 -158 -92 -78 -290 -85 -49 -301 80 -158 -92 -78 -290 -85 -49 -773 207 -50 86 78 289 -91 159 -300 81 -50 86 78 289 -91 159 -756 203 -158 -92 -77 -290 -86 -50 -406 109 -49 86 336 1255zm5038 -2022c56,208 270,331 478,275 208,-55 331,-269 276,-477 -56,-208 -270,-332 -478,-276 -208,56 -331,270 -276,478zm-4082 10522c-31,118 38,238 156,270 117,31 238,-39 269,-156 32,-117 -38,-238 -155,-269 -118,-32 -238,38 -270,155zm-587 2192c-32,117 38,238 156,269 117,32 238,-38 269,-155 31,-118 -38,-238 -156,-270 -117,-31 -238,38 -269,156zm-705 -691l49 86 406 109 86 -50 77 -290 159 -92 755 203 91 159 -78 289 50 86 300 80 91 159 -78 290 50 86 773 207 85 -49 78 -290 158 -92 301 80 85 -49 78 -290 158 -92 861 230 86 -49 77 -290 -49 -86 -861 -230 -91 -159 78 -290 -50 -86 -300 -80 -91 -159 78 -290 -50 -86 -773 -207 -85 50 -78 289 -158 93 -301 -81 -85 50 -78 289 -158 93 -756 -203 -91 -159 78 -290 -50 -85 -405 -109 -86 49 -336 1256zm5374 767c-55,208 68,422 276,478 208,56 422,-68 478,-276 55,-208 -68,-422 -276,-477 -208,-56 -422,67 -478,275zm-8796 7072c-86,86 -86,225 0,311 86,86 225,86 311,0 86,-86 86,-225 0,-311 -86,-86 -225,-86 -311,0zm-1605 1605c-85,85 -85,225 0,311 86,86 226,86 312,0 85,-86 85,-226 0,-311 -86,-86 -226,-86 -312,0zm-265 -951l0 99 297 297 99 0 212 -212 183 -1 553 553 -1 183 -212 212 0 99 220 220 -1 183 -212 212 0 99 566 566 99 0 212 -212 183 -1 220 220 99 0 212 -212 184 -1 629 630 99 0 213 -212 0 -99 -630 -630 0 -183 212 -212 0 -99 -219 -220 0 -183 212 -212 0 -99 -565 -566 -99 0 -212 212 -184 1 -220 -220 -99 0 -212 212 -183 1 -553 -553 1 -183 212 -212 0 -99 -297 -297 -99 0 -919 919zm4271 3352c-152,152 -152,399 0,551 152,152 399,152 551,0 153,-152 153,-399 0,-551 -152,-153 -399,-153 -551,0zm-11154 1726c-117,31 -187,152 -156,269 32,118 152,187 270,156 117,-32 187,-152 155,-270 -31,-117 -152,-187 -269,-155zm-2192 587c-117,31 -187,152 -155,269 31,118 152,187 269,156 118,-31 187,-152 156,-269 -32,-118 -152,-187 -270,-156zm246 -956l-50 86 109 405 86 50 289 -78 159 91 203 756 -92 158 -290 77 -50 86 81 300 -92 159 -290 77 -50 86 207 773 86 49 290 -77 159 91 80 300 86 50 290 -78 159 91 230 861 86 49 290 -78 49 -85 -230 -861 92 -158 290 -78 49 -86 -80 -300 92 -158 290 -78 49 -86 -207 -772 -85 -50 -290 78 -159 -91 -81 -301 -85 -49 -290 78 -159 -92 -203 -755 93 -158 289 -78 50 -85 -109 -406 -86 -50 -1255 337zm2023 5038c-208,56 -332,270 -276,478 56,208 269,331 477,275 208,-55 332,-269 276,-477 -56,-208 -269,-332 -477,-276zm-10523 -4082c-117,-31 -238,38 -269,156 -32,117 38,238 155,269 118,31 238,-38 270,-156 31,-117 -39,-238 -156,-269zm-2192 -587c-117,-32 -238,38 -269,155 -31,118 38,238 156,270 117,31 238,-38 269,-156 31,-117 -38,-238 -156,-269zm691 -706l-86 50 -108 406 49 85 290 78 92 158 -202 756 -159 91 -290 -78 -86 49 -80 301 -159 91 -290 -78 -86 50 -207 772 50 86 289 78 93 158 -81 300 50 86 289 78 93 158 -231 861 49 85 290 78 86 -49 231 -861 159 -91 289 78 86 -50 80 -300 159 -91 290 77 86 -49 207 -773 -49 -86 -290 -77 -92 -159 80 -300 -49 -86 -290 -77 -92 -159 202 -755 159 -91 290 78 85 -50 109 -405 -49 -86 -1256 -337zm-767 5375c-208,-56 -422,68 -478,276 -56,208 68,422 276,477 208,56 422,-67 477,-275 56,-208 -67,-422 -275,-478zm-7072 -8796c-86,-86 -225,-86 -311,0 -86,85 -86,225 0,311 86,86 225,86 311,0 86,-86 86,-226 0,-311zm-1604 -1605c-86,-86 -226,-86 -311,0 -86,86 -86,225 0,311 85,86 225,86 311,0 86,-86 86,-225 0,-311zm950 -265l-99 0 -297 297 0 99 212 212 1 183 -553 553 -183 -1 -212 -212 -99 0 -220 220 -183 -1 -212 -212 -99 0 -566 566 0 99 212 212 1 183 -220 220 0 99 212 212 1 183 -630 630 0 99 212 212 99 0 630 -630 183 1 212 212 99 0 220 -220 183 1 212 212 99 0 566 -566 0 -99 -212 -212 -1 -183 220 -220 0 -99 -212 -212 -1 -183 553 -553 183 1 213 212 99 0 297 -297 0 -99 -920 -919zm-3351 4271c-153,-153 -400,-153 -552,0 -152,152 -152,399 0,551 152,152 399,152 552,0 152,-152 152,-399 0,-551zm-1727 -11154c-31,-118 -152,-187 -269,-156 -117,32 -187,152 -156,270 32,117 153,187 270,155 117,-31 187,-152 155,-269zm-587 -2192c-31,-117 -152,-187 -269,-155 -118,31 -187,152 -156,269 32,117 152,187 270,156 117,-32 187,-152 155,-270zm956 246l-85 -50 -406 109 -50 85 78 290 -91 159 -755 203 -159 -93 -77 -289 -86 -50 -300 81 -159 -93 -77 -289 -86 -50 -773 207 -49 86 77 290 -91 159 -300 80 -49 86 77 290 -91 159 -860 230 -50 86 78 290 86 49 860 -230 158 92 78 290 86 49 300 -80 158 92 78 290 86 49 773 -207 49 -86 -78 -289 92 -159 300 -81 49 -86 -77 -289 91 -159 755 -203 158 92 78 290 86 50 405 -109 50 -86 -337 -1255zm-5038 2022c-56,-208 -269,-331 -477,-275 -208,55 -332,269 -276,477 56,208 269,332 477,276 208,-56 332,-270 276,-478zm4082 -10522c32,-118 -38,-238 -155,-270 -118,-31 -238,39 -270,156 -31,117 38,238 156,269 117,32 238,-38 269,-155zm587 -2192c32,-117 -38,-238 -155,-269 -118,-32 -238,38 -270,155 -31,118 39,238 156,270 117,31 238,-38 269,-156zm706 691l-50 -86 -405 -109 -86 50 -78 290 -158 92 -756 -203 -90 -159 77 -289 -49 -86 -300 -81 -92 -158 78 -290 -49 -86 -773 -207 -86 49 -78 290 -158 92 -300 -80 -86 49 -78 290 -158 92 -861 -230 -85 49 -78 290 50 86 860 230 91 159 -77 290 49 86 300 80 91 159 -77 290 49 86 773 207 86 -50 77 -289 159 -93 300 81 86 -50 77 -289 159 -93 755 203 91 159 -78 290 50 85 406 109 85 -49 337 -1256zm-5375 -767c56,-208 -68,-422 -276,-478 -208,-56 -421,68 -477,276 -56,208 68,422 276,477 208,56 421,-67 477,-275zm8797 -7072c86,-86 86,-225 0,-311 -86,-86 -226,-86 -312,0 -85,86 -85,225 0,311 86,86 226,86 312,0zm1604 -1605c86,-85 86,-225 0,-311 -86,-86 -225,-86 -311,0 -86,86 -86,226 0,311 86,86 225,86 311,0zm265 951l0 -99 -296 -297 -99 0 -213 212 -183 1 -553 -553 1 -183 212 -212 0 -99 -220 -220 1 -183 212 -212 0 -99 -566 -566 -99 0 -212 212 -183 1 -220 -220 -99 0 -212 212 -183 1 -630 -630 -99 0 -212 212 0 99 630 630 -1 183 -212 212 0 99 220 220 -1 183 -212 212 0 99 566 566 99 0 212 -212 183 -1 220 220 99 0 212 -212 183 -1 553 553 -1 183 -212 212 0 99 297 297 99 0 919 -919zm-4270 -3352c152,-152 152,-399 0,-551 -153,-152 -400,-152 -552,0 -152,152 -152,399 0,551 152,153 399,153 552,0zm11153 -1726c118,-31 187,-152 156,-269 -31,-118 -152,-187 -269,-156 -118,32 -187,152 -156,270 31,117 152,187 269,155zm2192 -587c117,-31 187,-152 156,-269 -32,-118 -153,-187 -270,-156 -117,31 -187,152 -155,269 31,118 152,187 269,156zm-245 956l49 -86 -109 -405 -85 -50 -290 78 -159 -91 -202 -756 92 -158 290 -77 49 -86 -80 -300 92 -159 289 -77 50 -86 -207 -773 -86 -49 -290 77 -159 -91 -80 -300 -86 -50 -290 78 -159 -91 -230 -861 -86 -49 -290 78 -49 85 230 861 -92 158 -289 78 -50 86 80 300 -92 158 -289 78 -50 86 207 772 86 50 290 -78 159 91 80 301 86 49 290 -78 159 92 202 755 -92 158 -290 78 -49 85 108 406 86 50 1256 -337zm-2023 -5038c208,-56 331,-270 275,-478 -55,-208 -269,-331 -477,-275 -208,55 -332,269 -276,477 56,208 270,332 478,276zm10522 4082c118,31 238,-38 270,-156 31,-117 -38,-238 -156,-269 -117,-31 -238,38 -269,156 -32,117 38,238 155,269zm2192 587c117,32 238,-38 269,-155 32,-118 -38,-238 -155,-270 -118,-31 -238,38 -270,156 -31,117 39,238 156,269zm-691 706l86 -50 109 -406 -50 -85 -289 -78 -93 -158 203 -756 159 -91 290 78 85 -49 81 -301 159 -91 289 78 86 -50 207 -772 -49 -86 -290 -78 -92 -158 80 -300 -49 -86 -290 -78 -92 -158 230 -861 -49 -85 -290 -78 -86 49 -230 861 -159 91 -290 -78 -86 50 -80 300 -159 91 -290 -77 -86 49 -207 773 50 86 290 77 92 159 -81 300 50 86 290 77 92 159 -203 755 -159 91 -289 -78 -86 50 -109 405 50 86 1255 337zm768 -5375c208,56 421,-68 477,-276 56,-208 -68,-422 -276,-477 -208,-56 -421,67 -477,275 -56,208 68,422 276,478zm-732 49175l-3122 0c-178,-3 -390,-63 -392,-392l0 -2468c0,-165 -135,-300 -300,-300l-55 0c-104,0 -200,-53 -200,-188l5 -2245c0,-221 -179,-400 -400,-400 -155,0 -289,88 -355,217 -47,91 -44,84 -196,84l-173 0c-58,0 -82,-19 -82,-78l0 -746 0 -1422c0,-59 24,-78 82,-78l173 0c152,0 149,-7 196,84 66,129 200,217 355,217 221,0 400,-179 400,-400 0,-221 -179,-400 -400,-400l-1200 0 -1200 0c-221,0 -400,179 -400,400 0,221 179,400 400,400 155,0 289,-88 356,-217 47,-91 44,-84 195,-84l173 0c59,0 82,19 82,78l0 1422 0 746c0,59 -23,78 -82,78l-173 0c-151,0 -148,7 -195,-84 -67,-129 -201,-217 -356,-217 -221,0 -400,179 -400,400l5 2245c0,135 -95,188 -200,188l-55 0c-165,0 -300,135 -300,300l0 2468c-2,329 -213,389 -392,392l-3121 0c-323,253 -756,356 -1183,242 -426,-114 -750,-420 -903,-801l-9809 -5663c-406,57 -833,-70 -1145,-382 -312,-312 -439,-739 -382,-1145l-5663 -9809c-380,-153 -686,-477 -801,-903 -114,-426 -11,-860 242,-1182l0 -11327c-253,-323 -356,-756 -242,-1183 115,-426 421,-750 801,-903l5663 -9809c-57,-406 70,-833 382,-1145 312,-312 739,-439 1145,-382l9809 -5663c153,-380 477,-686 903,-801 427,-114 860,-11 1183,242l11327 0c322,-253 756,-356 1182,-242 426,115 750,420 903,800l9810 5664c405,-57 832,70 1144,382 312,312 439,739 382,1145l5664 9809c380,153 686,477 800,903 114,426 11,860 -242,1182l0 11327c253,323 356,756 242,1183 -114,426 -420,750 -800,903l-5664 9809c58,406 -70,833 -382,1145 -312,312 -739,439 -1144,382l-9810 5663c-153,380 -477,686 -903,801 -426,114 -860,11 -1182,-242z"/>
  <path class="fil1" d="M122496 49774c216,0 390,175 390,390 0,216 -174,390 -390,390 -215,0 -390,-174 -390,-390 0,-215 175,-390 390,-390zm0 -23610c13255,0 24000,10745 24000,24000 0,13255 -10745,24000 -24000,24000 -13255,0 -24000,-10745 -24000,-24000 0,-13255 10745,-24000 24000,-24000z"/>
  <path class="fil1" d="M30212 46087l1557 0c104,0 199,53 199,188l0 746c0,59 -23,78 -82,78l-173 0c-151,0 -148,7 -195,-84 -67,-129 -201,-217 -356,-217 -221,0 -400,179 -400,400 0,221 179,400 400,400l1200 0 1200 0c221,0 400,-179 400,-400 0,-221 -179,-400 -400,-400 -155,0 -289,88 -355,217 -47,91 -44,84 -196,84l-173 0c-58,0 -82,-19 -82,-78l0 -746c0,-135 95,-188 200,-188l1556 0c299,0 442,263 544,544l1391 3811c170,466 197,347 -19,788l-1372 2796c-132,269 -245,544 -544,544l-2150 0 -2150 0c-299,0 -412,-275 -544,-544l-1372 -2796c-216,-441 -189,-322 -19,-788l1391 -3811c103,-281 245,-544 544,-544zm600 4299c91,0 165,-74 165,-165 0,-91 -74,-165 -165,-165 -91,0 -165,74 -165,165 0,91 74,165 165,165zm0 3100c91,0 165,-74 165,-165 0,-91 -74,-165 -165,-165 -91,0 -165,74 -165,165 0,91 74,165 165,165zm3100 0c91,0 165,-74 165,-165 0,-91 -74,-165 -165,-165 -91,0 -165,74 -165,165 0,91 74,165 165,165zm0 -3100c91,0 165,-74 165,-165 0,-91 -74,-165 -165,-165 -91,0 -165,74 -165,165 0,91 74,165 165,165zm-1550 -265c911,0 1650,739 1650,1650 0,912 -739,1650 -1650,1650 -911,0 -1650,-738 -1650,-1650 0,-911 739,-1650 1650,-1650z"/>
  <path class="fil1" d="M156858 45329c2761,0 5000,2238 5000,5000 0,2761 -2239,5000 -5000,5000 -2761,0 -5000,-2239 -5000,-5000 0,-2762 2239,-5000 5000,-5000zm0 4050c525,0 950,425 950,950 0,524 -425,950 -950,950 -525,0 -950,-426 -950,-950 0,-525 425,-950 950,-950z"/>
 </g>
</svg>
