<?xml version="1.0" encoding="UTF-8"?>
<!DOCTYPE svg PUBLIC "-//W3C//DTD SVG 1.1//EN" "http://www.w3.org/Graphics/SVG/1.1/DTD/svg11.dtd">
<!-- Creator: CorelDRAW X7 -->
<svg xmlns="http://www.w3.org/2000/svg" xml:space="preserve" width="500mm" height="400mm" version="1.1" style="shape-rendering:geometricPrecision; text-rendering:geometricPrecision; image-rendering:optimizeQuality; fill-rule:evenodd; clip-rule:evenodd"
viewBox="0 0 50000 40000"
 xmlns:xlink="http://www.w3.org/1999/xlink">
 <defs>
  <style type="text/css">
   <![CDATA[
    .fil0 {fill:#FEFEFE}
    .fil1 {fill:#D80003}
   ]]>
  </style>
 </defs>
 <g id="Layer_x0020_1">
  <metadata id="CorelCorpID_0Corel-Layer"/>
  <rect class="fil0" width="50000" height="40000"/>
  <g id="_1681226792432">
   <path class="fil1" d="M11051 14342c0,221 179,400 400,400 221,0 400,-179 400,-400 0,-221 -179,-400 -400,-400 -221,0 -400,179 -400,400zm11317 0c0,221 179,400 400,400 221,0 400,-179 400,-400 0,-221 -179,-400 -400,-400 -221,0 -400,179 -400,400zm-11317 11316c0,221 179,400 400,400 221,0 400,-179 400,-400 0,-221 -179,-400 -400,-400 -221,0 -400,179 -400,400zm3252 -10830c96,0 175,-78 175,-175 0,-97 -79,-175 -175,-175 -97,0 -175,78 -175,175 0,97 78,175 175,175zm2800 0c96,0 175,-78 175,-175 0,-97 -79,-175 -175,-175 -97,0 -175,78 -175,175 0,97 78,175 175,175zm0 2100c96,0 175,-78 175,-175 0,-97 -79,-175 -175,-175 -97,0 -175,78 -175,175 0,97 78,175 175,175zm-2800 0c96,0 175,-78 175,-175 0,-97 -79,-175 -175,-175 -97,0 -175,78 -175,175 0,97 78,175 175,175zm2975 3566c0,-97 -79,-175 -175,-175 -97,0 -175,78 -175,175 0,96 78,175 175,175 96,0 175,-79 175,-175zm-4800 -100c0,-97 -79,-175 -175,-175 -97,0 -175,78 -175,175 0,96 78,175 175,175 96,0 175,-79 175,-175zm500 5200c0,-97 -79,-175 -175,-175 -97,0 -175,78 -175,175 0,96 78,175 175,175 96,0 175,-79 175,-175zm2800 0c0,-97 -79,-175 -175,-175 -97,0 -175,78 -175,175 0,96 78,175 175,175 96,0 175,-79 175,-175zm6571 -4169c96,0 175,78 175,175 0,97 -79,175 -175,175 -97,0 -175,-78 -175,-175 0,-97 78,-175 175,-175zm0 -3200c96,0 175,78 175,175 0,97 -79,175 -175,175 -97,0 -175,-78 -175,-175 0,-97 78,-175 175,-175zm19 7433c0,221 179,400 400,400 221,0 400,-179 400,-400 0,-221 -179,-400 -400,-400 -221,0 -400,179 -400,400zm1992 -12333l0 13350c0,316 -259,575 -575,575l-13351 0c-316,0 -574,-259 -574,-575l0 -13350c0,-316 258,-575 574,-575l13351 0c316,0 575,259 575,575zm-445 2246l-310 0 0 3020 310 0 0 -3020zm0 5838l-310 0 0 3020 310 0 0 -3020zm-5396 5082l0 310 3020 0 0 -310 -3020 0zm-5838 0l0 310 3020 0 0 -310 -3020 0zm5838 -13292l0 310 3020 0 0 -310 -3020 0zm-5838 0l0 310 3020 0 0 -310 -3020 0zm-2063 2372l-310 0 0 3020 310 0 0 -3020zm0 5838l-310 0 0 3020 310 0 0 -3020z"/>
   <path class="fil1" d="M31850 14342c0,248 201,450 450,450 248,0 450,-202 450,-450 0,-249 -202,-450 -450,-450 -249,0 -450,201 -450,450zm11316 0c0,248 201,450 450,450 249,0 450,-202 450,-450 0,-249 -201,-450 -450,-450 -249,0 -450,201 -450,450zm-11316 11316c0,249 201,450 450,450 248,0 450,-201 450,-450 0,-248 -202,-450 -450,-450 -249,0 -450,202 -450,450zm11316 0c0,249 201,450 450,450 249,0 450,-201 450,-450 0,-248 -201,-450 -450,-450 -249,0 -450,202 -450,450zm2042 -12333l0 13350c0,316 -259,575 -575,575l-13351 0c-316,0 -574,-259 -574,-575l0 -13350c0,-316 258,-575 574,-575l13351 0c316,0 575,259 575,575z"/>
   <path class="fil1" d="M16872 9251l0 0c0,83 -67,150 -150,150l-100 0c-82,0 -150,-67 -150,-150l0 0c0,-82 68,-150 150,-150l100 0c83,0 150,68 150,150zm-3041 -175c96,0 175,78 175,175 0,97 -79,175 -175,175 -97,0 -175,-78 -175,-175 0,-97 78,-175 175,-175zm-3220 1903l0 -3456 12997 0 0 3456 -2074 0 0 300 -3014 0 0 -300 -2824 0 0 300 -3015 0 0 -300 -2070 0zm8165 -2067c0,-276 -224,-500 -500,-500 -276,0 -500,224 -500,500 0,276 224,500 500,500 276,0 500,-224 500,-500zm2042 0c0,-276 -224,-500 -500,-500 -276,0 -500,224 -500,500 0,276 224,500 500,500 276,0 500,-224 500,-500z"/>
   <path class="fil1" d="M16872 30749l0 0c0,-83 -67,-150 -150,-150l-100 0c-82,0 -150,67 -150,150l0 0c0,82 68,150 150,150l100 0c83,0 150,-68 150,-150zm-3041 175c96,0 175,-78 175,-175 0,-97 -79,-175 -175,-175 -97,0 -175,78 -175,175 0,97 78,175 175,175zm-3220 -1903l0 3456 12997 0 0 -3456 -2074 0 0 -300 -3014 0 0 300 -2824 0 0 -300 -3015 0 0 300 -2070 0zm8165 2067c0,276 -224,500 -500,500 -276,0 -500,-224 -500,-500 0,-276 224,-500 500,-500 276,0 500,224 500,500zm2042 0c0,276 -224,500 -500,500 -276,0 -500,-224 -500,-500 0,-276 224,-500 500,-500 276,0 500,224 500,500z"/>
   <path class="fil1" d="M5375 19000c82,0 150,-67 150,-150 0,-83 -68,-150 -150,-150 -83,0 -150,67 -150,150 0,83 67,150 150,150zm2874 -412l300 0 0 -3014 -300 0 0 -2370 -3457 0 0 13592 3457 0 0 -2370 300 0 0 -3014 -300 0 0 -2824zm-2874 2712c82,0 150,-67 150,-150 0,-83 -68,-150 -150,-150 -83,0 -150,67 -150,150 0,83 67,150 150,150zm2300 -2300c82,0 150,-67 150,-150 0,-83 -68,-150 -150,-150 -83,0 -150,67 -150,150 0,83 67,150 150,150zm0 2300c82,0 150,-67 150,-150 0,-83 -68,-150 -150,-150 -83,0 -150,67 -150,150 0,83 67,150 150,150z"/>
   <path class="fil1" d="M26495 25152l0 -731c0,-154 126,-280 279,-280l1788 0c154,0 280,126 280,280l0 731c0,154 -126,280 -280,280l-1788 0c-153,0 -279,-126 -279,-280zm0 -1785l0 -731c0,-154 126,-280 279,-280l1788 0c154,0 280,126 280,280l0 731c0,154 -126,279 -280,279l-1788 0c-153,0 -279,-125 -279,-279zm0 -8519l0 731c0,154 126,280 279,280l1788 0c154,0 280,-126 280,-280l0 -731c0,-154 -126,-280 -280,-280l-1788 0c-153,0 -279,126 -279,280zm-825 3740l300 0 0 2824 -300 0 0 3014 300 0 0 2370 3427 0 0 -13592 -3427 0 0 2370 -300 0 0 3014zm825 -1955l0 731c0,154 126,280 279,280l1788 0c154,0 280,-126 280,-280l0 -731c0,-154 -126,-279 -280,-279l-1788 0c-153,0 -279,125 -279,279zm1173 3517c83,0 150,-67 150,-150 0,-83 -67,-150 -150,-150 -83,0 -150,67 -150,150 0,83 67,150 150,150z"/>
  </g>
 </g>
</svg>
